<svg width="35" height="30" viewBox="0 0 35 30" fill="none" xmlns="http://www.w3.org/2000/svg">
<path d="M33.4494 16.3393H4.43032V3.37057C4.43032 2.26946 5.52639 1.37222 6.88472 1.34615C6.87542 1.40542 6.86567 1.46469 6.86744 1.52574C6.87586 1.84244 7.03447 2.14092 7.31447 2.36622L7.59047 2.58865C6.78283 3.68191 6.89447 5.05759 7.9737 5.92769L8.13009 6.05373L7.50364 6.55858L8.44331 7.31587L9.06976 6.81101H9.0702L15.3356 1.76139L15.9616 1.25653L15.0219 0.499252L14.395 1.00411L14.2391 0.878429C13.6498 0.403565 12.8462 0.141855 11.9769 0.141855C11.3226 0.141855 10.6726 0.295382 10.098 0.569946L9.82026 0.346439C9.27976 -0.0898642 8.36755 -0.113429 7.8018 0.272175H6.94498C4.82551 0.272175 3.10078 1.66213 3.10078 3.37021V16.339H1.55017C0.695118 16.339 0 16.8995 0 17.5886C0 18.2777 0.695118 18.8383 1.55017 18.8383H3.10167V18.8386H31.8983V18.8383H33.4494C34.3044 18.8383 35 18.2777 35 17.5886C35 16.8995 34.3044 16.3393 33.4494 16.3393Z" fill="#28A745"/>
<path d="M12.2027 5.29578L14.082 6.8103L15.0218 6.05291L13.1425 4.53839L12.2027 5.29578Z" fill="#28A745"/>
<path d="M21.6 11.3552L20.6602 12.1125L21.9135 13.1227L22.8533 12.3653L21.6 11.3552Z" fill="#28A745"/>
<path d="M20.6596 10.5975L18.7803 9.08252L17.8403 9.8398L19.7197 11.3548L20.6596 10.5975Z" fill="#28A745"/>
<path d="M15.9618 6.81073L15.022 7.56812L16.9016 9.08289L17.8414 8.3255L15.9618 6.81073Z" fill="#28A745"/>
<path d="M18.4684 11.3552L17.5286 12.1125L19.4079 13.6271L20.3477 12.8697L18.4684 11.3552Z" fill="#28A745"/>
<path d="M13.7689 9.08332L14.7087 8.32593L12.8294 6.8114L11.8896 7.56879L13.7689 9.08332Z" fill="#28A745"/>
<path d="M22.5403 14.6371L21.2869 13.627L20.3471 14.3843L21.6004 15.3944L22.5403 14.6371Z" fill="#28A745"/>
<path d="M14.7087 9.84044L16.5886 11.3555L17.5284 10.5981L15.6485 9.08305L14.7087 9.84044Z" fill="#28A745"/>
<path d="M18.4684 6.30535L17.5286 7.06274L19.4085 8.57778L20.3483 7.82039L18.4684 6.30535Z" fill="#28A745"/>
<path d="M14.7093 4.79114L16.5886 6.30566L17.5284 5.54827L15.6491 4.03375L14.7093 4.79114Z" fill="#28A745"/>
<path d="M21.2882 8.57757L20.3484 9.33496L22.2277 10.8495L23.1675 10.0921L21.2882 8.57757Z" fill="#28A745"/>
<path d="M25.3604 11.8597L24.1067 10.8494L23.1669 11.6068L24.4206 12.6171L25.3604 11.8597Z" fill="#28A745"/>
<path d="M25.0468 10.5982L25.9866 9.84082L24.7332 8.83072L23.7934 9.5881L25.0468 10.5982Z" fill="#28A745"/>
<path d="M17.214 4.28595L18.1538 3.52856L16.2745 2.01404L15.3347 2.77143L17.214 4.28595Z" fill="#28A745"/>
<path d="M22.8537 8.83039L23.7935 8.073L21.9138 6.55822L20.974 7.31561L22.8537 8.83039Z" fill="#28A745"/>
<path d="M20.0338 6.55817L20.9736 5.80078L19.094 4.286L18.1542 5.04339L20.0338 6.55817Z" fill="#28A745"/>
<path d="M14.7088 10.85L12.8289 9.33496L11.8891 10.0924L13.769 11.6074L14.7088 10.85Z" fill="#28A745"/>
<path d="M9.06968 7.82092L10.949 9.33545L11.8888 8.57806L10.0095 7.06353L9.06968 7.82092Z" fill="#28A745"/>
<path d="M17.528 13.1217L15.6487 11.6072L14.7089 12.3646L16.5882 13.8791L17.528 13.1217Z" fill="#28A745"/>
<path d="M19.7219 14.8895L18.4685 13.8794L17.5287 14.6368L18.7821 15.6469L19.7219 14.8895Z" fill="#28A745"/>
<path d="M3.10034 20.5503C3.10034 23.7169 5.39924 26.4551 8.71268 27.7243C8.48806 28.4266 7.70301 28.929 6.79346 28.929C6.61049 28.929 6.42884 28.9086 6.2534 28.869L5.89277 29.8998C6.18518 29.9666 6.48865 30.0001 6.79346 30.0001C8.25547 30.0001 9.53273 29.2246 9.95937 28.1203C10.8769 28.3531 11.8524 28.4788 12.8639 28.4788H22.1335C23.1179 28.4788 24.0682 28.3588 24.9653 28.1374C25.3986 29.2325 26.6697 30.0001 28.1241 30.0001C28.4289 30.0001 28.7324 29.9662 29.0248 29.8998L28.6642 28.869C28.4888 28.9086 28.3071 28.929 28.1241 28.929C27.2261 28.929 26.4499 28.4391 26.2138 27.7504C29.5649 26.4933 31.897 23.7394 31.897 20.5503V19.9102H3.10034V20.5503Z" fill="#28A745"/>
</svg>
