<svg width="35" height="31" viewBox="0 0 35 31" fill="none" xmlns="http://www.w3.org/2000/svg">
<path d="M31.25 13.153C30.462 12.7665 29.6106 12.5674 28.75 12.5682H6.25C5.38946 12.5673 4.53813 12.7661 3.75 13.1521C2.6361 13.6963 1.68823 14.5912 1.02226 15.7275C0.356291 16.8638 0.00106441 18.1923 0 19.5505V29.3258C0 29.6961 0.131696 30.0513 0.366116 30.3132C0.600537 30.5751 0.918479 30.7222 1.25 30.7222C1.58152 30.7222 1.89946 30.5751 2.13388 30.3132C2.3683 30.0513 2.5 29.6961 2.5 29.3258V28.6275C2.50203 28.443 2.56853 28.2668 2.6853 28.1363C2.80207 28.0058 2.95987 27.9316 3.125 27.9293H31.875C32.0401 27.9316 32.1979 28.0058 32.3147 28.1363C32.4315 28.2668 32.498 28.443 32.5 28.6275V29.3258C32.5 29.6961 32.6317 30.0513 32.8661 30.3132C33.1005 30.5751 33.4185 30.7222 33.75 30.7222C34.0815 30.7222 34.3995 30.5751 34.6339 30.3132C34.8683 30.0513 35 29.6961 35 29.3258V19.5505C34.9988 18.1924 34.6435 16.8642 33.9775 15.728C33.3116 14.5919 32.3638 13.6971 31.25 13.153ZM26.875 0H8.125C6.96468 0 5.85188 0.514945 5.03141 1.43155C4.21094 2.34816 3.75 3.59135 3.75 4.88763V11.1717C3.75004 11.2258 3.76132 11.2792 3.78298 11.3276C3.80463 11.376 3.83605 11.4181 3.87476 11.4506C3.91348 11.4831 3.95842 11.5051 4.00605 11.5148C4.05368 11.5246 4.10269 11.5219 4.14922 11.5069C4.83161 11.2839 5.53902 11.171 6.25 11.1717H6.58047C6.6576 11.1723 6.73219 11.1409 6.78988 11.0837C6.84758 11.0265 6.88429 10.9475 6.89297 10.8619C6.96115 10.1795 7.25192 9.54913 7.70976 9.0911C8.1676 8.63306 8.76042 8.37948 9.375 8.37879H13.75C14.365 8.37884 14.9584 8.63213 15.4167 9.09022C15.875 9.54832 16.1662 10.1791 16.2344 10.8619C16.2431 10.9475 16.2798 11.0265 16.3375 11.0837C16.3952 11.1409 16.4697 11.1723 16.5469 11.1717H18.4578C18.5349 11.1723 18.6095 11.1409 18.6672 11.0837C18.7249 11.0265 18.7616 10.9475 18.7703 10.8619C18.8384 10.18 19.1289 9.54994 19.5862 9.09197C20.0436 8.634 20.6358 8.38013 21.25 8.37879H25.625C26.24 8.37884 26.8334 8.63213 27.2917 9.09022C27.75 9.54832 28.0411 10.1791 28.1094 10.8619C28.118 10.9475 28.1548 11.0265 28.2125 11.0837C28.2702 11.1409 28.3447 11.1723 28.4219 11.1717H28.75C29.461 11.1713 30.1684 11.2845 30.8508 11.5077C30.8974 11.5228 30.9464 11.5255 30.9941 11.5157C31.0418 11.5059 31.0868 11.4838 31.1255 11.4512C31.1643 11.4186 31.1957 11.3763 31.2173 11.3278C31.2389 11.2793 31.2501 11.2259 31.25 11.1717V4.88763C31.25 3.59135 30.7891 2.34816 29.9686 1.43155C29.1481 0.514945 28.0353 0 26.875 0Z" fill="#28A745"/>
</svg>
