<svg width="20" height="20" viewBox="0 0 20 20" fill="none" xmlns="http://www.w3.org/2000/svg">
<path fill-rule="evenodd" clip-rule="evenodd" d="M10 20C15.5228 20 20 15.5228 20 10C20 4.47715 15.5228 0 10 0C4.47715 0 0 4.47715 0 10C0 15.5228 4.47715 20 10 20ZM14.7348 7.67829C15.1094 7.27246 15.0841 6.6398 14.6783 6.2652C14.2725 5.8906 13.6398 5.9159 13.2652 6.32172L8.46154 11.5257L6.73481 9.65506C6.3602 9.24924 5.72755 9.22393 5.32172 9.59854C4.9159 9.97314 4.8906 10.6058 5.2652 11.0116L7.72674 13.6783C7.91605 13.8834 8.18245 14 8.46154 14C8.74064 14 9.00704 13.8834 9.19635 13.6783L14.7348 7.67829Z" fill="#28A745"/>
</svg>
