<svg width="35" height="35" viewBox="0 0 35 35" fill="none" xmlns="http://www.w3.org/2000/svg">
<path fill-rule="evenodd" clip-rule="evenodd" d="M19.4058 3.26831C18.1579 2.93042 16.8425 2.93042 15.5945 3.26831C14.1751 3.65262 12.9297 4.62225 11.1229 6.029L6.92791 9.29184C5.75492 10.2035 4.94346 10.8342 4.3461 11.6419C3.81869 12.355 3.4258 13.1583 3.18673 14.0124C2.91595 14.9798 2.91629 16.0075 2.91679 17.4931L2.91683 21.354C2.91682 22.9345 2.91681 24.2093 3.00115 25.2416C3.08799 26.3045 3.27147 27.2381 3.71158 28.1019C4.41065 29.4739 5.52614 30.5894 6.89815 31.2885C7.76191 31.7286 8.69552 31.912 9.75842 31.9989C10.7907 32.0832 12.0655 32.0832 13.6459 32.0832H21.3543C22.9347 32.0832 24.2096 32.0832 25.2419 31.9989C26.3048 31.912 27.2384 31.7286 28.1022 31.2885C29.4742 30.5894 30.5897 29.4739 31.2888 28.1019C31.7289 27.2381 31.9123 26.3045 31.9992 25.2416C32.0835 24.2093 32.0835 22.9346 32.0835 21.3541L32.0835 17.4931C32.084 16.0075 32.0844 14.9798 31.8136 14.0124C31.5745 13.1583 31.1816 12.355 30.6542 11.6419C30.0569 10.8342 29.2454 10.2035 28.0725 9.29186L23.8775 6.02901C22.0706 4.62226 20.8252 3.65262 19.4058 3.26831ZM18.9584 24.7916C18.9584 25.597 18.3055 26.25 17.5001 26.25C16.6947 26.25 16.0417 25.597 16.0417 24.7916C16.0417 23.9862 16.6947 23.3333 17.5001 23.3333C18.3055 23.3333 18.9584 23.9862 18.9584 24.7916Z" fill="#28A745"/>
</svg>
