<?xml version="1.0" encoding="UTF-8"?>
<!DOCTYPE svg PUBLIC "-//W3C//DTD SVG 1.1//EN" "http://www.w3.org/Graphics/SVG/1.1/DTD/svg11.dtd">
<svg xmlns="http://www.w3.org/2000/svg" version="1.1" width="722px" height="212px" style="shape-rendering:geometricPrecision; text-rendering:geometricPrecision; image-rendering:optimizeQuality; fill-rule:evenodd; clip-rule:evenodd" xmlns:xlink="http://www.w3.org/1999/xlink">
<g><path style="opacity:0.896" fill="#3cc193" d="M 191.5,-0.5 C 194.833,-0.5 198.167,-0.5 201.5,-0.5C 206.323,11.8429 202.49,15.8429 190,11.5C 188.994,7.19846 189.494,3.19846 191.5,-0.5 Z"/></g>
<g><path style="opacity:0.909" fill="#3cc193" d="M 225.5,-0.5 C 229.833,-0.5 234.167,-0.5 238.5,-0.5C 243.323,14.509 238.49,18.8423 224,12.5C 223.151,7.97351 223.651,3.64017 225.5,-0.5 Z"/></g>
<g><path style="opacity:0.869" fill="#3cc193" d="M 160.5,1.5 C 162.582,1.47199 164.416,2.13865 166,3.5C 168.01,12.4908 164.677,15.4908 156,12.5C 153.194,6.80025 154.694,3.13358 160.5,1.5 Z"/></g>
<g><path style="opacity:0.9" fill="#3cc193" d="M 263.5,5.5 C 277.009,9.0892 279.009,15.9225 269.5,26C 267.5,26.6667 265.5,26.6667 263.5,26C 253.013,19.4431 253.013,12.6098 263.5,5.5 Z"/></g>
<g><path style="opacity:0.915" fill="#3cc193" d="M 280.5,36.5 C 283.518,36.3354 286.518,36.502 289.5,37C 290,37.5 290.5,38 291,38.5C 292.435,43.6997 292.602,48.8664 291.5,54C 276.415,60.3721 270.582,55.5387 274,39.5C 276.045,38.0735 278.212,37.0735 280.5,36.5 Z"/></g>
<g><path style="opacity:0.917" fill="#3cc193" d="M 85.5,39.5 C 88.3646,39.0548 90.8646,39.7215 93,41.5C 94.6085,47.4208 95.2752,53.4208 95,59.5C 93.1741,61.0738 91.0075,61.9071 88.5,62C 84.4834,62.6706 80.4834,63.0039 76.5,63C 75.5838,62.6258 74.7504,62.1258 74,61.5C 72.6712,55.8719 72.0045,50.2052 72,44.5C 72.3742,43.5838 72.8742,42.7504 73.5,42C 77.6653,41.2946 81.6653,40.4613 85.5,39.5 Z"/></g>
<g><path style="opacity:0.923" fill="#3cc193" d="M 112.5,47.5 C 114.857,47.3367 117.19,47.5034 119.5,48C 123.095,51.0498 126.595,54.2164 130,57.5C 130.667,59.1667 130.667,60.8333 130,62.5C 126.833,66.3333 123.667,70.1667 120.5,74C 118.029,74.7063 115.695,74.373 113.5,73C 110.051,70.5184 106.884,67.685 104,64.5C 103.333,62.5 103.333,60.5 104,58.5C 107.049,54.9574 109.882,51.2907 112.5,47.5 Z"/></g>
<g><path style="opacity:0.916" fill="#3cc193" d="M 49.5,56.5 C 51.5273,56.3379 53.5273,56.5045 55.5,57C 59.6892,59.8297 63.5226,62.9963 67,66.5C 67.5205,68.2889 67.1871,69.9556 66,71.5C 63.6227,75.088 61.1227,78.588 58.5,82C 56.5,82.6667 54.5,82.6667 52.5,82C 49.2641,79.1319 45.7641,76.6319 42,74.5C 41.3333,72.1667 41.3333,69.8333 42,67.5C 44.51,63.8045 47.01,60.1379 49.5,56.5 Z"/></g>
<g><path style="opacity:0.912" fill="#3cc193" d="M 269.5,68.5 C 275.482,69.0752 280.649,71.4085 285,75.5C 284.778,81.1354 282.945,86.3021 279.5,91C 273.458,91.076 267.958,89.2426 263,85.5C 262.925,78.9815 265.092,73.3148 269.5,68.5 Z"/></g>
<g><path style="opacity:0.946" fill="#f1f2f1" d="M 332.5,69.5 C 347.5,69.5 362.5,69.5 377.5,69.5C 377.5,73.5 377.5,77.5 377.5,81.5C 367.5,81.5 357.5,81.5 347.5,81.5C 347.5,87.5 347.5,93.5 347.5,99.5C 355.167,99.5 362.833,99.5 370.5,99.5C 370.5,103.167 370.5,106.833 370.5,110.5C 362.833,110.5 355.167,110.5 347.5,110.5C 347.5,120.833 347.5,131.167 347.5,141.5C 342.5,141.5 337.5,141.5 332.5,141.5C 332.5,117.5 332.5,93.5 332.5,69.5 Z"/></g>
<g><path style="opacity:0.953" fill="#f1f2f1" d="M 401.5,69.5 C 406.5,69.5 411.5,69.5 416.5,69.5C 416.5,93.5 416.5,117.5 416.5,141.5C 411.5,141.5 406.5,141.5 401.5,141.5C 401.5,117.5 401.5,93.5 401.5,69.5 Z"/></g>
<g><path style="opacity:0.946" fill="#f1f2f1" d="M 447.5,69.5 C 459.171,69.3335 470.838,69.5001 482.5,70C 497.924,73.4177 503.091,82.5844 498,97.5C 495.408,100.762 492.241,103.262 488.5,105C 501.416,110.401 504.916,119.567 499,132.5C 496.292,136.104 492.792,138.604 488.5,140C 474.885,141.406 461.218,141.906 447.5,141.5C 447.5,117.5 447.5,93.5 447.5,69.5 Z M 462.5,81.5 C 467.844,81.334 473.177,81.5006 478.5,82C 484.544,84.9318 486.044,89.4318 483,95.5C 482.097,96.7014 480.931,97.5348 479.5,98C 473.843,98.4994 468.176,98.6661 462.5,98.5C 462.5,92.8333 462.5,87.1667 462.5,81.5 Z M 462.5,110.5 C 468.925,110.13 475.258,110.63 481.5,112C 488.152,117.381 488.152,122.715 481.5,128C 475.258,129.37 468.925,129.87 462.5,129.5C 462.5,123.167 462.5,116.833 462.5,110.5 Z"/></g>
<g><path style="opacity:0.921" fill="#f1f2f1" d="M 528.5,69.5 C 541.228,69.08 553.894,69.58 566.5,71C 579.7,76.2374 584.2,85.7374 580,99.5C 577.195,106.002 572.362,110.336 565.5,112.5C 571.167,121.833 576.833,131.167 582.5,140.5C 576.5,141.833 570.5,141.833 564.5,140.5C 559.082,131.999 553.915,123.332 549,114.5C 547.644,113.62 546.144,113.286 544.5,113.5C 544.5,122.833 544.5,132.167 544.5,141.5C 539.167,141.5 533.833,141.5 528.5,141.5C 528.5,117.5 528.5,93.5 528.5,69.5 Z M 544.5,81.5 C 549.511,81.3341 554.511,81.5007 559.5,82C 565.169,84.8151 567.002,89.3151 565,95.5C 563.52,98.6626 561.02,100.496 557.5,101C 553.179,101.499 548.846,101.666 544.5,101.5C 544.5,94.8333 544.5,88.1667 544.5,81.5 Z"/></g>
<g><path style="opacity:0.94" fill="#f1f2f1" d="M 609.5,69.5 C 623.5,69.5 637.5,69.5 651.5,69.5C 651.5,73.5 651.5,77.5 651.5,81.5C 642.5,81.5 633.5,81.5 624.5,81.5C 624.5,87.1667 624.5,92.8333 624.5,98.5C 632.5,98.5 640.5,98.5 648.5,98.5C 648.5,102.5 648.5,106.5 648.5,110.5C 640.5,110.5 632.5,110.5 624.5,110.5C 624.5,116.833 624.5,123.167 624.5,129.5C 633.5,129.5 642.5,129.5 651.5,129.5C 651.5,133.5 651.5,137.5 651.5,141.5C 637.5,141.5 623.5,141.5 609.5,141.5C 609.5,117.5 609.5,93.5 609.5,69.5 Z"/></g>
<g><path style="opacity:0.923" fill="#f1f2f1" d="M 721.5,69.5 C 721.5,73.5 721.5,77.5 721.5,81.5C 712.833,81.5 704.167,81.5 695.5,81.5C 695.5,87.1667 695.5,92.8333 695.5,98.5C 703.167,98.5 710.833,98.5 718.5,98.5C 718.5,102.5 718.5,106.5 718.5,110.5C 710.833,110.5 703.167,110.5 695.5,110.5C 695.5,116.833 695.5,123.167 695.5,129.5C 704.167,129.5 712.833,129.5 721.5,129.5C 721.5,133.5 721.5,137.5 721.5,141.5C 707.5,141.5 693.5,141.5 679.5,141.5C 679.5,117.5 679.5,93.5 679.5,69.5C 693.5,69.5 707.5,69.5 721.5,69.5 Z"/></g>
<g><path style="opacity:0.917" fill="#3cc193" d="M 136.5,76.5 C 138.792,76.2436 140.959,76.5769 143,77.5C 145.912,82.1576 148.412,86.991 150.5,92C 150.507,93.8122 149.84,95.3122 148.5,96.5C 144.176,99.2449 139.676,101.578 135,103.5C 133.188,103.507 131.688,102.84 130.5,101.5C 127.613,97.0598 125.28,92.3931 123.5,87.5C 123.39,85.626 124.056,84.126 125.5,83C 129.56,81.3109 133.227,79.1442 136.5,76.5 Z"/></g>
<g><path style="opacity:0.92" fill="#3cc193" d="M 31.5,86.5 C 34.0163,86.7553 36.3496,87.5886 38.5,89C 41.8222,90.5722 44.6555,92.7388 47,95.5C 46.0395,101.259 43.5395,106.425 39.5,111C 37.5,111.667 35.5,111.667 33.5,111C 29.9162,108.959 26.4162,106.792 23,104.5C 22.3333,102.5 22.3333,100.5 23,98.5C 25.1309,93.868 27.9642,89.868 31.5,86.5 Z"/></g>
<g><path style="opacity:0.915" fill="#3cc193" d="M 252.5,98.5 C 258.651,99.6576 264.151,102.324 269,106.5C 269.667,108.167 269.667,109.833 269,111.5C 266.873,115.589 264.373,119.423 261.5,123C 259.5,123.667 257.5,123.667 255.5,123C 252,120.833 248.5,118.667 245,116.5C 244.333,114.5 244.333,112.5 245,110.5C 247.261,106.304 249.761,102.304 252.5,98.5 Z"/></g>
<g><path style="opacity:0.923" fill="#3cc193" d="M 153.5,107.5 C 156.119,107.232 158.619,107.565 161,108.5C 164.03,113.226 166.53,118.226 168.5,123.5C 168.471,125.029 167.804,126.196 166.5,127C 161.955,129.772 157.289,132.272 152.5,134.5C 149.968,134.136 148.135,132.803 147,130.5C 144.865,126.568 143.032,122.568 141.5,118.5C 141.39,116.626 142.056,115.126 143.5,114C 147.069,112.058 150.402,109.892 153.5,107.5 Z"/></g>
<g><path style="opacity:0.907" fill="#3cc193" d="M 14.5,118.5 C 19.785,119.892 24.6184,122.226 29,125.5C 28.8223,130.887 27.1556,135.887 24,140.5C 22.8061,141.43 21.4728,142.097 20,142.5C 15.2157,140.913 10.8823,138.58 7,135.5C 6.78757,128.595 9.28757,122.928 14.5,118.5 Z"/></g>
<g><path style="opacity:0.915" fill="#3cc193" d="M 232.5,128.5 C 239.315,128.821 245.149,131.488 250,136.5C 250.667,138.5 250.667,140.5 250,142.5C 247.752,145.328 245.752,148.328 244,151.5C 242.649,153.01 240.982,154.01 239,154.5C 234.075,151.91 229.408,148.91 225,145.5C 224.333,143.833 224.333,142.167 225,140.5C 227.751,136.598 230.251,132.598 232.5,128.5 Z"/></g>
<g><path style="opacity:0.92" fill="#3cc193" d="M 170.5,136.5 C 172.857,136.337 175.19,136.503 177.5,137C 181.095,140.05 184.595,143.216 188,146.5C 188.667,148.167 188.667,149.833 188,151.5C 184.833,155.333 181.667,159.167 178.5,163C 176.029,163.706 173.695,163.373 171.5,162C 168.051,159.518 164.884,156.685 162,153.5C 161.333,151.5 161.333,149.5 162,147.5C 165.049,143.957 167.882,140.291 170.5,136.5 Z"/></g>
<g><path style="opacity:0.928" fill="#3cc193" d="M 207.5,147.5 C 215.633,145.141 219.466,148.141 219,156.5C 219.667,160.167 219.667,163.833 219,167.5C 212.779,170.128 206.279,170.961 199.5,170C 196.992,163.763 196.158,157.263 197,150.5C 200.466,149.059 203.966,148.059 207.5,147.5 Z"/></g>
<g><path style="opacity:0.915" fill="#3cc193" d="M -0.5,168.5 C -0.5,164.833 -0.5,161.167 -0.5,157.5C 15.4201,149.917 21.4201,154.75 17.5,172C 13.592,173.157 9.592,173.99 5.5,174.5C 1.7448,174.079 -0.255196,172.079 -0.5,168.5 Z"/></g>
<g><path style="opacity:0.903" fill="#3cc193" d="M 24.5,183.5 C 30.0495,185.056 34.0495,188.389 36.5,193.5C 30.8168,207.502 23.8168,208.168 15.5,195.5C 17.0765,190.31 20.0765,186.31 24.5,183.5 Z"/></g>
<g><path style="opacity:0.901" fill="#3cc193" d="M 65.5,211.5 C 61.8333,211.5 58.1667,211.5 54.5,211.5C 53.5313,210.691 52.6979,209.691 52,208.5C 50.0459,195.632 55.0459,191.965 67,197.5C 68.0344,202.457 67.5344,207.124 65.5,211.5 Z"/></g>
<g><path style="opacity:0.854" fill="#3cc193" d="M 128.5,196.5 C 136.036,195.92 138.536,199.253 136,206.5C 128.105,210.721 124.439,208.388 125,199.5C 126.145,198.364 127.312,197.364 128.5,196.5 Z"/></g>
<g><path style="opacity:0.889" fill="#3cc193" d="M 99.5,211.5 C 96.5,211.5 93.5,211.5 90.5,211.5C 85.4053,198.762 89.2386,194.762 102,199.5C 102.667,202.5 102.667,205.5 102,208.5C 101.302,209.691 100.469,210.691 99.5,211.5 Z"/></g>
</svg>
