<svg width="572" height="382" viewBox="0 0 572 382" fill="none" xmlns="http://www.w3.org/2000/svg">
<g clip-path="url(#clip0_204_33550)">
<path d="M467.743 85.0407V313.087H103.799V85.0407C103.799 84.5135 103.799 83.9864 103.875 83.5127C104.253 79.1549 106.249 75.0976 109.469 72.1426C112.688 69.1875 116.897 67.5497 121.264 67.5527H450.278C452.572 67.5497 454.844 68 456.964 68.8777C459.084 69.7553 461.01 71.0433 462.632 72.6677C464.254 74.2921 465.541 76.2211 466.418 78.3442C467.295 80.4674 467.745 82.7429 467.743 85.0407Z" fill="#DCF0FF"/>
<path opacity="0.5" d="M264.973 224.241C245.098 224.845 225.261 224.662 205.386 225.64C185.93 226.595 166.551 228.535 147.423 232.401C132.505 235.374 117.897 239.741 103.791 245.442V281.045C115.257 277.972 126.935 275.756 138.729 274.413C168.984 270.975 199.185 273.879 229.28 277.469C260.069 281.121 290.667 284.414 321.723 282.619C351.284 280.954 380.625 276.521 409.361 269.379C411.382 268.874 413.388 268.34 415.394 267.805C389.112 276.293 359.772 279.272 334.048 282.68C302.077 286.859 270.121 291.626 238.463 297.815C217.947 301.818 197.507 306.616 177.617 313.095H264.05C286.762 309.061 309.612 305.684 332.454 302.674C364.295 298.479 396.998 295.935 427.329 284.643C441.698 279.295 455.655 271.923 467.751 262.35V224.761C450.461 235.281 431.547 242.746 411.954 248.185C384.613 255.764 356.18 260.31 327.901 262.38C296.86 264.672 266.262 262.029 235.443 258.369C205.233 254.771 174.91 251.249 144.472 254.015C142.405 254.206 140.33 254.419 138.264 254.656C177.602 244.335 220.586 242.952 259.528 238.987C293.184 235.556 326.551 232.271 359.513 224.264C390.897 216.624 421.617 205.684 450.27 190.732C456.189 187.646 461.995 184.371 467.69 180.907V165.864C435.36 185.789 399.873 200.435 362.732 209.924C330.883 218.076 297.897 223.233 264.973 224.241ZM369.435 110.78C331.111 105.264 292.803 99.8011 254.113 97.4175C217.634 95.1255 179.081 93.819 143.839 105.157C129.714 109.823 116.255 116.307 103.799 124.448V141.622C115.744 134.632 128.465 129.068 141.703 125.044C176.107 114.73 212.387 114.882 247.92 116.808C285.893 118.855 323.5 123.936 361.107 129.376C393.62 134.082 426.407 138.643 459.316 138.643C454.343 139.85 449.401 140.935 444.337 141.89C410.528 148.231 376.46 146.428 342.315 144.182C307.232 141.89 271.7 139.835 236.67 144.342C204.76 148.445 173.369 155.145 143.755 168.026C129.808 173.984 116.434 181.206 103.799 189.602V198.479C115.616 190.66 128.227 184.117 141.421 178.959C170.707 167.583 201.214 162.801 232.453 161.112C267.368 159.217 302.786 161.242 337.632 163.572C372.478 165.902 406.684 167.866 441.248 162.419C450.156 161.018 458.988 159.2 467.743 156.964V118.764C434.819 119.581 401.971 115.448 369.435 110.78ZM361.862 70.2878L348.805 67.5833H121.264C116.903 67.5794 112.699 69.2119 109.481 72.159C106.262 75.1061 104.262 79.154 103.875 83.505C116.729 79.3594 129.866 76.1499 143.183 73.9015C175.146 68.3396 208.063 67.461 240.369 70.0204C317.162 76.1324 391.088 100.825 467.743 108.22V88.3946C432.081 85.1018 396.853 77.5305 361.862 70.2878Z" fill="#F0F9FF"/>
<path d="M470.916 319.444H100.626V88.2266C100.64 82.7535 102.819 77.5091 106.686 73.6426C110.553 69.776 115.792 67.6027 121.256 67.5986H450.286C455.756 67.6027 461.001 69.7813 464.869 73.6561C468.737 77.5309 470.912 82.7851 470.916 88.2648V319.444ZM106.971 313.087H464.571V88.2266C464.566 84.4327 463.06 80.7953 460.382 78.1126C457.704 75.4299 454.073 73.921 450.286 73.9169H121.264C117.476 73.921 113.845 75.4299 111.167 78.1126C108.489 80.7953 106.983 84.4327 106.979 88.2266L106.971 313.087Z" fill="white"/>
<path d="M497.892 326.404H73.6506C70.9736 326.404 68.5865 325.388 67.6789 323.867L64.3232 318.252C62.7978 315.753 65.8943 313.118 70.2949 313.118H501.247C505.648 313.118 508.714 315.753 507.219 318.252L503.863 323.867C502.956 325.388 500.569 326.404 497.892 326.404Z" fill="white"/>
<path d="M434.323 176.644V313.087H373.165V132.913L434.323 176.644Z" fill="#E3E3E3"/>
<path d="M379.099 140.072H373.165V313.087H379.099V140.072Z" fill="#D9D9D9"/>
<path d="M434.323 176.644V183.803L373.165 140.072V132.913L434.323 176.644Z" fill="#D9D9D9"/>
<path d="M434.323 229.933H373.165V234.395H434.323V229.933Z" fill="#D9D9D9"/>
<path d="M434.323 294.843H379.099V313.079H434.323V294.843Z" fill="#D9D9D9"/>
<path d="M373.165 153.159H401.475" stroke="#FAFAFA" stroke-width="0.26" stroke-miterlimit="10"/>
<path d="M373.165 169.058H423.715" stroke="#FAFAFA" stroke-width="0.26" stroke-miterlimit="10"/>
<path d="M373.165 184.957H434.323" stroke="#FAFAFA" stroke-width="0.26" stroke-miterlimit="10"/>
<path d="M373.165 200.855H434.323" stroke="#FAFAFA" stroke-width="0.26" stroke-miterlimit="10"/>
<path d="M373.165 216.754H434.323" stroke="#FAFAFA" stroke-width="0.26" stroke-miterlimit="10"/>
<path d="M373.165 232.653H434.323" stroke="#FAFAFA" stroke-width="0.26" stroke-miterlimit="10"/>
<path d="M373.165 248.552H434.323" stroke="#FAFAFA" stroke-width="0.26" stroke-miterlimit="10"/>
<path d="M373.165 264.458H434.323" stroke="#FAFAFA" stroke-width="0.26" stroke-miterlimit="10"/>
<path d="M373.165 280.357H434.323" stroke="#FAFAFA" stroke-width="0.26" stroke-miterlimit="10"/>
<path d="M444.39 176.033L440.707 181.213L434.323 176.644L373.165 132.913V125.105L425.263 162.35L434.323 168.829L444.39 176.033Z" fill="#C7C7C7"/>
<path d="M436.39 225.479H373.165V229.941H436.39V225.479Z" fill="#C7C7C7"/>
<path d="M411.55 170.418H383.705V214.798H411.55V170.418Z" fill="#D9D9D9"/>
<path d="M411.55 170.418H386.084V212.415H411.55V170.418Z" fill="#CCCCCC"/>
<path d="M409.163 172.802H388.464V210.024H409.163V172.802Z" fill="#F5F5F5"/>
<path d="M400.003 170.418H397.624V212.415H400.003V170.418Z" fill="#CCCCCC"/>
<path d="M411.542 192.604V190.221H386.077V192.604H411.542Z" fill="#CCCCCC"/>
<path d="M411.55 244.35H383.705V288.731H411.55V244.35Z" fill="#D9D9D9"/>
<path d="M411.55 244.35H386.084V286.347H411.55V244.35Z" fill="#CCCCCC"/>
<path d="M409.163 246.734H388.464V283.956H409.163V246.734Z" fill="#F5F5F5"/>
<path d="M400.003 244.35H397.624V286.347H400.003V244.35Z" fill="#CCCCCC"/>
<path d="M411.542 266.537V264.153H386.077V266.537H411.542Z" fill="#CCCCCC"/>
<path d="M198.789 179.028H141.49V313.087H198.789V179.028Z" fill="#E3E3E3"/>
<path d="M141.49 187.172H198.789" stroke="#FAFAFA" stroke-width="0.26" stroke-miterlimit="10"/>
<path d="M141.49 203.071H198.789" stroke="#FAFAFA" stroke-width="0.26" stroke-miterlimit="10"/>
<path d="M141.49 218.97H198.789" stroke="#FAFAFA" stroke-width="0.26" stroke-miterlimit="10"/>
<path d="M141.49 234.869H198.789" stroke="#FAFAFA" stroke-width="0.26" stroke-miterlimit="10"/>
<path d="M141.49 266.667H198.789" stroke="#FAFAFA" stroke-width="0.26" stroke-miterlimit="10"/>
<path d="M141.49 282.565H198.789" stroke="#FAFAFA" stroke-width="0.26" stroke-miterlimit="10"/>
<path d="M141.49 298.464H198.789" stroke="#FAFAFA" stroke-width="0.26" stroke-miterlimit="10"/>
<path d="M198.789 250.569H141.49V256.169H198.789V250.569Z" fill="#D9D9D9"/>
<path d="M198.789 179.028H141.49V184.628H198.789V179.028Z" fill="#D9D9D9"/>
<path d="M198.796 179.028H193.969V313.087H198.796V179.028Z" fill="#D9D9D9"/>
<path d="M156.217 234.609H184.062V190.228H156.217V234.609Z" fill="#D9D9D9"/>
<path d="M156.217 232.225H181.682V190.228H156.217V232.225Z" fill="#CCCCCC"/>
<path d="M158.604 229.834H179.303V192.612H158.604V229.834Z" fill="#F5F5F5"/>
<path d="M167.764 232.225H170.143V190.228H167.764V232.225Z" fill="#CCCCCC"/>
<path d="M181.682 212.407V210.023H156.217V212.407H181.682Z" fill="#CCCCCC"/>
<path d="M156.217 306.15H184.062V261.769H156.217V306.15Z" fill="#D9D9D9"/>
<path d="M156.217 303.766H181.682V261.769H156.217V303.766Z" fill="#CCCCCC"/>
<path d="M158.604 301.383H179.303V264.16H158.604V301.383Z" fill="#F5F5F5"/>
<path d="M167.764 303.766H170.143V261.769H167.764V303.766Z" fill="#CCCCCC"/>
<path d="M181.682 283.956V281.572H156.217V283.956H181.682Z" fill="#CCCCCC"/>
<path d="M198.789 173.428H135.381V179.028H198.789V173.428Z" fill="#C7C7C7"/>
<path d="M198.789 173.428H135.381L151.252 130.415H198.789V173.428Z" fill="#D6D6D6"/>
<path d="M198.789 244.977H135.381V250.577H198.789V244.977Z" fill="#C7C7C7"/>
<path d="M373.188 108.098V313.087H198.812V108.098L286 36.5496L373.188 108.098Z" fill="#B3D2FD"/>
<path d="M373.188 206.67H198.812" stroke="white" stroke-width="0.26" stroke-miterlimit="10"/>
<path d="M373.188 246.42H198.812" stroke="white" stroke-width="0.26" stroke-miterlimit="10"/>
<path d="M373.188 270.265H198.812" stroke="white" stroke-width="0.26" stroke-miterlimit="10"/>
<path d="M373.188 294.117H198.812" stroke="white" stroke-width="0.26" stroke-miterlimit="10"/>
<path d="M373.188 190.771H198.812" stroke="white" stroke-width="0.26" stroke-miterlimit="10"/>
<path d="M373.188 174.872H198.812" stroke="white" stroke-width="0.26" stroke-miterlimit="10"/>
<path d="M373.188 158.973H198.812" stroke="white" stroke-width="0.26" stroke-miterlimit="10"/>
<path d="M373.188 143.074H198.812" stroke="white" stroke-width="0.26" stroke-miterlimit="10"/>
<path d="M373.188 127.175H198.812" stroke="white" stroke-width="0.26" stroke-miterlimit="10"/>
<path d="M373.188 111.269H198.812" stroke="white" stroke-width="0.26" stroke-miterlimit="10"/>
<path d="M352.07 95.3701H219.93" stroke="white" stroke-width="0.26" stroke-miterlimit="10"/>
<path d="M332.042 79.4712H239.958" stroke="white" stroke-width="0.26" stroke-miterlimit="10"/>
<path d="M312.861 63.5723H259.139" stroke="white" stroke-width="0.26" stroke-miterlimit="10"/>
<path d="M382.37 120.773L286 41.6838L189.629 120.773L184.596 114.623L286 31.408L387.396 114.623L382.37 120.773Z" fill="url(#paint0_linear_204_33550)"/>
<path d="M375.552 214.363H191.719V222.316H375.552V214.363Z" fill="url(#paint1_linear_204_33550)"/>
<path d="M198.812 113.24L286 41.6838L382.37 120.773L387.396 114.623" stroke="#28192D" stroke-width="0.52" stroke-miterlimit="10"/>
<path d="M375.56 214.363V222.316H191.719" stroke="#28192D" stroke-width="0.52" stroke-miterlimit="10"/>
<path opacity="0.3" d="M372.036 112.293L286 41.6838L198.812 113.24V123.508L286 51.9673L365.248 116.999V222.316H198.812V230.262H365.248V313.087H373.188V230.262V222.316V123.508V113.24V112.293H372.036Z" fill="url(#paint2_linear_204_33550)"/>
<path opacity="0.3" d="M308.628 191.008H263.379V198.961H308.628V191.008Z" fill="url(#paint3_linear_204_33550)"/>
<path d="M307.286 126.434H264.714V191.137H307.286V126.434Z" fill="url(#paint4_linear_204_33550)"/>
<path d="M303.312 130.415H268.68V146.657H303.312V130.415Z" fill="#FFFAFA"/>
<path d="M303.312 150.63H268.68V187.165H303.312V150.63Z" fill="#FFFAFA"/>
<g opacity="0.07">
<path d="M303.312 130.415H268.68V139.506H303.312V130.415Z" fill="black"/>
<path d="M303.312 150.63H268.68V167.599H303.312V150.63Z" fill="black"/>
</g>
<path d="M307.286 126.434H264.714V191.137H307.286V126.434Z" stroke="#28192D" stroke-width="0.52" stroke-miterlimit="10"/>
<path d="M286 150.63V187.165" stroke="#28192D" stroke-width="0.52" stroke-miterlimit="10"/>
<path d="M303.32 168.897H268.68" stroke="#28192D" stroke-width="0.52" stroke-miterlimit="10"/>
<path d="M286 130.285V146.657" stroke="#28192D" stroke-width="0.52" stroke-miterlimit="10"/>
<path opacity="0.3" d="M359.132 191.008H313.883V198.961H359.132V191.008Z" fill="url(#paint5_linear_204_33550)"/>
<path d="M357.79 126.434H315.218V191.137H357.79V126.434Z" fill="url(#paint6_linear_204_33550)"/>
<path d="M353.824 130.415H319.191V146.657H353.824V130.415Z" fill="#FFFAFA"/>
<path d="M353.824 150.63H319.191V187.165H353.824V150.63Z" fill="#FFFAFA"/>
<g opacity="0.07">
<path d="M353.824 130.415H319.191V139.506H353.824V130.415Z" fill="black"/>
<path d="M353.824 150.63H319.191V167.599H353.824V150.63Z" fill="black"/>
</g>
<path d="M336.504 150.63V187.165" stroke="#28192D" stroke-width="0.52" stroke-miterlimit="10"/>
<path d="M353.824 168.897H319.191" stroke="#28192D" stroke-width="0.52" stroke-miterlimit="10"/>
<path d="M336.504 130.285V146.657" stroke="#28192D" stroke-width="0.52" stroke-miterlimit="10"/>
<path d="M357.79 126.434H315.218V191.137H357.79V126.434Z" stroke="#28192D" stroke-width="0.52" stroke-miterlimit="10"/>
<path opacity="0.3" d="M359.132 302.307H313.883V310.26H359.132V302.307Z" fill="url(#paint7_linear_204_33550)"/>
<path d="M357.79 237.734H315.218V302.437H357.79V237.734Z" fill="url(#paint8_linear_204_33550)"/>
<path d="M353.824 241.707H319.191V257.949H353.824V241.707Z" fill="#FFFAFA"/>
<path d="M353.824 261.93H319.191V298.464H353.824V261.93Z" fill="#FFFAFA"/>
<g opacity="0.07">
<path d="M353.824 241.707H319.191V250.798H353.824V241.707Z" fill="black"/>
<path d="M353.824 261.93H319.191V278.898H353.824V261.93Z" fill="black"/>
</g>
<path d="M336.504 261.93V298.464" stroke="#28192D" stroke-width="0.52" stroke-miterlimit="10"/>
<path d="M353.824 280.197H319.191" stroke="#28192D" stroke-width="0.52" stroke-miterlimit="10"/>
<path d="M336.504 241.577V257.949" stroke="#28192D" stroke-width="0.52" stroke-miterlimit="10"/>
<path d="M357.79 237.734H315.218V302.437H357.79V237.734Z" stroke="#28192D" stroke-width="0.52" stroke-miterlimit="10"/>
<path opacity="0.3" d="M258.117 191.008H212.868V198.961H258.117V191.008Z" fill="url(#paint9_linear_204_33550)"/>
<path d="M256.782 126.434H214.21V191.137H256.782V126.434Z" fill="url(#paint10_linear_204_33550)"/>
<path d="M252.808 130.415H218.176V146.657H252.808V130.415Z" fill="#FFFAFA"/>
<path d="M252.808 150.63H218.176V187.165H252.808V150.63Z" fill="#FFFAFA"/>
<g opacity="0.07">
<path d="M252.808 130.415H218.176V139.506H252.808V130.415Z" fill="black"/>
<path d="M252.808 150.63H218.176V167.599H252.808V150.63Z" fill="black"/>
</g>
<path d="M256.782 126.434H214.21V191.137H256.782V126.434Z" stroke="#28192D" stroke-width="0.52" stroke-miterlimit="10"/>
<path d="M235.496 150.63V187.165" stroke="#28192D" stroke-width="0.52" stroke-miterlimit="10"/>
<path d="M252.809 168.897H217.261" stroke="#28192D" stroke-width="0.52" stroke-miterlimit="10"/>
<path d="M235.496 130.285V146.657" stroke="#28192D" stroke-width="0.52" stroke-miterlimit="10"/>
<path opacity="0.3" d="M258.117 302.307H212.868V310.26H258.117V302.307Z" fill="url(#paint11_linear_204_33550)"/>
<path d="M256.782 237.734H214.21V302.437H256.782V237.734Z" fill="url(#paint12_linear_204_33550)"/>
<path d="M252.808 241.707H218.176V257.949H252.808V241.707Z" fill="#FFFAFA"/>
<path d="M252.808 261.93H218.176V298.464H252.808V261.93Z" fill="#FFFAFA"/>
<g opacity="0.07">
<path d="M252.808 241.707H218.176V250.798H252.808V241.707Z" fill="black"/>
<path d="M252.808 261.93H218.176V278.898H252.808V261.93Z" fill="black"/>
</g>
<path d="M256.782 237.734H214.21V302.437H256.782V237.734Z" stroke="#28192D" stroke-width="0.52" stroke-miterlimit="10"/>
<path d="M235.496 261.93V298.464" stroke="#28192D" stroke-width="0.52" stroke-miterlimit="10"/>
<path d="M252.809 280.197H217.261" stroke="#28192D" stroke-width="0.52" stroke-miterlimit="10"/>
<path d="M235.496 241.577V257.949" stroke="#28192D" stroke-width="0.52" stroke-miterlimit="10"/>
<path d="M307.629 233.983H264.363V313.095H307.629V233.983Z" fill="url(#paint13_linear_204_33550)"/>
<g opacity="0.07">
<path d="M284.017 239.942H268.336V271.549H284.017V239.942Z" fill="black"/>
<path d="M303.663 239.942H287.983V271.549H303.663V239.942Z" fill="black"/>
<path d="M284.017 275.521H268.336V307.128H284.017V275.521Z" fill="black"/>
<path d="M303.663 275.521H287.983V307.128H303.663V275.521Z" fill="black"/>
</g>
<path d="M268.336 275.521H284.017V307.128" stroke="#28192D" stroke-width="0.52" stroke-miterlimit="10"/>
<path d="M287.983 307.128V275.521H303.663V307.128" stroke="#28192D" stroke-width="0.52" stroke-miterlimit="10"/>
<path d="M287.983 271.549V239.942H303.663" stroke="#28192D" stroke-width="0.52" stroke-miterlimit="10"/>
<path d="M268.336 239.942H284.017V271.549" stroke="#28192D" stroke-width="0.52" stroke-miterlimit="10"/>
<path d="M264.363 233.975H307.636V313.087" stroke="#28192D" stroke-width="0.52" stroke-miterlimit="10"/>
<path d="M286 69.1571C288.674 69.1561 291.322 69.6828 293.792 70.7071C296.263 71.7314 298.507 73.2333 300.398 75.1269C302.289 77.0205 303.79 79.2687 304.813 81.7432C305.836 84.2176 306.363 86.8698 306.363 89.5483H265.637C265.637 86.8698 266.164 84.2176 267.187 81.7432C268.21 79.2687 269.71 77.0205 271.601 75.1269C273.492 73.2333 275.737 71.7314 278.208 70.7071C280.678 69.6828 283.326 69.1561 286 69.1571ZM286 65.1843C279.551 65.1904 273.367 67.759 268.806 72.3266C264.245 76.8942 261.679 83.0877 261.671 89.5483V93.5211H310.329V89.5483C310.321 83.0877 307.755 76.8942 303.194 72.3266C298.633 67.759 292.449 65.1904 286 65.1843Z" fill="url(#paint14_linear_204_33550)"/>
<path d="M306.363 89.5485H265.637C265.637 84.1384 267.782 78.9498 271.601 75.1243C275.42 71.2988 280.599 69.1497 286 69.1497C291.401 69.1497 296.58 71.2988 300.399 75.1243C304.218 78.9498 306.363 84.1384 306.363 89.5485Z" fill="#FFFAFA"/>
<path d="M306.363 89.5485H265.637C265.637 84.1384 267.782 78.9498 271.601 75.1243C275.42 71.2988 280.599 69.1497 286 69.1497C291.401 69.1497 296.58 71.2988 300.399 75.1243C304.218 78.9498 306.363 84.1384 306.363 89.5485Z" stroke="#28192D" stroke-width="0.52" stroke-linecap="square" stroke-linejoin="bevel"/>
<path d="M286 69.1572V89.5484L300.391 75.1317" stroke="#28192D" stroke-width="0.52" stroke-linecap="square" stroke-linejoin="bevel"/>
<path d="M286 69.1572V89.5484L271.608 75.1317" stroke="#28192D" stroke-width="0.52" stroke-linecap="square" stroke-linejoin="bevel"/>
<path d="M461.055 306.906C459.88 305.608 456.776 305.951 454.038 307.67C456.669 303.499 456.601 299.572 453.512 298.227C451.903 297.532 449.592 297.524 447.06 298.411C444.336 299.388 441.911 301.054 440.02 303.247C441.881 297.502 438.175 293.261 431.921 293.659C425.667 294.056 417.179 298.93 412.336 304.836C412.542 302.865 410.658 302.154 408.217 302.544C405.777 302.934 402.879 304.507 400.591 306.494C398.502 308.346 396.791 310.585 395.549 313.087H459.057C461.337 310.879 462.222 308.205 461.055 306.906Z" fill="#0B8EA1"/>
<path d="M442.72 297.364C442.924 297.508 443.159 297.601 443.407 297.633C443.654 297.665 443.905 297.635 444.139 297.547C444.602 297.376 445.035 297.131 445.42 296.822C445.628 296.691 445.806 296.517 445.939 296.31C446.001 296.204 446.027 296.081 446.012 295.959C445.997 295.837 445.942 295.724 445.855 295.637C445.626 295.446 445.283 295.561 445.031 295.706C444.597 295.967 444.212 296.304 443.895 296.699C444.188 295.973 444.313 295.189 444.261 294.407C444.246 294.144 444.187 293.886 444.085 293.643C443.973 293.391 443.768 293.191 443.513 293.086C443.31 293.03 443.094 293.037 442.895 293.105C442.695 293.173 442.52 293.299 442.392 293.468C442.141 293.807 441.997 294.214 441.98 294.637C441.918 295.251 441.98 295.872 442.163 296.462C442.26 296.81 442.453 297.123 442.72 297.364Z" fill="#0B8EA1"/>
<path d="M412.717 299.411C414.242 299.824 415.645 298.159 416.126 296.867C416.347 296.279 416.378 295.492 415.851 295.164C415.619 295.061 415.361 295.029 415.111 295.071C414.86 295.113 414.627 295.228 414.44 295.4C414.059 295.693 413.75 296.07 413.538 296.502C413.327 296.934 413.218 297.41 413.22 297.891C413.094 296.734 412.612 295.644 411.84 294.774C411.592 294.473 411.279 294.233 410.925 294.071C410.751 293.986 410.561 293.942 410.368 293.942C410.175 293.942 409.984 293.986 409.811 294.071C409.539 294.304 409.347 294.617 409.263 294.966C409.18 295.314 409.209 295.68 409.346 296.012C409.579 296.816 410.01 297.548 410.599 298.142C411.188 298.736 411.916 299.172 412.717 299.411Z" fill="#0B8EA1"/>
<path d="M387.518 305.035C386.062 303.461 381.974 303.636 379.015 305.623C380.647 303.178 381.364 300.55 380.616 298.747C379.869 296.944 377.565 296.088 374.751 296.89C372.387 297.558 370.291 298.949 368.757 300.871C369.718 298.693 369.748 296.592 368.757 295.225C367.529 293.567 364.852 293.032 361.893 293.865C358.78 294.74 356.018 296.567 353.991 299.091C355.059 295.614 353.587 292.742 350.506 291.924C347.425 291.107 342.879 292.322 339.066 294.889C335.253 297.456 331.882 301.398 330.677 304.897C330.288 302.659 328.259 301.268 325.475 301.337C322.692 301.406 319.214 302.911 316.552 305.218C313.89 307.525 311.793 310.619 311.679 313.087H384.262C386.748 310.627 388.96 306.608 387.518 305.035Z" fill="#14BA8B"/>
<path d="M371.617 295.003C372.471 295.683 373.562 295.24 374.347 294.598C374.5 294.498 374.626 294.36 374.712 294.199C374.799 294.038 374.844 293.857 374.843 293.674C374.806 293.555 374.746 293.445 374.665 293.352C374.584 293.258 374.484 293.182 374.372 293.129C374.26 293.075 374.139 293.046 374.015 293.043C373.891 293.039 373.768 293.062 373.653 293.108C373.198 293.327 372.814 293.672 372.547 294.102C372.44 293.277 372.181 292.479 371.785 291.749C371.725 291.591 371.63 291.45 371.507 291.336C371.384 291.222 371.236 291.139 371.075 291.091C370.93 291.085 370.786 291.121 370.661 291.194C370.535 291.267 370.433 291.375 370.366 291.504C370.238 291.77 370.188 292.067 370.221 292.36C370.259 292.873 370.402 293.373 370.642 293.828C370.882 294.283 371.214 294.683 371.617 295.003Z" fill="#14BA8B"/>
<path d="M383.796 302.903C384.581 302.836 385.34 302.59 386.016 302.185C386.157 302.106 386.282 301.999 386.382 301.872C386.433 301.81 386.468 301.736 386.483 301.657C386.498 301.578 386.492 301.497 386.466 301.421C386.403 301.311 386.309 301.223 386.197 301.166C386.085 301.109 385.958 301.086 385.833 301.1C385.274 301.125 384.738 301.331 384.307 301.688C383.989 301.929 383.704 302.211 383.461 302.529C383.125 302.941 383.369 302.941 383.796 302.903Z" fill="#14BA8B"/>
<path d="M326.757 298.564C327.148 298.908 327.603 299.171 328.097 299.338C328.591 299.505 329.112 299.571 329.632 299.534C330.487 299.408 331.269 298.98 331.836 298.327C332.402 297.661 332.813 296.878 333.041 296.035C333.155 295.727 333.202 295.399 333.178 295.072C333.163 294.91 333.106 294.755 333.014 294.622C332.922 294.488 332.797 294.38 332.652 294.308C332.428 294.255 332.194 294.262 331.973 294.327C331.752 294.393 331.553 294.515 331.394 294.682C330.617 295.302 329.984 296.084 329.54 296.974C329.323 296.273 329.026 295.599 328.656 294.965C328.275 294.325 327.685 293.837 326.986 293.582C326.638 293.464 326.263 293.446 325.906 293.531C325.548 293.616 325.222 293.801 324.964 294.064C323.752 295.477 325.758 297.738 326.757 298.564Z" fill="#14BA8B"/>
<path d="M354.914 293.498C355.616 294.01 355.99 294.262 356.707 293.682C357.915 292.659 358.946 291.443 359.757 290.083C360.074 289.626 360.285 289.104 360.375 288.555C360.413 288.276 360.373 287.993 360.26 287.735C360.147 287.478 359.965 287.257 359.734 287.096C359.538 286.997 359.323 286.941 359.103 286.933C358.883 286.925 358.664 286.965 358.461 287.05C358.063 287.228 357.707 287.489 357.416 287.814C356.427 288.867 355.79 290.202 355.593 291.634C355.395 290.974 355.014 290.383 354.495 289.93C354.362 289.825 354.208 289.748 354.044 289.704C353.88 289.66 353.709 289.651 353.541 289.676C353.373 289.701 353.212 289.76 353.068 289.85C352.924 289.94 352.799 290.058 352.703 290.198C352.618 290.494 352.617 290.807 352.699 291.104C352.781 291.4 352.944 291.668 353.168 291.879C353.676 292.494 354.263 293.039 354.914 293.498Z" fill="#14BA8B"/>
<path d="M172.965 263.771C172.202 260.868 170.051 258.247 167.466 257.766C167.021 257.685 166.565 257.672 166.116 257.728C167.283 255.604 168.404 253.251 168.03 250.63C167.741 248.453 166.337 246.566 164.385 246.81C164.121 246.839 163.864 246.908 163.622 247.016C166.261 242.257 168.084 236.443 166.345 230.85C165.683 228.377 164.178 226.214 162.089 224.738C161.085 224.125 159.941 223.778 158.765 223.73C157.59 223.682 156.421 223.934 155.37 224.463C153.108 225.609 151.247 227.415 150.031 229.643C150.237 227.275 149.925 224.807 148.506 222.989C147.088 221.17 144.822 220.376 143.03 221.873C142.664 222.183 142.352 222.552 142.107 222.966C142.151 220.104 141.633 217.261 140.582 214.6C139.484 211.88 137.531 209.206 134.992 208.534C132.452 207.861 130.164 209.412 128.639 211.704C126.877 214.355 126.183 217.671 126.076 221.01C126.053 225.02 126.525 229.018 127.479 232.913C126.675 232.118 125.59 231.672 124.459 231.672C123.329 231.672 122.244 232.118 121.439 232.913C118.892 235.32 118.754 239.789 119.853 243.166C120.522 245.061 121.437 246.859 122.575 248.514C120.402 247.811 117.931 247.505 116.139 249.438C114.484 251.226 114.072 254.16 113.965 256.689C113.653 263.113 114.738 269.528 117.145 275.491C119.223 280.703 122.712 285.23 127.22 288.563C129.283 290.048 131.591 291.158 134.038 291.84C136.888 292.547 139.843 292.723 142.756 292.36H142.801C143.297 292.36 143.793 292.36 144.289 292.36C149.829 292.267 155.242 290.684 159.961 287.776C165.086 284.614 169.142 279.979 171.6 274.475C173.026 271.266 173.941 267.339 172.965 263.771Z" fill="#14BA8B"/>
<path d="M137.829 313.064H146.783L145.212 287.822L140.415 288.754L137.829 313.064Z" fill="#14BA8B"/>
<path d="M150.184 221.43C150.27 221.835 150.448 222.215 150.705 222.54C150.961 222.865 151.29 223.125 151.664 223.302C152.147 223.453 152.662 223.467 153.153 223.342C153.643 223.216 154.089 222.956 154.44 222.591C154.63 222.455 154.774 222.265 154.854 222.046C154.935 221.826 154.947 221.588 154.89 221.361C154.798 221.191 154.655 221.054 154.481 220.971C154.307 220.887 154.111 220.861 153.921 220.895C153.541 220.976 153.182 221.138 152.869 221.369C153.205 220.393 153.219 219.335 152.907 218.351C152.858 218.102 152.749 217.868 152.587 217.672C152.426 217.476 152.219 217.324 151.984 217.228C151.753 217.185 151.515 217.21 151.298 217.298C151.081 217.385 150.893 217.534 150.756 217.725C150.409 218.268 150.179 218.879 150.08 219.517C149.982 220.155 150.017 220.806 150.184 221.43Z" fill="#14BA8B"/>
<path d="M119.487 225.281C119.183 224.771 119.054 224.175 119.12 223.585C119.163 223.292 119.306 223.024 119.524 222.826C119.743 222.628 120.023 222.513 120.318 222.5C120.692 222.557 121.039 222.731 121.309 222.996C122.689 224.153 123.763 225.633 124.436 227.305C125.42 229.773 122.209 228.184 121.332 227.496C120.564 226.9 119.934 226.144 119.487 225.281Z" fill="#14BA8B"/>
<path d="M117.862 246.008C117.529 246.459 117.053 246.784 116.512 246.931C115.971 247.078 115.396 247.038 114.88 246.818C114.651 246.717 114.457 246.551 114.321 246.341C114.185 246.13 114.115 245.884 114.118 245.634C114.164 245.396 114.279 245.177 114.448 245.004C114.618 244.832 114.834 244.713 115.071 244.663C115.544 244.568 116.032 244.568 116.505 244.663C115.998 244.203 115.54 243.691 115.14 243.135C114.74 242.564 114.524 241.884 114.522 241.187C114.516 240.741 114.665 240.307 114.943 239.958C115.221 239.61 115.612 239.369 116.047 239.277C116.81 239.193 117.062 239.804 117.336 240.431C118.122 242.226 119.251 244.22 117.862 246.008Z" fill="#14BA8B"/>
<path d="M172.591 242.127C172.732 241.942 172.824 241.725 172.857 241.495C172.891 241.265 172.865 241.03 172.782 240.813C172.681 240.667 172.542 240.553 172.381 240.481C172.219 240.41 172.041 240.385 171.866 240.408C171.519 240.461 171.188 240.591 170.898 240.79C169.701 241.516 167.809 243.028 167.527 244.51C167.115 246.703 170.036 244.847 170.677 244.335C171.444 243.722 172.093 242.974 172.591 242.127Z" fill="#14BA8B"/>
<path d="M418.307 39.7202H356.325C353.225 39.7202 350.712 42.2377 350.712 45.3433V56.7269C350.712 59.8324 353.225 62.3499 356.325 62.3499H418.307C421.407 62.3499 423.92 59.8324 423.92 56.7269V45.3433C423.92 42.2377 421.407 39.7202 418.307 39.7202Z" fill="#FFFAFA"/>
<path d="M395.252 45.3816L397.082 49.1023L401.185 49.6982L398.219 52.5937L398.92 56.6812L395.252 54.7482L391.591 56.6812L392.285 52.5937L389.326 49.6982L393.421 49.1023L395.252 45.3816Z" fill="#FFB61F"/>
<g style="mix-blend-mode:overlay" opacity="0.2">
<path d="M397.082 49.1023L392.964 55.9553L392.949 55.963L391.583 56.6812L392.285 52.5937L389.326 49.6906L393.421 49.1023L395.252 45.3816L397.082 49.1023Z" fill="#FFF6F3"/>
</g>
<path d="M379.381 45.3816L381.211 49.1023L385.314 49.6982L382.348 52.5937L383.049 56.6812L379.381 54.7482L375.72 56.6812L376.414 52.5937L373.455 49.6982L377.55 49.1023L379.381 45.3816Z" fill="#FFB61F"/>
<g style="mix-blend-mode:overlay" opacity="0.2">
<path d="M381.211 49.1023L377.085 55.9553L377.078 55.963L375.712 56.6812L376.414 52.5937L373.455 49.6906L377.55 49.1023L379.381 45.3816L381.211 49.1023Z" fill="#FFF6F3"/>
</g>
<path d="M363.51 45.3816L365.34 49.1023L369.443 49.6982L366.476 52.5937L367.178 56.6812L363.51 54.7482L359.841 56.6812L360.543 52.5937L357.584 49.6982L361.679 49.1023L363.51 45.3816Z" fill="#FFB61F"/>
<g style="mix-blend-mode:overlay" opacity="0.2">
<path d="M365.34 49.1023L361.214 55.9553L361.206 55.963L359.841 56.6812L360.543 52.5937L357.584 49.6906L361.679 49.1023L363.51 45.3816L365.34 49.1023Z" fill="#FFF6F3"/>
</g>
<path d="M411.123 45.3816L412.961 49.1023L417.057 49.6982L414.09 52.5937L414.791 56.6812L411.123 54.7482L407.462 56.6812L408.156 52.5937L405.197 49.6982L409.293 49.1023L411.123 45.3816Z" fill="#FFB61F"/>
<g style="mix-blend-mode:overlay" opacity="0.2">
<path d="M412.953 49.1023L408.827 55.9553L408.82 55.963L407.455 56.6812L408.156 52.5937L405.197 49.6906L409.293 49.1023L411.131 45.3816L412.953 49.1023Z" fill="#FFF6F3"/>
</g>
<path d="M366.072 62.3423L357.584 71.2887L376.559 62.3423H366.072Z" fill="#FFFAFA"/>
<path d="M163.332 84.2461H101.351C98.2504 84.2461 95.7373 86.7636 95.7373 89.8691V101.253C95.7373 104.358 98.2504 106.876 101.351 106.876H163.332C166.433 106.876 168.946 104.358 168.946 101.253V89.8691C168.946 86.7636 166.433 84.2461 163.332 84.2461Z" fill="#FFFAFA"/>
<path d="M140.285 89.9075L142.115 93.6282L146.211 94.2241L143.244 97.1196L143.945 101.207L140.285 99.2741L136.616 101.207L137.318 97.1196L134.351 94.2241L138.447 93.6282L140.285 89.9075Z" fill="#FFB61F"/>
<g style="mix-blend-mode:overlay" opacity="0.2">
<path d="M142.107 93.6282L137.989 100.481L137.981 100.489L136.616 101.207L137.31 97.1196L134.351 94.2164L138.447 93.6282L140.285 89.9075L142.107 93.6282Z" fill="#FFF6F3"/>
</g>
<path d="M124.406 89.9075L126.244 93.6282L130.339 94.2241L127.373 97.1196L128.074 101.207L124.406 99.2741L120.745 101.207L121.447 97.1196L118.48 94.2241L122.575 93.6282L124.406 89.9075Z" fill="#FFB61F"/>
<g style="mix-blend-mode:overlay" opacity="0.2">
<path d="M126.236 93.6282L122.118 100.481L122.11 100.489L120.737 101.207L121.439 97.1196L118.48 94.2164L122.575 93.6282L124.414 89.9075L126.236 93.6282Z" fill="#FFF6F3"/>
</g>
<path d="M108.535 89.9075L110.373 93.6282L114.468 94.2241L111.502 97.1196L112.203 101.207L108.535 99.2741L104.874 101.207L105.576 97.1196L102.609 94.2241L106.704 93.6282L108.535 89.9075Z" fill="#FFB61F"/>
<g style="mix-blend-mode:overlay" opacity="0.2">
<path d="M110.365 93.6282L106.247 100.481L106.232 100.489L104.866 101.207L105.568 97.1196L102.609 94.2164L106.704 93.6282L108.542 89.9075L110.365 93.6282Z" fill="#FFF6F3"/>
</g>
<path d="M156.156 89.9075L157.986 93.6282L162.082 94.2241L159.115 97.1196L159.817 101.207L156.156 99.2741L152.487 101.207L153.189 97.1196L150.222 94.2241L154.318 93.6282L156.156 89.9075Z" fill="#E3E3E3"/>
<g style="mix-blend-mode:overlay" opacity="0.2">
<path d="M157.978 93.6282L153.86 100.481L153.852 100.489L152.487 101.207L153.181 97.1196L150.222 94.2164L154.318 93.6282L156.156 89.9075L157.978 93.6282Z" fill="#FFF6F3"/>
</g>
<path d="M157.978 106.868L165.308 115.349L149.093 106.868H157.978Z" fill="#FFFAFA"/>
<path d="M513.732 187.172H451.75C448.65 187.172 446.137 189.69 446.137 192.795V204.179C446.137 207.285 448.65 209.802 451.75 209.802H513.732C516.832 209.802 519.345 207.285 519.345 204.179V192.795C519.345 189.69 516.832 187.172 513.732 187.172Z" fill="#FFFAFA"/>
<path d="M490.677 192.833L492.507 196.547L496.603 197.15L493.643 200.046L494.345 204.133L490.677 202.2L487.016 204.133L487.71 200.046L484.751 197.15L488.846 196.547L490.677 192.833Z" fill="#E3E3E3"/>
<g style="mix-blend-mode:overlay" opacity="0.2">
<path d="M492.507 196.547L488.381 203.407L488.373 203.415L487.008 204.133L487.71 200.046L484.751 197.142L488.846 196.547L490.677 192.833L492.507 196.547Z" fill="#FFF6F3"/>
</g>
<path d="M474.806 192.833L476.636 196.547L480.739 197.15L477.772 200.046L478.474 204.133L474.806 202.2L471.137 204.133L471.839 200.046L468.872 197.15L472.975 196.547L474.806 192.833Z" fill="#FFB61F"/>
<g style="mix-blend-mode:overlay" opacity="0.2">
<path d="M476.636 196.547L472.51 203.407L472.502 203.415L471.137 204.133L471.839 200.046L468.872 197.142L472.975 196.547L474.806 192.833L476.636 196.547Z" fill="#FFF6F3"/>
</g>
<path d="M458.935 192.833L460.765 196.547L464.86 197.15L461.901 200.046L462.595 204.133L458.935 202.2L455.266 204.133L455.968 200.046L453.001 197.15L457.104 196.547L458.935 192.833Z" fill="#FFB61F"/>
<g style="mix-blend-mode:overlay" opacity="0.2">
<path d="M460.765 196.547L456.639 203.407L456.631 203.415L455.266 204.133L455.968 200.046L453.001 197.142L457.104 196.547L458.935 192.833L460.765 196.547Z" fill="#FFF6F3"/>
</g>
<path d="M506.548 192.833L508.378 196.547L512.481 197.15L509.515 200.046L510.216 204.133L506.548 202.2L502.887 204.133L503.581 200.046L500.622 197.15L504.717 196.547L506.548 192.833Z" fill="#E3E3E3"/>
<g style="mix-blend-mode:overlay" opacity="0.2">
<path d="M508.378 196.547L504.252 203.407L504.244 203.415L502.879 204.133L503.581 200.046L500.622 197.142L504.717 196.547L506.548 192.833L508.378 196.547Z" fill="#FFF6F3"/>
</g>
<path d="M446.137 195.179L439.502 195.912L446.137 197.807V195.179Z" fill="#FFFAFA"/>
<path d="M238.959 282.504L204.036 337.512C204.036 337.512 200.757 338.566 193.298 340.499C189.96 341.307 186.578 341.921 183.17 342.341C172.568 343.754 158.04 344.442 152.411 340.499C144.502 334.968 141.269 328 143.259 322.225L152.861 313.309L211.259 259.103C215.659 258.438 234.901 261.005 237.563 261.487L238.959 282.504Z" fill="#D16B51"/>
<path d="M193.824 299.717C193.794 302.909 193.595 306.096 193.229 309.267C191.928 320.816 188.518 332.027 183.17 342.341C172.568 343.754 158.04 344.442 152.411 340.499C144.502 334.968 141.269 328 143.259 322.224L152.861 313.309L193.809 296.699C193.832 297.708 193.839 298.724 193.824 299.717Z" fill="#ED7B5F"/>
<path d="M193.824 299.717C193.794 302.909 193.595 306.096 193.229 309.267C190.461 312.323 186.647 314.844 183.147 316.739C170.456 323.615 156.141 327.351 143.259 322.224C166.315 325.915 182.842 314.21 193.824 299.717Z" fill="#D16B51"/>
<path d="M211.259 259.095C210.565 272.022 190.804 329.819 143.244 322.217C129.516 320.032 131.041 281.488 138.47 271.029C144.342 262.74 167.832 249.285 178.037 240.935C179.384 239.823 180.908 238.945 182.544 238.337C191.757 234.945 203.983 228.451 210.656 223.141C212.004 222.075 213.564 221.312 215.232 220.903C223.278 218.962 230.844 213.469 235.778 210.795C236.43 210.432 237.183 210.294 237.921 210.403C238.659 210.512 239.34 210.862 239.859 211.399C243.306 215.035 242.467 222.057 237.708 229.376C233.132 236.389 224.743 240.469 221.814 241.714C221.506 241.844 221.231 242.04 221.007 242.289C220.783 242.537 220.616 242.831 220.517 243.151C218.992 248.208 214.691 254.282 212.235 256.788C211.643 257.415 211.297 258.234 211.259 259.095Z" fill="#ED7B5F"/>
<path d="M151.793 340.064L150.161 342.325L150.154 342.348L140.323 356.054L99.8862 312.4L138.485 270.991L151.778 339.98L151.793 340.064Z" fill="#ED7B5F"/>
<path d="M151.77 340.056L150.138 342.348C146.79 341.118 141.345 334.135 142.664 326.419C143.03 331.018 146.134 335.915 151.77 340.056Z" fill="#D16B51"/>
<path d="M184.436 334.884C185.358 335.435 186.381 335.798 187.444 335.953C188.507 336.108 189.59 336.051 190.631 335.786C191.672 335.522 192.651 335.054 193.511 334.41C194.372 333.767 195.098 332.959 195.647 332.034L257.507 227.962L243.451 219.558L181.599 323.63C181.045 324.555 180.679 325.581 180.522 326.648C180.365 327.715 180.42 328.802 180.683 329.848C180.947 330.893 181.414 331.876 182.058 332.741C182.702 333.605 183.51 334.333 184.436 334.884Z" fill="#28192D"/>
<path d="M264.075 216.89L250.025 208.51L243.443 219.585L257.492 227.965L264.075 216.89Z" fill="#FF9525"/>
<g style="mix-blend-mode:color-dodge" opacity="0.3">
<path d="M320.465 115.837L243.862 196.913C238.503 190.273 234.72 182.499 232.799 174.179C230.878 165.86 230.869 157.212 232.773 148.888L301.84 107.029C302.87 107.304 303.9 107.602 304.891 107.938C310.462 109.741 315.717 112.407 320.465 115.837Z" fill="white"/>
<path d="M334.887 131.178L282.019 217.51C270.299 216.337 259.238 211.529 250.375 203.758L326.642 121.048C329.775 124.091 332.542 127.491 334.887 131.178Z" fill="white"/>
<path d="M341.613 146.252L309.307 213.332C303.113 215.97 296.493 217.463 289.767 217.74L338.921 138.742C340.001 141.176 340.9 143.686 341.613 146.252Z" fill="white"/>
</g>
<path d="M253.83 214.684C244.464 208.721 236.839 200.383 231.728 190.515C226.617 180.647 224.202 169.601 224.729 158.496C225.255 147.392 228.704 136.624 234.726 127.286C240.748 117.948 249.128 110.371 259.016 105.325C268.233 100.63 278.463 98.2848 288.801 98.4966C299.138 98.7083 309.264 101.471 318.281 106.539C327.298 111.607 334.929 118.825 340.496 127.553C346.064 136.281 349.397 146.25 350.2 156.576C351.002 166.903 349.251 177.268 345.1 186.754C340.948 196.241 334.526 204.555 326.401 210.961C318.276 217.367 308.699 221.667 298.519 223.48C288.339 225.292 277.87 224.562 268.039 221.354C263.045 219.73 258.272 217.49 253.83 214.684ZM262.044 111.299C250.456 117.203 241.269 126.948 236.05 138.876C230.83 150.804 229.901 164.176 233.42 176.713C236.939 189.25 244.688 200.177 255.348 207.632C266.008 215.087 278.919 218.609 291.88 217.598C304.841 216.586 317.052 211.104 326.43 202.085C335.809 193.066 341.776 181.068 343.314 168.136C344.852 155.204 341.866 142.138 334.866 131.164C327.865 120.19 317.283 111.987 304.921 107.953C290.751 103.334 275.33 104.538 262.044 111.299Z" fill="#271026"/>
<path d="M240.293 298.793C239.903 304.084 238.999 309.324 237.593 314.44C237.307 315.916 236.642 317.293 235.664 318.435C234.527 319.374 233.179 320.021 231.736 320.322L224.384 322.484C221.41 323.355 218.374 324.234 215.285 324.089C210.648 323.867 206.469 321.384 202.503 318.97C201.344 318.267 200.116 317.442 199.658 316.189C199.117 314.661 199.849 313.011 200.81 311.735C202.565 309.402 205.066 307.744 207.895 307.036C210.724 306.328 213.709 306.614 216.353 307.846C218.344 304.431 221.499 301.851 225.238 300.581C229.852 299.022 235.412 298.671 240.293 298.793Z" fill="#ED7B5F"/>
<path d="M212.494 321.835C211.038 322.105 209.704 322.826 208.68 323.898C206.102 323.35 203.476 323.051 200.84 323.004C198.169 323 195.554 323.772 193.313 325.227C191.54 326.436 190.273 328.255 189.751 330.338C189.661 330.775 189.707 331.229 189.883 331.639C190.059 332.049 190.356 332.395 190.735 332.63C193.526 334.403 196.234 336.198 199.048 337.978C199.951 338.689 201.035 339.132 202.177 339.257C203.318 339.383 204.472 339.186 205.508 338.689L217.291 335.396C219.015 335.025 220.652 334.324 222.111 333.333C223.816 331.84 224.903 329.765 225.162 327.511C225.42 325.274 225.399 323.013 225.101 320.781C221.173 319.719 216.597 321.063 212.494 321.835Z" fill="#ED7B5F"/>
<path d="M195.685 334.632C192.126 335.572 188.9 337.49 186.373 340.171C185.534 341.065 184.733 342.234 185.023 343.425C185.313 344.617 186.586 345.29 187.715 345.794L193.923 348.544C195.179 349.293 196.607 349.7 198.068 349.725C199.529 349.751 200.971 349.394 202.252 348.689L210.077 345.74C211.619 345.256 213.07 344.518 214.37 343.555C215.804 342.273 216.831 340.596 217.322 338.734C217.803 336.881 218.099 334.985 218.207 333.073C210.893 332.653 202.778 332.745 195.685 334.632Z" fill="#ED7B5F"/>
<path d="M237.441 281.007C232.876 281.246 228.473 282.779 224.744 285.428C221.015 288.076 218.113 291.73 216.376 295.966C215.804 297.433 215.468 299.328 216.627 300.382C217.165 300.784 217.794 301.046 218.458 301.146C224.255 302.459 230.282 302.355 236.03 300.841C241.778 299.328 247.078 296.45 251.481 292.452C253.199 290.933 254.662 289.148 255.813 287.165C257.293 284.468 257.911 281.404 258.506 278.386C258.994 275.941 259.451 273.275 258.292 271.067C257.4 269.371 255.699 268.271 254.029 267.339C248.951 264.384 243.375 262.39 237.578 261.456C235.664 267.797 235.153 274.818 237.441 281.007Z" fill="#ED7B5F"/>
<path d="M209.817 322.905C212.314 323.762 214.957 324.116 217.591 323.947C220.226 323.778 222.802 323.089 225.169 321.919" stroke="#BF563B" stroke-linecap="round" stroke-linejoin="round"/>
<path d="M211.67 323.363C212.133 322.652 212.495 321.881 212.745 321.071C212.864 320.7 212.899 320.308 212.847 319.922C212.796 319.536 212.659 319.167 212.448 318.84C212.076 318.411 211.612 318.071 211.09 317.847C210.172 317.33 209.2 316.915 208.192 316.609C207.176 316.299 206.093 316.278 205.065 316.548C203.939 317.04 202.993 317.87 202.358 318.924" stroke="#BF563B" stroke-linecap="round" stroke-linejoin="round"/>
<path d="M223.53 314.249C223.662 316.713 223.001 319.155 221.646 321.216" stroke="#BF563B" stroke-linecap="round" stroke-linejoin="round"/>
<path d="M194.327 334.945C197.065 336.305 199.513 338.765 202.617 339.101C203.845 339.141 205.07 338.958 206.232 338.559L217.726 335.396" stroke="#BF563B" stroke-linecap="round" stroke-linejoin="round"/>
<path d="M199.674 338.039C200.153 337.257 200.532 336.418 200.803 335.541C200.912 335.158 200.94 334.756 200.884 334.361C200.829 333.966 200.692 333.588 200.482 333.249C200.02 332.701 199.419 332.287 198.743 332.05C197.522 331.434 196.188 331.075 194.823 330.995C194.14 330.965 193.46 331.109 192.847 331.412C192.234 331.715 191.707 332.168 191.315 332.73" stroke="#BF563B" stroke-linecap="round" stroke-linejoin="round"/>
<path d="M208.208 331.576C208.346 333.344 207.893 335.107 206.919 336.588" stroke="#BF563B" stroke-linecap="round" stroke-linejoin="round"/>
<path d="M193.717 348.384C194.19 347.689 194.686 346.856 194.426 346.092C194.196 345.57 193.788 345.147 193.275 344.9C191.116 343.662 187.318 343.509 186.136 344.9" stroke="#BF563B" stroke-linecap="round" stroke-linejoin="round"/>
<path d="M201.252 344.144C201.178 345.826 200.702 347.466 199.864 348.926" stroke="#BF563B" stroke-linecap="round" stroke-linejoin="round"/>
<path d="M222.302 301.818C228.44 302.704 234.703 301.843 240.377 299.335" stroke="#BF563B" stroke-linecap="round" stroke-linejoin="round"/>
<path d="M228.8 301.948C228.929 301.085 229.059 300.221 229.181 299.358C229.277 299.031 229.302 298.687 229.253 298.349C229.205 298.012 229.084 297.689 228.899 297.402C228.584 297.113 228.187 296.929 227.762 296.875C226.046 296.537 224.266 296.801 222.721 297.622C221.175 298.442 219.958 299.77 219.274 301.383" stroke="#BF563B" stroke-linecap="round" stroke-linejoin="round"/>
<path d="M236.983 263.29C234.886 269.684 235.458 274.52 237.38 280.976C232.996 281.207 228.761 282.64 225.136 285.119C221.511 287.598 218.636 291.028 216.826 295.034" stroke="#BF563B" stroke-linecap="round" stroke-linejoin="round"/>
<path d="M242.528 288.929C243.271 291.348 243.434 293.908 243.001 296.401" stroke="#BF563B" stroke-linecap="round" stroke-linejoin="round"/>
<path d="M119.944 330.185L125.794 323.623C127.206 322.233 128.333 320.579 129.112 318.756C130.073 316.021 129.424 313.018 128.761 310.199C128.555 309.298 128.227 308.266 127.365 307.945C126.503 307.624 125.489 308.266 124.749 308.9C121.039 312.038 117.579 315.461 114.4 319.138" stroke="#BF563B" stroke-linecap="round" stroke-linejoin="round"/>
<path d="M127.159 336.259C129.15 334.005 131.4 331.606 134.366 331.171C135.076 331.054 135.802 331.08 136.501 331.248C137.201 331.416 137.86 331.722 138.439 332.149C139.013 332.589 139.457 333.177 139.726 333.849C139.994 334.521 140.076 335.254 139.964 335.969C139.708 336.943 139.245 337.85 138.607 338.628L134.229 344.839" stroke="#BF563B" stroke-linecap="round" stroke-linejoin="round"/>
<path d="M235.847 211.001C235.801 212.534 235.167 213.99 234.078 215.066C232.99 216.123 231.773 217.037 230.455 217.786C229.472 218.492 228.356 218.991 227.175 219.253C226.582 219.364 225.968 219.297 225.413 219.059C224.858 218.821 224.386 218.423 224.056 217.916" stroke="#BF563B" stroke-linecap="round" stroke-linejoin="round"/>
<path d="M211.617 222.851C212.445 224.349 213.272 225.846 214.095 227.343" stroke="#BF563B" stroke-linecap="round" stroke-linejoin="round"/>
<path d="M213.836 222.737L215.217 225.235" stroke="#BF563B" stroke-linecap="round" stroke-linejoin="round"/>
<path d="M180.104 240.576C181.354 242.542 182.608 244.508 183.863 246.474" stroke="#BF563B" stroke-linecap="round" stroke-linejoin="round"/>
<path d="M182.476 239.69C183.335 240.948 184.202 242.206 185.076 243.464" stroke="#BF563B" stroke-linecap="round" stroke-linejoin="round"/>
<path d="M177.602 242.578L180.653 246.856" stroke="#BF563B" stroke-linecap="round" stroke-linejoin="round"/>
<path d="M134.58 281.916C132.451 291.387 132.415 301.209 134.473 310.696C134.932 313.199 135.803 315.608 137.051 317.824C138.324 320.071 140.414 321.738 142.885 322.477" stroke="#BF563B" stroke-linecap="round" stroke-linejoin="round"/>
<path d="M204.478 280.953C201.078 290.195 195.815 298.637 189.017 305.753C182.219 312.869 174.031 318.507 164.964 322.316" stroke="#BF563B" stroke-linecap="round" stroke-linejoin="round"/>
<path d="M147.934 352.762L101.229 306.272L81.834 328.543L132.269 372.496L147.934 352.762Z" fill="#EDF4F7"/>
<path d="M142.885 366.964L83.7711 320.391L31.9937 382H132.902L142.885 366.964Z" fill="#28192D"/>
<path d="M104.943 321.644C104.943 322.413 104.715 323.165 104.288 323.804C103.862 324.444 103.256 324.942 102.546 325.237C101.837 325.531 101.056 325.608 100.303 325.458C99.5503 325.308 98.8586 324.938 98.3157 324.394C97.7728 323.85 97.4031 323.157 97.2533 322.403C97.1035 321.648 97.1804 320.866 97.4742 320.156C97.768 319.445 98.2656 318.838 98.904 318.411C99.5424 317.983 100.293 317.755 101.061 317.755C101.571 317.754 102.076 317.854 102.547 318.049C103.019 318.244 103.447 318.531 103.808 318.892C104.169 319.253 104.454 319.682 104.649 320.155C104.844 320.627 104.944 321.133 104.943 321.644Z" stroke="#B4C6CC" stroke-miterlimit="10"/>
</g>
<defs>
<linearGradient id="paint0_linear_204_33550" x1="285.996" y1="31.408" x2="285.996" y2="120.773" gradientUnits="userSpaceOnUse">
<stop stop-color="#1075F8"/>
<stop offset="1" stop-color="#43B8E6"/>
</linearGradient>
<linearGradient id="paint1_linear_204_33550" x1="283.635" y1="214.363" x2="283.635" y2="222.316" gradientUnits="userSpaceOnUse">
<stop stop-color="#1075F8"/>
<stop offset="1" stop-color="#43B8E6"/>
</linearGradient>
<linearGradient id="paint2_linear_204_33550" x1="286" y1="41.6838" x2="286" y2="313.087" gradientUnits="userSpaceOnUse">
<stop stop-color="#1075F8"/>
<stop offset="1" stop-color="#43B8E6"/>
</linearGradient>
<linearGradient id="paint3_linear_204_33550" x1="286.003" y1="191.008" x2="286.003" y2="198.961" gradientUnits="userSpaceOnUse">
<stop stop-color="#1075F8"/>
<stop offset="1" stop-color="#43B8E6"/>
</linearGradient>
<linearGradient id="paint4_linear_204_33550" x1="286" y1="126.434" x2="286" y2="191.137" gradientUnits="userSpaceOnUse">
<stop stop-color="#1075F8"/>
<stop offset="1" stop-color="#43B8E6"/>
</linearGradient>
<linearGradient id="paint5_linear_204_33550" x1="336.507" y1="191.008" x2="336.507" y2="198.961" gradientUnits="userSpaceOnUse">
<stop stop-color="#1075F8"/>
<stop offset="1" stop-color="#43B8E6"/>
</linearGradient>
<linearGradient id="paint6_linear_204_33550" x1="336.504" y1="126.434" x2="336.504" y2="191.137" gradientUnits="userSpaceOnUse">
<stop stop-color="#1075F8"/>
<stop offset="1" stop-color="#43B8E6"/>
</linearGradient>
<linearGradient id="paint7_linear_204_33550" x1="336.507" y1="302.307" x2="336.507" y2="310.26" gradientUnits="userSpaceOnUse">
<stop stop-color="#1075F8"/>
<stop offset="1" stop-color="#43B8E6"/>
</linearGradient>
<linearGradient id="paint8_linear_204_33550" x1="336.504" y1="237.734" x2="336.504" y2="302.437" gradientUnits="userSpaceOnUse">
<stop stop-color="#1075F8"/>
<stop offset="1" stop-color="#43B8E6"/>
</linearGradient>
<linearGradient id="paint9_linear_204_33550" x1="235.492" y1="191.008" x2="235.492" y2="198.961" gradientUnits="userSpaceOnUse">
<stop stop-color="#1075F8"/>
<stop offset="1" stop-color="#43B8E6"/>
</linearGradient>
<linearGradient id="paint10_linear_204_33550" x1="235.496" y1="126.434" x2="235.496" y2="191.137" gradientUnits="userSpaceOnUse">
<stop stop-color="#1075F8"/>
<stop offset="1" stop-color="#43B8E6"/>
</linearGradient>
<linearGradient id="paint11_linear_204_33550" x1="235.492" y1="302.307" x2="235.492" y2="310.26" gradientUnits="userSpaceOnUse">
<stop stop-color="#1075F8"/>
<stop offset="1" stop-color="#43B8E6"/>
</linearGradient>
<linearGradient id="paint12_linear_204_33550" x1="235.496" y1="237.734" x2="235.496" y2="302.437" gradientUnits="userSpaceOnUse">
<stop stop-color="#1075F8"/>
<stop offset="1" stop-color="#43B8E6"/>
</linearGradient>
<linearGradient id="paint13_linear_204_33550" x1="285.996" y1="233.983" x2="285.996" y2="313.095" gradientUnits="userSpaceOnUse">
<stop stop-color="#1075F8"/>
<stop offset="1" stop-color="#43B8E6"/>
</linearGradient>
<linearGradient id="paint14_linear_204_33550" x1="286" y1="65.1843" x2="286" y2="93.5211" gradientUnits="userSpaceOnUse">
<stop stop-color="#1075F8"/>
<stop offset="1" stop-color="#43B8E6"/>
</linearGradient>
<clipPath id="clip0_204_33550">
<rect width="572" height="382" fill="white"/>
</clipPath>
</defs>
</svg>