<svg xmlns="http://www.w3.org/2000/svg" viewBox="0 0 274 85.88" class="logo_icon"><g><path d="M141.1,19.75C137.97,12.35,133.49,5.71,127.79,0l-4.44,4.44c10.55,10.55,16.36,24.58,16.36,39.51s-5.81,28.95-16.36,39.51l4.44,4.44c5.71-5.71,10.19-12.35,13.32-19.75,3.24-7.66,4.88-15.8,4.88-24.19s-1.64-16.53-4.88-24.19Z" class="cls-1"></path> <path d="M114.36,13.62s-.06-.06-.1-.09l-4.44,4.44s.06,.06,.1,.09c6.92,6.92,10.73,16.12,10.73,25.91s-3.81,18.99-10.73,25.91c-.02,.03-.05,.05-.07,.07l4.44,4.44s.05-.05,.07-.07c8.11-8.11,12.57-18.88,12.57-30.35s-4.46-22.24-12.57-30.35Z" class="cls-1"></path> <path d="M95.89,31.9c3.2,3.05,5.2,7.35,5.2,12.11s-1.97,9-5.13,12.05l4.43,4.43c4.3-4.18,6.98-10.02,6.98-16.48s-2.7-12.36-7.04-16.55l-4.43,4.43Z" class="cls-1"></path> <path d="M22.64,4.44L18.2,0C12.5,5.71,8.02,12.35,4.89,19.75,1.64,27.42,0,35.55,0,43.94s1.64,16.53,4.89,24.19c3.13,7.4,7.61,14.04,13.32,19.75l4.44-4.44C12.09,72.89,6.27,58.87,6.27,43.94S12.09,14.99,22.64,4.44Z" class="cls-1"></path> <path d="M36.16,17.96l-4.44-4.44s-.06,.06-.1,.09c-8.11,8.11-12.57,18.88-12.57,30.35s4.46,22.24,12.57,30.35c.03,.03,.05,.05,.07,.07l4.44-4.44s-.05-.05-.07-.07c-6.92-6.92-10.73-16.12-10.73-25.91s3.81-18.99,10.73-25.91c.03-.03,.06-.06,.1-.09Z" class="cls-1"></path> <path d="M45.66,27.46c-4.34,4.19-7.04,10.06-7.04,16.55s2.68,12.3,6.97,16.48l4.43-4.43c-3.16-3.04-5.13-7.32-5.13-12.05s2-9.06,5.2-12.11l-4.43-4.43Z" class="cls-1"></path> <path d="M72.99,28.96c-4.7-.05-8.53,.98-12.5,4.22-2.82,2.69-4.58,6.49-4.58,10.68s1.74,7.95,4.54,10.64c0,0,.04,.03,.05,.03,1.29,1.07,2.95-.19,3.66-.38,3.34-.88,4.49,.09,4.7,3.53l-.02,1.82c0,.62,.6,.8,1.07,.79,1.14,0,1.07-.81,1.07-.81,0-.27,.22-.5,.5-.5s.5,.22,.5,.5c0,0-.05,.82,.99,.82,.01,0,.02,0,.03,0s.02,0,.03,0c1.09,0,1.05-.82,1.05-.82,0-.27,.22-.5,.5-.5s.5,.22,.5,.5c0,0-.03,.81,1.01,.81,.48,.01,1.07-.17,1.07-.79l-.02-1.82c.22-3.44,1.36-4.41,4.7-3.53,.7,.19,2.37,1.45,3.66,.38,0,0,.04-.03,.05-.03,2.79-2.69,4.54-6.47,4.54-10.64s-1.76-7.99-4.58-10.68c-3.97-3.66-7.81-4.27-12.51-4.22Zm-2.74,16.61c-.4,1.49-2.83,2.12-5.43,1.43-2.6-.7-4.38-2.47-3.98-3.95,.4-1.49,2.83-2.12,5.43-1.43,2.6,.7,4.38,2.47,3.99,3.95Zm4.13,6.78h-2.73c-1.68,0,.19-3.82,1.36-3.82s3.08,3.82,1.36,3.82Zm6.84-5.36c-2.6,.7-5.03,.06-5.43-1.43-.4-1.49,1.39-3.26,3.98-3.95,2.6-.7,5.03-.06,5.43,1.43,.4,1.49-1.39,3.26-3.98,3.95Z" class="cls-1"></path><g class="svg-hid svg-hid--op"><g><path d="M163.4,20.66v14.48h4.29v-14.48c0-.13,.1-.23,.23-.23h10.55v-4.29h-10.55c-2.49,0-4.52,2.03-4.52,4.52Z" class="cls-2"></path> <path d="M196.34,16.14h-10.25c-2.49,0-4.52,2.03-4.52,4.52v9.96c0,2.49,2.03,4.52,4.52,4.52h10.25c2.49,0,4.52-2.03,4.52-4.52v-9.96c0-2.49-2.03-4.52-4.52-4.52Zm.23,14.48c0,.13-.1,.23-.23,.23h-10.25c-.13,0-.23-.1-.23-.23v-9.96c0-.13,.1-.23,.23-.23h10.25c.13,0,.23,.1,.23,.23v9.96Z" class="cls-2"></path> <path d="M219.62,16.14h-10.29c-2.49,0-4.52,2.03-4.52,4.52v9.96c0,2.49,2.03,4.52,4.52,4.52h10.48v3.01c0,.13-.1,.2-.2,.2h-11.63v4.32h11.63c2.49,0,4.49-2.03,4.49-4.52V20.66c0-2.49-2-4.52-4.49-4.52Zm.2,14.48c0,.13-.1,.23-.2,.23h-10.29c-.13,0-.23-.1-.23-.23v-9.96c0-.13,.1-.23,.23-.23h10.29c.1,0,.2,.1,.2,.23v9.96Z" class="cls-2"></path> <path d="M242.68,30.62c0,.13-.1,.23-.23,.23h-10.25c-.13,0-.23-.1-.23-.23v-14.48h-4.29v14.48c0,2.49,2,4.52,4.52,4.52h10.25c2.49,0,4.52-2.03,4.52-4.52v-14.48h-4.29v14.48Z" class="cls-2"></path> <path d="M265.3,16.14h-10.25c-2.49,0-4.52,2.03-4.52,4.52v9.96c0,2.49,2.03,4.52,4.52,4.52h14.77v-4.29h-14.77c-.13,0-.23-.1-.23-.23v-2.82h15v-7.14c0-2.49-2.03-4.52-4.52-4.52Zm.23,7.34h-10.71v-2.82c0-.13,.1-.23,.23-.23h10.25c.13,0,.23,.1,.23,.23v2.82Z" class="cls-2"></path></g> <g><rect x="186.91" y="42.67" width="4.29" height="4.32" class="cls-2"></rect> <g><path d="M178.17,48.9h-10.25c-2.49,0-4.52,2.03-4.52,4.52v2.62c0,2.49,2.03,4.52,4.52,4.52h10.25c.13,0,.23,.07,.23,.2v2.62c0,.13-.1,.23-.23,.23h-10.25c-.13,0-.23-.1-.23-.23v-.82h-4.29v.82c0,2.49,2.03,4.52,4.52,4.52h10.25c2.52,0,4.52-2.03,4.52-4.52v-2.62c0-2.49-2-4.52-4.52-4.52h-10.25c-.13,0-.23-.07-.23-.2v-2.62c0-.13,.1-.23,.23-.23h10.25c.13,0,.23,.1,.23,.23v.82h4.29v-.82c0-2.49-2-4.52-4.52-4.52Z" class="cls-2"></path> <rect x="186.91" y="48.9" width="4.29" height="19" class="cls-2"></rect> <path d="M209.9,48.9h-10.29c-2.49,0-4.52,2.03-4.52,4.52v9.96c0,2.49,2.03,4.52,4.52,4.52h10.48v3.01c0,.13-.1,.2-.2,.2h-11.63v4.32h11.63c2.49,0,4.49-2.03,4.49-4.52v-17.49c0-2.49-2-4.52-4.49-4.52Zm.2,14.48c0,.13-.1,.23-.2,.23h-10.29c-.13,0-.23-.1-.23-.23v-9.96c0-.13,.1-.23,.23-.23h10.29c.1,0,.2,.1,.2,.23v9.96Z" class="cls-2"></path> <path d="M233.57,48.9h-14.77v19h4.29v-14.48c0-.13,.1-.23,.23-.23h10.25c.13,0,.23,.1,.23,.23v14.48h4.29v-14.48c0-2.49-2.03-4.52-4.52-4.52Z" class="cls-2"></path> <path d="M257.21,48.9h-14.78v4.29h14.78c.13,0,.23,.1,.23,.23v2.82h-15v7.14c0,2.49,2.03,4.52,4.52,4.52h14.78v-14.48c0-2.49-2.03-4.52-4.52-4.52Zm.23,14.71h-10.48c-.13,0-.23-.1-.23-.23v-2.82h10.71v3.05Z" class="cls-2"></path> <path d="M270.17,63.61c-.13,0-.2-.1-.2-.23v-20.7h-4.32v20.7c0,2.49,2.03,4.52,4.52,4.52h3.83v-4.29h-3.83Z" class="cls-2"></path></g></g></g></g></svg>