<?xml version="1.0" encoding="UTF-8"?>
<!DOCTYPE svg PUBLIC "-//W3C//DTD SVG 1.1//EN" "http://www.w3.org/Graphics/SVG/1.1/DTD/svg11.dtd">
<svg xmlns="http://www.w3.org/2000/svg" version="1.1" width="1672px" height="536px" style="shape-rendering:geometricPrecision; text-rendering:geometricPrecision; image-rendering:optimizeQuality; fill-rule:evenodd; clip-rule:evenodd" xmlns:xlink="http://www.w3.org/1999/xlink">
<g><path style="opacity:0.975" fill="#ce1b21" d="M 109.5,-0.5 C 110.5,-0.5 111.5,-0.5 112.5,-0.5C 121.145,8.47939 129.812,17.4794 138.5,26.5C 55.4861,113.405 24.3194,216.405 45,335.5C 59.1225,402.844 90.2892,460.678 138.5,509C 129.631,517.702 120.964,526.535 112.5,535.5C 111.167,535.5 109.833,535.5 108.5,535.5C 44.3101,468.771 7.9768,389.104 -0.5,296.5C -0.5,277.5 -0.5,258.5 -0.5,239.5C 7.53224,146.119 44.1989,66.1187 109.5,-0.5 Z"/></g>
<g><path style="opacity:0.974" fill="#ce1b21" d="M 777.5,-0.5 C 778.5,-0.5 779.5,-0.5 780.5,-0.5C 862.539,84.7599 898.706,186.76 889,305.5C 879.211,394.725 843.378,471.392 781.5,535.5C 780.167,535.5 778.833,535.5 777.5,535.5C 768.855,526.521 760.188,517.521 751.5,508.5C 827.635,429.605 860.135,335.272 849,225.5C 838.324,148.152 805.824,81.8185 751.5,26.5C 760.188,17.4794 768.855,8.47939 777.5,-0.5 Z"/></g>
<g><path style="opacity:0.973" fill="#ce1b21" d="M 192.5,81.5 C 202.62,89.7859 211.953,98.9526 220.5,109C 164.887,167.587 144.72,236.754 160,316.5C 170.033,358.912 190.199,395.578 220.5,426.5C 211.805,436.028 202.639,445.028 193,453.5C 156.076,417.681 132.076,374.348 121,323.5C 103.623,230.287 127.456,149.62 192.5,81.5 Z"/></g>
<g><path style="opacity:0.973" fill="#ce1b21" d="M 695.5,81.5 C 700.406,84.8983 704.906,88.8983 709,93.5C 769.935,166.819 788.269,249.819 764,342.5C 751.049,385.444 728.716,422.444 697,453.5C 687.361,445.028 678.195,436.028 669.5,426.5C 724.881,368.004 745.048,299.004 730,219.5C 719.838,176.996 699.671,140.162 669.5,109C 677.993,99.6738 686.659,90.5071 695.5,81.5 Z"/></g>
<g><path style="opacity:0.973" fill="#f9a219" d="M 1018.5,97.5 C 1042.17,97.5 1065.83,97.5 1089.5,97.5C 1089.5,106.5 1089.5,115.5 1089.5,124.5C 1067.59,124.173 1045.76,124.506 1024,125.5C 1023.5,155.165 1023.33,184.831 1023.5,214.5C 1014.5,214.5 1005.5,214.5 996.5,214.5C 996.333,182.498 996.5,150.498 997,118.5C 1000.09,107.244 1007.26,100.244 1018.5,97.5 Z"/></g>
<g><path style="opacity:0.969" fill="#f9a219" d="M 1129.5,97.5 C 1154.17,97.3334 1178.84,97.5 1203.5,98C 1214.85,100.429 1222.02,107.263 1225,118.5C 1225.67,143.5 1225.67,168.5 1225,193.5C 1221.29,204.54 1213.79,211.373 1202.5,214C 1178.17,214.667 1153.83,214.667 1129.5,214C 1115.51,210.675 1108.01,201.842 1107,187.5C 1106.33,166.167 1106.33,144.833 1107,123.5C 1108.66,109.675 1116.16,101.008 1129.5,97.5 Z M 1135.5,124.5 C 1156.17,124.333 1176.84,124.5 1197.5,125C 1198.66,145.427 1198.83,165.927 1198,186.5C 1177.24,187.66 1156.41,187.826 1135.5,187C 1134.17,166.167 1134.17,145.333 1135.5,124.5 Z"/></g>
<g><path style="opacity:0.974" fill="#f9a219" d="M 1271.5,97.5 C 1296.17,97.3334 1320.84,97.5 1345.5,98C 1357.33,100.5 1364.5,107.667 1367,119.5C 1367.67,159.167 1367.67,198.833 1367,238.5C 1363.73,250.101 1356.23,257.268 1344.5,260C 1319.17,260.5 1293.84,260.667 1268.5,260.5C 1268.5,251.5 1268.5,242.5 1268.5,233.5C 1292.17,233.667 1315.84,233.5 1339.5,233C 1340.48,226.924 1340.81,220.758 1340.5,214.5C 1317.5,214.667 1294.5,214.5 1271.5,214C 1258.44,210.938 1250.94,202.771 1249,189.5C 1248.33,167.167 1248.33,144.833 1249,122.5C 1251.15,109.188 1258.65,100.854 1271.5,97.5 Z M 1277.5,124.5 C 1298.17,124.333 1318.84,124.5 1339.5,125C 1340.66,145.427 1340.83,165.927 1340,186.5C 1319.24,187.66 1298.41,187.826 1277.5,187C 1276.17,166.167 1276.17,145.333 1277.5,124.5 Z"/></g>
<g><path style="opacity:0.963" fill="#f9a219" d="M 1388.5,97.5 C 1397.5,97.5 1406.5,97.5 1415.5,97.5C 1415.33,127.169 1415.5,156.835 1416,186.5C 1426.43,187.161 1436.93,187.494 1447.5,187.5C 1458.07,187.494 1468.57,187.161 1479,186.5C 1479.5,156.835 1479.67,127.169 1479.5,97.5C 1488.83,97.5 1498.17,97.5 1507.5,97.5C 1507.67,127.835 1507.5,158.168 1507,188.5C 1505.52,202.309 1498.02,210.809 1484.5,214C 1460.17,214.667 1435.83,214.667 1411.5,214C 1400.21,211.373 1392.71,204.54 1389,193.5C 1388.5,161.502 1388.33,129.502 1388.5,97.5 Z"/></g>
<g><path style="opacity:0.978" fill="#f9a219" d="M 1549.5,97.5 C 1574.5,97.3334 1599.5,97.5 1624.5,98C 1635.67,101.167 1642.83,108.333 1646,119.5C 1646.5,136.163 1646.67,152.83 1646.5,169.5C 1615.83,169.5 1585.17,169.5 1554.5,169.5C 1554.33,174.844 1554.5,180.177 1555,185.5C 1555.5,186 1556,186.5 1556.5,187C 1586.5,187.5 1616.5,187.667 1646.5,187.5C 1646.5,196.5 1646.5,205.5 1646.5,214.5C 1614.5,214.667 1582.5,214.5 1550.5,214C 1537.89,211.061 1530.39,203.228 1528,190.5C 1527.33,167.5 1527.33,144.5 1528,121.5C 1530.49,109.186 1537.65,101.186 1549.5,97.5 Z M 1556.5,124.5 C 1577.17,124.333 1597.84,124.5 1618.5,125C 1619.47,130.741 1619.81,136.575 1619.5,142.5C 1597.83,142.5 1576.17,142.5 1554.5,142.5C 1554.33,137.156 1554.5,131.823 1555,126.5C 1555.72,125.956 1556.22,125.289 1556.5,124.5 Z"/></g>
<g><path style="opacity:0.969" fill="#ce1b21" d="M 277.5,166.5 C 287.62,174.786 296.953,183.953 305.5,194C 274.376,226.954 266.542,264.787 282,307.5C 287.688,320.348 295.521,331.681 305.5,341.5C 296.514,350.986 287.348,360.319 278,369.5C 242.717,334.314 229.051,291.981 237,242.5C 242.582,212.802 256.082,187.468 277.5,166.5 Z"/></g>
<g><path style="opacity:0.97" fill="#ce1b21" d="M 610.5,166.5 C 616.438,170.603 621.605,175.603 626,181.5C 657.4,225.545 663.4,272.879 644,323.5C 636.451,341.041 625.784,356.375 612,369.5C 602.652,360.319 593.486,350.986 584.5,341.5C 616.277,308.037 623.777,269.704 607,226.5C 601.045,214.554 593.545,203.721 584.5,194C 592.993,184.674 601.659,175.507 610.5,166.5 Z"/></g>
<g><path style="opacity:0.982" fill="#ce1b21" d="M 433.5,175.5 C 449.638,174.902 465.638,176.069 481.5,179C 524.661,192.671 547.328,222.171 549.5,267.5C 549.049,293.224 539.716,315.057 521.5,333C 517.782,335.298 513.782,335.965 509.5,335C 502.555,331.518 495.221,329.352 487.5,328.5C 479.161,329.003 473.994,333.336 472,341.5C 470.891,349.457 470.224,357.457 470,365.5C 466.817,367.523 463.317,368.023 459.5,367C 458.272,364.428 456.605,362.262 454.5,360.5C 452.395,362.262 450.728,364.428 449.5,367C 446.5,367.667 443.5,367.667 440.5,367C 439.056,365.237 438.056,363.237 437.5,361C 436.207,360.51 434.873,360.343 433.5,360.5C 433.915,363.368 432.915,365.535 430.5,367C 426.683,368.023 423.183,367.523 420,365.5C 420.356,354.802 418.689,344.469 415,334.5C 410.591,329.475 405.091,327.642 398.5,329C 390.936,331.037 383.436,333.204 376,335.5C 373.747,335.369 371.581,334.869 369.5,334C 345.32,310.457 336.154,281.957 342,248.5C 349.486,215.345 369.319,193.178 401.5,182C 412.071,178.632 422.737,176.466 433.5,175.5 Z M 384.5,252.5 C 399.056,251.186 411.889,255.186 423,264.5C 427.582,269.155 428.582,274.488 426,280.5C 420.905,285.479 414.739,287.812 407.5,287.5C 393.505,287.238 382.005,281.905 373,271.5C 369.39,266.389 369.89,261.722 374.5,257.5C 377.657,255.255 380.991,253.588 384.5,252.5 Z M 491.5,252.5 C 500.009,251.508 508.009,253.008 515.5,257C 520.601,262.85 520.434,268.683 515,274.5C 500.49,287.51 484.323,290.344 466.5,283C 461.784,278.308 461.284,273.141 465,267.5C 472.218,259.479 481.051,254.479 491.5,252.5 Z M 443.5,296.5 C 447.147,296.622 449.981,298.288 452,301.5C 454.26,305.516 456.093,309.683 457.5,314C 456.833,315.333 456.167,316.667 455.5,318C 448.253,318.812 441.086,318.646 434,317.5C 433.387,308.73 436.554,301.73 443.5,296.5 Z"/></g>
<g><path style="opacity:0.964" fill="#f9a219" d="M 1139.5,259.5 C 1148.5,259.5 1157.5,259.5 1166.5,259.5C 1166.5,268.5 1166.5,277.5 1166.5,286.5C 1157.5,286.5 1148.5,286.5 1139.5,286.5C 1139.5,277.5 1139.5,268.5 1139.5,259.5 Z"/></g>
<g><path style="opacity:0.978" fill="#f9a219" d="M 1671.5,387.5 C 1671.5,396.5 1671.5,405.5 1671.5,414.5C 1662.16,414.666 1652.83,414.5 1643.5,414C 1631.67,411.848 1624.17,405.014 1621,393.5C 1620.5,348.835 1620.33,304.168 1620.5,259.5C 1629.5,259.5 1638.5,259.5 1647.5,259.5C 1647.33,301.835 1647.5,344.168 1648,386.5C 1655.75,387.482 1663.58,387.815 1671.5,387.5 Z"/></g>
<g><path style="opacity:0.976" fill="#f9a219" d="M 1017.5,297.5 C 1042.84,297.333 1068.17,297.5 1093.5,298C 1109.11,303.133 1116.11,313.966 1114.5,330.5C 1105.5,330.5 1096.5,330.5 1087.5,330.5C 1087.74,328.533 1087.41,326.699 1086.5,325C 1065.83,324.333 1045.17,324.333 1024.5,325C 1023.36,330.416 1023.19,335.916 1024,341.5C 1047.43,342.328 1070.93,342.828 1094.5,343C 1110.44,349.197 1117.11,360.864 1114.5,378C 1117.1,396.853 1109.43,408.853 1091.5,414C 1066.12,414.962 1040.78,414.629 1015.5,413C 1001.09,407.05 994.755,396.216 996.5,380.5C 1005.5,380.5 1014.5,380.5 1023.5,380.5C 1023.24,382.792 1023.58,384.959 1024.5,387C 1045.17,387.667 1065.83,387.667 1086.5,387C 1087.64,381.584 1087.81,376.084 1087,370.5C 1064.24,369.672 1041.41,369.172 1018.5,369C 1007.08,366.576 999.91,359.743 997,348.5C 996.333,338.167 996.333,327.833 997,317.5C 1000.44,307.221 1007.28,300.554 1017.5,297.5 Z"/></g>
<g><path style="opacity:0.966" fill="#f9a219" d="M 1139.5,297.5 C 1148.5,297.5 1157.5,297.5 1166.5,297.5C 1166.5,336.5 1166.5,375.5 1166.5,414.5C 1157.5,414.5 1148.5,414.5 1139.5,414.5C 1139.5,375.5 1139.5,336.5 1139.5,297.5 Z"/></g>
<g><path style="opacity:0.97" fill="#f9a219" d="M 1211.5,297.5 C 1236.5,297.333 1261.5,297.5 1286.5,298C 1298.55,301.386 1305.72,309.219 1308,321.5C 1308.67,359.833 1308.67,398.167 1308,436.5C 1306.2,447.602 1300.03,455.102 1289.5,459C 1262.54,460.456 1235.54,460.956 1208.5,460.5C 1208.5,451.167 1208.5,441.833 1208.5,432.5C 1232.5,432.667 1256.5,432.5 1280.5,432C 1281.47,426.259 1281.81,420.425 1281.5,414.5C 1258.5,414.667 1235.5,414.5 1212.5,414C 1200.78,411.277 1193.28,404.11 1190,392.5C 1189.33,368.167 1189.33,343.833 1190,319.5C 1193.35,308.318 1200.52,300.984 1211.5,297.5 Z M 1217.5,324.5 C 1238.5,324.333 1259.5,324.5 1280.5,325C 1281.66,345.094 1281.83,365.26 1281,385.5C 1280.5,386 1280,386.5 1279.5,387C 1258.83,387.667 1238.17,387.667 1217.5,387C 1216.17,366.167 1216.17,345.333 1217.5,324.5 Z"/></g>
<g><path style="opacity:0.978" fill="#f9a219" d="M 1334.5,297.5 C 1366.84,297.333 1399.17,297.5 1431.5,298C 1442.34,300.842 1449.18,307.675 1452,318.5C 1452.5,350.498 1452.67,382.498 1452.5,414.5C 1443.5,414.5 1434.5,414.5 1425.5,414.5C 1425.67,384.831 1425.5,355.165 1425,325.5C 1414.57,324.839 1404.07,324.506 1393.5,324.5C 1382.93,324.506 1372.43,324.839 1362,325.5C 1361.5,355.165 1361.33,384.831 1361.5,414.5C 1352.5,414.5 1343.5,414.5 1334.5,414.5C 1334.5,375.5 1334.5,336.5 1334.5,297.5 Z"/></g>
<g><path style="opacity:0.975" fill="#f9a219" d="M 1478.5,297.5 C 1510.84,297.333 1543.17,297.5 1575.5,298C 1587.98,301.479 1595.14,309.646 1597,322.5C 1597.5,353.165 1597.67,383.832 1597.5,414.5C 1565.5,414.667 1533.5,414.5 1501.5,414C 1489.77,411.268 1482.27,404.101 1479,392.5C 1478.5,375.837 1478.33,359.17 1478.5,342.5C 1508.83,342.5 1539.17,342.5 1569.5,342.5C 1569.81,336.575 1569.47,330.741 1568.5,325C 1538.5,324.5 1508.5,324.333 1478.5,324.5C 1478.5,315.5 1478.5,306.5 1478.5,297.5 Z M 1505.5,369.5 C 1526.83,369.5 1548.17,369.5 1569.5,369.5C 1569.5,375.5 1569.5,381.5 1569.5,387.5C 1548.5,387.667 1527.5,387.5 1506.5,387C 1505.53,381.259 1505.19,375.425 1505.5,369.5 Z"/></g>
</svg>
