<svg width="630" height="192" viewBox="0 0 630 192" fill="none" xmlns="http://www.w3.org/2000/svg">
<path opacity="0.944" fill-rule="evenodd" clip-rule="evenodd" d="M113.357 6.375C113.273 6.918 113.022 7.37635 112.606 7.75C112.648 7.875 112.689 8 112.731 8.125C112.982 7.875 113.232 7.625 113.483 7.375C113.525 7.91777 113.316 8.3761 112.856 8.75C112.94 8.875 113.023 9 113.107 9.125C113.345 8.9186 113.596 8.87695 113.858 9C113.564 9.77757 113.69 9.81925 114.234 9.125C114.311 9.44147 114.437 9.73315 114.61 10C114.461 10.1161 114.294 10.1577 114.109 10.125C112.188 10.125 110.268 10.125 108.347 10.125C108.375 9.97065 108.458 9.84565 108.598 9.75C108.257 9.35392 108.089 8.8956 108.096 8.375C107.685 8.32162 107.309 8.40495 106.969 8.625C106.802 8.375 106.802 8.125 106.969 7.875C107.053 7.95832 107.136 8.04167 107.22 8.125C107.487 7.95237 107.779 7.82737 108.096 7.75C107.815 7.6877 107.564 7.5627 107.345 7.375C107.552 7.13725 107.593 6.88725 107.47 6.625C107.239 6.9397 107.03 7.27302 106.844 7.625C106.656 7.406 106.531 7.156 106.468 6.875C105.905 8.12737 105.446 8.04402 105.09 6.625C106.069 6.69835 107.071 6.53167 108.096 6.125C108.882 6.28102 109.675 6.1977 110.476 5.875C111.426 6.06862 112.386 6.2353 113.357 6.375Z" fill="#F3006D"/>
<path opacity="0.932" fill-rule="evenodd" clip-rule="evenodd" d="M122.125 7.87501C122.63 8.59069 123.131 9.17404 123.629 9.62501C122.964 10.7974 123.089 10.8807 124.004 9.87501C124.159 10.1123 124.117 10.3206 123.879 10.5C124.189 10.4807 124.44 10.5224 124.631 10.625C124.376 10.9631 124.042 11.2131 123.629 11.375C123.862 11.7462 123.779 12.0795 123.378 12.375C121.439 11.7598 119.56 11.1764 117.741 10.625C117.638 10.7394 117.513 10.8227 117.366 10.875C116.244 10.6487 115.158 10.3987 114.109 10.125C114.294 10.1578 114.461 10.1161 114.61 10C114.437 9.73316 114.312 9.44149 114.234 9.12501C113.69 9.81926 113.565 9.77759 113.859 9.00001C113.596 8.87696 113.345 8.91861 113.107 9.12501C113.024 9.00001 112.94 8.87501 112.856 8.75001C113.316 8.37611 113.525 7.91779 113.483 7.37501C113.232 7.62501 112.982 7.87501 112.731 8.12501C112.689 8.00001 112.648 7.87501 112.606 7.75001C113.023 7.37636 113.273 6.91801 113.357 6.37501C114.225 6.36051 115.102 6.36051 115.988 6.37501C116.907 6.62501 117.825 6.87501 118.744 7.12501C119.659 6.95144 120.536 7.11811 121.374 7.62501C121.73 7.30581 121.981 7.38914 122.125 7.87501Z" fill="#F60066"/>
<path opacity="0.912" fill-rule="evenodd" clip-rule="evenodd" d="M122.125 7.875C123.892 8.23645 125.52 8.9031 127.01 9.875C127.094 9.79167 127.178 9.70833 127.261 9.625C128.01 10.0998 128.719 10.5998 129.39 11.125C129.145 11.2027 128.978 11.3694 128.889 11.625C129.169 12.2785 129.587 12.8201 130.142 13.25C129.808 13.5833 129.808 13.9167 130.142 14.25C130.04 14.4864 129.873 14.653 129.641 14.75C130.032 14.9852 130.366 15.2769 130.643 15.625C130.528 15.8244 130.361 15.9077 130.142 15.875C129.437 15.4809 128.77 15.0226 128.138 14.5C127.9 14.3457 127.691 14.3874 127.512 14.625C126.168 13.7459 124.79 12.9959 123.378 12.375C123.779 12.0795 123.862 11.7462 123.629 11.375C124.042 11.2131 124.376 10.9631 124.631 10.625C124.44 10.5224 124.189 10.4807 123.879 10.5C124.117 10.3206 124.159 10.1123 124.004 9.875C123.089 10.8807 122.964 10.7973 123.629 9.625C123.131 9.17403 122.63 8.59067 122.125 7.875Z" fill="#F60061"/>
<path opacity="0.969" fill-rule="evenodd" clip-rule="evenodd" d="M105.09 6.625C105.446 8.04403 105.905 8.12738 106.468 6.875C106.53 7.156 106.656 7.406 106.844 7.625C107.03 7.27303 107.239 6.9397 107.47 6.625C107.593 6.88725 107.552 7.13725 107.345 7.375C107.564 7.5627 107.815 7.6877 108.096 7.75C107.779 7.82738 107.487 7.95238 107.22 8.125C107.136 8.04168 107.052 7.95833 106.969 7.875C106.802 8.125 106.802 8.375 106.969 8.625C107.309 8.40495 107.685 8.32163 108.096 8.375C108.089 8.8956 108.256 9.35393 108.597 9.75C108.458 9.84565 108.375 9.97065 108.347 10.125C104.746 10.3362 101.364 11.3362 98.2011 13.125C98.1051 12.986 97.9799 12.9027 97.8253 12.875C97.5748 12.875 97.3243 12.875 97.0738 12.875C97.1637 12.3085 96.9966 11.8502 96.5728 11.5C97.0086 10.9631 97.0921 10.4214 96.8233 9.875C99.3945 8.32863 102.15 7.24528 105.09 6.625Z" fill="#F30074"/>
<path opacity="0.913" fill-rule="evenodd" clip-rule="evenodd" d="M96.8236 9.875C97.0924 10.4214 97.009 10.9631 96.5731 11.5C96.997 11.8502 97.1641 12.3085 97.0741 12.875C97.3246 12.875 97.5751 12.875 97.8257 12.875C96.4133 13.8102 95.1189 14.8935 93.9427 16.125C93.8593 16.0417 93.7756 15.9583 93.6922 15.875C92.7635 16.9088 91.8033 17.9088 90.8113 18.875C90.6442 18.875 90.4774 18.875 90.3103 18.875C89.2827 18.4334 88.6145 17.6834 88.3062 16.625C90.0144 15.0612 91.7264 13.4779 93.4417 11.875C93.5251 11.9583 93.6088 12.0417 93.6922 12.125C94.6183 11.2305 95.6622 10.4805 96.8236 9.875Z" fill="#F2027A"/>
<path opacity="0.759" fill-rule="evenodd" clip-rule="evenodd" d="M76.0308 10.125C76.7893 10.2412 77.4993 10.4912 78.1602 10.875C78.2436 10.7917 78.3272 10.7083 78.4107 10.625C79.6542 11.1819 80.9486 11.8069 82.2936 12.5C84.2614 13.9392 86.2655 15.3142 88.3059 16.625C88.6143 17.6834 89.2824 18.4334 90.31 18.875C89.9423 19.1948 89.7752 19.6114 89.809 20.125C89.7256 20.125 89.6419 20.125 89.5585 20.125C89.5585 19.7917 89.5585 19.4583 89.5585 19.125C88.813 18.7183 88.0614 18.3016 87.3039 17.875C83.9172 15.2186 80.41 13.3019 76.7823 12.125C76.5073 11.9007 76.5073 11.6924 76.7823 11.5C76.4484 11.3333 76.1142 11.1667 75.7803 11C76.2495 10.7618 76.3329 10.4701 76.0308 10.125Z" fill="#FE6573"/>
<path opacity="0.839" fill-rule="evenodd" clip-rule="evenodd" d="M76.0309 10.125C76.333 10.4701 76.2496 10.7618 75.7804 11C76.1143 11.1667 76.4485 11.3334 76.7825 11.5C76.5074 11.6925 76.5074 11.9008 76.7825 12.125C75.4066 11.8294 74.0288 11.5794 72.649 11.375C71.9844 11.7531 71.3165 11.8364 70.6449 11.625C69.5261 11.7689 68.4404 12.0189 67.3882 12.375C67.3048 12.2917 67.2211 12.2084 67.1377 12.125C65.4284 12.9385 63.6333 13.6051 61.7517 14.125C61.4906 13.8023 61.1985 13.8023 60.8749 14.125C60.4092 13.8553 60.0334 13.5219 59.7476 13.125C60.6527 12.6734 61.571 12.2151 62.5032 11.75C64.4011 11.1187 66.2799 10.4937 68.1398 9.87505C68.5268 9.8416 68.9444 9.92492 69.3923 10.125C70.9623 9.63592 72.4654 9.46927 73.9016 9.62505C74.6386 9.94787 75.3483 10.1145 76.0309 10.125Z" fill="#FF6B7D"/>
<path opacity="0.915" fill-rule="evenodd" clip-rule="evenodd" d="M142.918 33.375C142.918 33.5417 142.834 33.625 142.667 33.625C141.967 33.8102 141.257 33.9767 140.538 34.125C140.27 34.118 140.061 34.0347 139.912 33.875C139.819 33.2822 139.819 32.6572 139.912 32C139.357 31.6523 139.357 31.2358 139.912 30.75C139.709 30.673 139.542 30.548 139.411 30.375C140.017 29.9285 140.017 29.512 139.411 29.125C139.663 28.493 139.496 27.9513 138.91 27.5C138.946 27.307 139.029 27.1402 139.16 27C138.338 25.4847 137.545 23.9431 136.78 22.375C134.988 19.9254 132.776 17.7587 130.142 15.875C130.361 15.9077 130.528 15.8244 130.643 15.625C130.366 15.2769 130.032 14.9852 129.641 14.75C129.873 14.653 130.04 14.4864 130.142 14.25C129.808 13.9167 129.808 13.5833 130.142 13.25C129.587 12.8202 129.169 12.2785 128.889 11.625C128.978 11.3694 129.145 11.2027 129.39 11.125C129.545 11.0973 129.67 11.014 129.766 10.875C131.394 12 133.023 13.125 134.651 14.25C134.89 14.988 135.475 15.5297 136.405 15.875C136.959 17.0712 137.836 18.1545 139.035 19.125C140.266 21.4075 141.31 23.6575 142.166 25.875C141.921 26.2002 142.005 26.492 142.417 26.75C142.352 27.0653 142.185 27.3153 141.916 27.5C142.543 27.8873 142.543 28.304 141.916 28.75C142.055 29.3092 142.306 29.8092 142.667 30.25C142.584 30.6667 142.5 31.0833 142.417 31.5C142.632 31.6723 142.798 31.8805 142.918 32.125C142.588 32.5497 142.588 32.9662 142.918 33.375Z" fill="#F6005C"/>
<path opacity="0.934" fill-rule="evenodd" clip-rule="evenodd" d="M87.3038 17.875C88.0614 18.3016 88.8129 18.7183 89.5585 19.125C89.5585 19.4583 89.5585 19.7917 89.5585 20.125C89.2526 20.2571 88.9605 20.4237 88.6817 20.625C87.8475 21.5957 87.0543 22.5957 86.3018 23.625C84.4943 25.1825 82.8242 26.891 81.2915 28.75C80.1437 29.6925 78.9748 30.5675 77.7843 31.375C77.5075 30.9618 77.4659 30.545 77.6591 30.125C77.2352 30.7055 76.7758 30.8305 76.2812 30.5C76.9937 30.2732 77.3695 29.8147 77.4086 29.125C76.6182 29.7933 76.3258 29.6267 76.5318 28.625C76.7051 28.7563 76.8304 28.923 76.9075 29.125C76.9494 28.9583 76.991 28.7917 77.0328 28.625C76.8512 28.2832 76.6841 27.95 76.5318 27.625C77.9755 26.694 79.3115 25.7772 80.54 24.875C82.7114 22.458 84.966 20.1247 87.3038 17.875Z" fill="#F20184"/>
<path opacity="0.866" fill-rule="evenodd" clip-rule="evenodd" d="M59.7477 13.125C60.0335 13.5219 60.4093 13.8552 60.875 14.125C61.1986 13.8022 61.4907 13.8022 61.7518 14.125C59.6219 15.1281 57.6594 16.3781 55.8647 17.875C55.7813 17.7917 55.6976 17.7083 55.6142 17.625C54.4185 18.8339 53.1659 20.0005 51.8565 21.125C50.6601 23.0688 49.3656 24.9438 47.9735 26.75C48.088 26.8535 48.1717 26.9785 48.2241 27.125C47.8002 27.5898 47.4244 28.0898 47.0967 28.625C46.6781 29.7008 46.3024 30.7008 45.9694 31.625C45.5518 31.875 45.2179 32.2083 44.9674 32.625C44.8128 32.6528 44.6876 32.736 44.5916 32.875C44.5611 32.3908 44.3524 32.0575 43.9653 31.875C44.0222 30.9638 44.398 30.2138 45.0926 29.625C45.2339 28.7183 45.6097 27.9268 46.22 27.25C46.1365 27.1668 46.0529 27.0833 45.9694 27C47.1446 24.633 48.6061 22.3414 50.3534 20.125C53.0818 17.2805 56.2132 14.9472 59.7477 13.125Z" fill="#FF6F89"/>
<path opacity="0.839" fill-rule="evenodd" clip-rule="evenodd" d="M90.31 18.875C90.4771 18.875 90.6439 18.875 90.811 18.875C90.8819 19.054 90.9653 19.2623 91.0615 19.5C91.9223 19.9861 92.632 20.6111 93.1909 21.375C93.6501 21.6667 94.1095 21.9583 94.5687 22.25C95.3896 23.1642 96.2249 24.0809 97.0738 25C99.3723 26.5217 101.627 28.1052 103.838 29.75C104.075 29.9042 104.284 29.8627 104.464 29.625C105.682 30.4475 106.934 31.1975 108.222 31.875C108.305 31.7917 108.389 31.7082 108.472 31.625C109.427 32.1435 110.387 32.6435 111.353 33.125C111.063 33.5507 111.23 33.7172 111.854 33.625C111.812 33.9555 111.895 34.2472 112.105 34.5C111.695 34.6235 111.278 34.665 110.852 34.625C109.732 34.4175 108.688 34.001 107.721 33.375C107.637 33.4582 107.554 33.5417 107.47 33.625C106.109 32.9597 104.814 32.168 103.587 31.25C103.059 31.16 102.558 30.9932 102.084 30.75C99.7133 29.173 97.4586 27.4647 95.3203 25.625C95.1321 25.406 95.0069 25.156 94.9445 24.875C93.0767 23.4287 91.3646 21.8454 89.809 20.125C89.7751 19.6114 89.9422 19.1948 90.31 18.875Z" fill="#FF6268"/>
<path opacity="0.922" fill-rule="evenodd" clip-rule="evenodd" d="M76.532 27.625C76.6843 27.95 76.8514 28.2833 77.033 28.625C76.9911 28.7918 76.9496 28.9583 76.9077 29.125C76.8306 28.923 76.7053 28.7563 76.532 28.625C76.326 29.6268 76.6184 29.7933 77.4087 29.125C77.3697 29.8148 76.9939 30.2733 76.2814 30.5C76.776 30.8305 77.2354 30.7055 77.6593 30.125C77.4661 30.545 77.5077 30.9618 77.7845 31.375C75.1158 32.7428 72.3602 33.6593 69.5176 34.125C69.7613 33.675 70.0118 33.2165 70.2691 32.75C70.1857 32.6668 70.102 32.5833 70.0186 32.5C70.6136 31.94 71.2817 31.4815 72.0227 31.125C71.8428 30.9658 71.5923 30.9658 71.2712 31.125C70.8553 31.4468 70.438 31.78 70.0186 32.125C69.7045 31.6853 69.7879 31.3103 70.2691 31C70.6559 30.9275 70.9898 30.761 71.2712 30.5C71.1031 30.2535 71.1031 29.9618 71.2712 29.625C73.1044 29.1688 74.858 28.502 76.532 27.625Z" fill="#F1008C"/>
<path opacity="0.938" fill-rule="evenodd" clip-rule="evenodd" d="M71.2709 29.625C71.1028 29.9618 71.1028 30.2535 71.2709 30.5C70.9896 30.761 70.6557 30.9275 70.2689 31C69.7876 31.3103 69.7042 31.6853 70.0184 32.125C70.4377 31.78 70.8551 31.4467 71.2709 31.125C71.5921 30.9657 71.8426 30.9657 72.0225 31.125C71.2814 31.4815 70.6133 31.94 70.0184 32.5C70.1018 32.5833 70.1854 32.6667 70.2689 32.75C70.0116 33.2165 69.7611 33.675 69.5173 34.125C67.1728 34.7438 64.8345 35.1605 62.503 35.375C62.3932 35.3913 62.3096 35.3498 62.2524 35.25C62.7535 35.0833 63.0874 34.75 63.2545 34.25C63.017 34.1293 62.7665 34.0877 62.503 34.125C62.4832 33.7675 62.5666 33.434 62.7535 33.125C62.5864 32.7917 62.4195 32.4583 62.2524 32.125C62.5112 31.887 62.8036 31.887 63.1292 32.125C63.3873 32.041 63.5125 31.8742 63.505 31.625C66.0663 30.9232 68.6551 30.2567 71.2709 29.625Z" fill="#F10092"/>
<path opacity="0.896" fill-rule="evenodd" clip-rule="evenodd" d="M63.5051 31.625C63.5126 31.8742 63.3874 32.041 63.1294 32.125C62.8037 31.887 62.5113 31.887 62.2526 32.125C62.4197 32.4582 62.5865 32.7917 62.7536 33.125C62.5667 33.434 62.4833 33.7675 62.5031 34.125C62.7666 34.0877 63.0171 34.1292 63.2546 34.25C63.0875 34.75 62.7536 35.0832 62.2526 35.25C62.3097 35.3497 62.3933 35.3912 62.5031 35.375C61.0328 35.5512 59.5297 35.7177 57.9938 35.875C56.3001 35.6005 54.6302 35.4337 52.9836 35.375C52.7098 34.8582 52.835 34.6915 53.3593 34.875C53.5264 34.5417 53.5264 34.2082 53.3593 33.875C53.0705 34.3742 52.6947 34.4575 52.232 34.125C52.566 33.7082 52.9001 33.2917 53.2341 32.875C53.0402 32.5722 52.8315 32.5722 52.6078 32.875C52.4407 32.7082 52.2739 32.5417 52.1068 32.375C51.7891 32.404 51.4549 32.4872 51.1047 32.625C50.987 32.3557 51.0288 32.1057 51.23 31.875C53.8949 31.962 56.5253 32.0452 59.1211 32.125C60.5581 31.7525 62.0193 31.5857 63.5051 31.625Z" fill="#F00098"/>
<path opacity="0.939" fill-rule="evenodd" clip-rule="evenodd" d="M43.9653 31.875C43.8342 32.7225 43.6253 33.5558 43.339 34.375C43.0895 34.915 42.7137 35.3318 42.2117 35.625C41.0475 35.886 39.795 36.0528 38.454 36.125C37.9612 36.0653 37.5018 36.1485 37.0761 36.375C36.8279 36.0153 36.4939 35.7653 36.0741 35.625C35.9531 35.862 35.9115 36.112 35.9488 36.375C36.2124 36.3378 36.4629 36.3793 36.7004 36.5C36.1655 36.6588 35.6645 36.5753 35.1973 36.25C35.5663 36.0725 35.7334 35.781 35.6983 35.375C35.4348 35.4123 35.1843 35.3708 34.9468 35.25C35.3706 34.8998 35.5377 34.4415 35.4478 33.875C35.8654 33.875 36.2828 33.875 36.7004 33.875C36.5435 34.7988 36.7941 35.0073 37.4519 34.5C37.1946 34.0335 36.9441 33.575 36.7004 33.125C38.9475 32.2645 41.3689 31.8478 43.9653 31.875Z" fill="#EF04A5"/>
<path opacity="0.945" fill-rule="evenodd" clip-rule="evenodd" d="M45.9694 31.625C47.6599 31.7217 49.4135 31.805 51.2302 31.875C51.029 32.1057 50.9872 32.3557 51.1049 32.625C51.4552 32.4872 51.7893 32.404 52.107 32.375C52.2741 32.5418 52.4409 32.7083 52.608 32.875C52.8317 32.5723 53.0404 32.5723 53.2343 32.875C52.9004 33.2917 52.5662 33.7083 52.2322 34.125C52.6949 34.4575 53.0707 34.3742 53.3596 33.875C53.5266 34.2083 53.5266 34.5417 53.3596 34.875C52.8352 34.6915 52.71 34.8583 52.9838 35.375C50.1708 35.08 47.3317 35.08 44.4663 35.375C44.3063 35.2257 44.2228 35.0175 44.2158 34.75C44.433 34.026 44.6835 33.3177 44.9674 32.625C45.2179 32.2082 45.5518 31.875 45.9694 31.625Z" fill="#F0029F"/>
<path opacity="0.907" fill-rule="evenodd" clip-rule="evenodd" d="M36.7 33.125C36.9438 33.575 37.1943 34.0335 37.4516 34.5C36.7937 35.0073 36.5432 34.7987 36.7 33.875C36.2824 33.875 35.8651 33.875 35.4475 33.875C35.5374 34.4415 35.3703 34.8997 34.9464 35.25C35.1839 35.3707 35.4344 35.4123 35.698 35.375C35.733 35.781 35.5659 36.0725 35.1969 36.25C35.6641 36.5752 36.1652 36.6588 36.7 36.5C36.4625 36.3793 36.212 36.3377 35.9485 36.375C35.9112 36.112 35.9527 35.862 36.0737 35.625C36.4936 35.7652 36.8275 36.0152 37.0758 36.375C37.5014 36.1485 37.9609 36.0652 38.4536 36.125C36.1759 37.22 33.9213 38.3868 31.6898 39.625C31.1058 39.4528 30.6048 39.661 30.1867 40.25C29.7691 40.4167 29.3517 40.4167 28.9341 40.25C29.268 39.8333 29.6022 39.4167 29.9362 39C29.6598 38.58 29.7433 38.205 30.1867 37.875C29.97 37.6042 29.7195 37.5627 29.4351 37.75C29.5186 37.8333 29.6022 37.9167 29.6856 38C29.4482 38.1207 29.1976 38.1623 28.9341 38.125C28.9935 37.8022 28.9101 37.5522 28.6836 37.375C30.9868 35.3085 33.659 33.8917 36.7 33.125Z" fill="#EF00AC"/>
<path opacity="0.847" fill-rule="evenodd" clip-rule="evenodd" d="M157.698 33.375C157.698 34.0417 157.698 34.7082 157.698 35.375C156.593 34.9507 155.382 34.6175 154.066 34.375C153.982 34.4582 153.899 34.5417 153.815 34.625C151.347 34.093 148.8 34.093 146.175 34.625C145.939 34.598 145.73 34.5147 145.548 34.375C144.775 34.608 143.982 34.7747 143.168 34.875C143.085 34.875 143.001 34.875 142.918 34.875C142.717 34.4895 142.634 34.073 142.667 33.625C142.834 33.625 142.918 33.5417 142.918 33.375C147.99 32.5062 152.917 32.5062 157.698 33.375Z" fill="#FF564A"/>
<path opacity="0.714" fill-rule="evenodd" clip-rule="evenodd" d="M142.667 33.625C142.634 34.073 142.717 34.4895 142.918 34.875C142.076 34.904 141.241 34.9872 140.413 35.125C140.472 35.4477 140.389 35.6977 140.162 35.875C140.091 35.6777 139.966 35.511 139.787 35.375C138.845 35.6225 137.884 35.8307 136.906 36C135.381 37.1735 133.628 37.7985 131.645 37.875C131.971 37.0375 131.804 36.954 131.144 37.625C130.97 37.4937 130.845 37.327 130.768 37.125C130.42 37.3885 130.045 37.43 129.641 37.25C129.843 37.173 130.01 37.048 130.142 36.875C129.948 36.5722 129.739 36.5722 129.515 36.875C129.399 36.7265 129.357 36.5597 129.39 36.375C129.908 36.3665 130.451 36.3665 131.019 36.375C131.937 36.125 132.856 35.875 133.774 35.625C134.192 35.7082 134.609 35.7917 135.027 35.875C136.485 34.7947 138.113 34.128 139.912 33.875C140.061 34.0347 140.27 34.118 140.538 34.125C141.257 33.9767 141.967 33.8102 142.667 33.625Z" fill="#FE5753"/>
<path opacity="0.929" fill-rule="evenodd" clip-rule="evenodd" d="M142.918 34.875C143.001 34.875 143.085 34.875 143.168 34.875C143.185 35.9907 143.185 37.199 143.168 38.5C143.612 39.483 143.695 40.483 143.419 41.5C143.756 42.081 143.839 42.6645 143.669 43.25C143.958 45.976 144.542 48.6427 145.423 51.25C146.014 52.7628 146.932 54.1793 148.179 55.5C148.095 55.5833 148.011 55.6667 147.928 55.75C148.262 56.2523 148.68 56.669 149.181 57C149.097 57.0833 149.013 57.1667 148.93 57.25C150.44 58.9923 152.027 60.6173 153.69 62.125C153.465 62.3995 153.256 62.3995 153.064 62.125C152.604 62.5175 152.645 62.8925 153.189 63.25C153.13 63.4683 153.046 63.6768 152.938 63.875C153.215 63.9995 153.465 64.0828 153.69 64.125C153.552 64.5007 153.552 64.9172 153.69 65.375C153.26 65.4072 152.842 65.4905 152.437 65.625C151.287 65.1003 150.327 64.3503 149.556 63.375C148.435 62.2335 147.266 61.1502 146.049 60.125C144.76 58.3855 143.633 56.594 142.667 54.75C142.751 54.6667 142.834 54.5833 142.918 54.5C142.535 54.1028 142.243 53.6443 142.041 53.125C141.827 51.7353 141.534 50.4438 141.164 49.25C141.016 48.3612 141.016 47.4447 141.164 46.5C140.962 46.423 140.795 46.298 140.663 46.125C140.652 43.316 140.652 40.5243 140.663 37.75C140.431 37.653 140.264 37.4862 140.162 37.25C140.193 36.7652 140.193 36.307 140.162 35.875C140.389 35.6977 140.472 35.4477 140.413 35.125C141.241 34.9873 142.076 34.904 142.918 34.875Z" fill="#F6005B"/>
<path opacity="0.754" fill-rule="evenodd" clip-rule="evenodd" d="M129.39 36.375C129.357 36.5598 129.399 36.7265 129.515 36.875C129.739 36.5722 129.948 36.5722 130.142 36.875C130.01 37.048 129.843 37.173 129.641 37.25C130.044 37.43 130.42 37.3885 130.768 37.125C130.845 37.327 130.97 37.4938 131.144 37.625C131.804 36.954 131.971 37.0375 131.645 37.875C126.795 38.6115 122.119 38.2782 117.616 36.875C117.469 36.9272 117.344 37.0107 117.24 37.125C116.459 36.679 115.624 36.3458 114.735 36.125C114.652 36.2083 114.568 36.2917 114.484 36.375C113.229 35.8105 112.018 35.2273 110.852 34.625C111.278 34.665 111.695 34.6235 112.105 34.5C111.895 34.2472 111.812 33.9555 111.854 33.625C111.23 33.7172 111.062 33.5508 111.353 33.125C111.337 33.0155 111.378 32.932 111.478 32.875C112.225 33.3838 113.018 33.8005 113.858 34.125C114.005 34.0727 114.13 33.9892 114.234 33.875C115.015 34.321 115.85 34.6543 116.739 34.875C116.843 34.7608 116.968 34.6773 117.115 34.625C118.818 35.1918 120.529 35.6918 122.25 36.125C123.252 36.4583 124.255 36.4583 125.257 36.125C125.674 36.2917 126.092 36.4583 126.509 36.625C127.416 36.561 128.377 36.4775 129.39 36.375Z" fill="#FF5D5C"/>
<path opacity="0.804" fill-rule="evenodd" clip-rule="evenodd" d="M157.698 33.375C159.44 33.9013 161.109 34.6095 162.709 35.5C163.714 36.5057 164.8 37.4222 165.965 38.25C167.107 39.4887 168.276 40.697 169.472 41.875C171.103 44.6397 172.523 47.3065 173.731 49.875C174.579 52.5618 174.997 55.2285 174.984 57.875C174.84 58.2647 174.673 58.6397 174.483 59C174.655 59.558 174.738 60.0995 174.733 60.625C174.225 61.461 174.058 62.336 174.232 63.25C173.815 64.1667 173.397 65.0833 172.98 66C173.028 66.4757 173.028 66.9342 172.98 67.375C172.729 67.7082 172.479 68.0418 172.228 68.375C172.28 68.5215 172.364 68.6465 172.479 68.75C171.997 69.115 171.83 69.5317 171.978 70C171.776 70.2783 171.609 70.5698 171.476 70.875C171.227 70.8535 171.018 70.937 170.85 71.125C170.53 72.0423 170.237 72.959 169.973 73.875C170.05 74.0375 170.133 74.2043 170.224 74.375C169.516 75.2108 169.015 76.044 168.721 76.875C168.555 76.3825 168.388 75.8825 168.22 75.375C168.64 75.068 168.723 74.7347 168.47 74.375C168.767 74.078 168.767 73.7863 168.47 73.5C168.691 73.323 168.858 73.1145 168.971 72.875C169.542 72.0518 169.875 71.135 169.973 70.125C170.456 68.5052 171.124 66.797 171.978 65C171.67 64.6033 171.754 64.2698 172.228 64C171.906 63.6758 171.948 63.384 172.353 63.125C172.425 62.5273 172.55 61.944 172.729 61.375C172.677 61.2285 172.593 61.1035 172.479 61C173.297 59.1325 173.38 57.2575 172.729 55.375C172.86 55.0982 172.943 54.8065 172.98 54.5C171.828 50.0585 169.991 46.0585 167.468 42.5C165.757 40.641 163.92 38.891 161.957 37.25C160.598 36.4887 159.179 35.8637 157.698 35.375C157.698 34.7083 157.698 34.0418 157.698 33.375Z" fill="#FE503E"/>
<path opacity="0.961" fill-rule="evenodd" clip-rule="evenodd" d="M28.6836 37.375C28.9101 37.5522 28.9935 37.8022 28.9342 38.125C29.1977 38.1622 29.4482 38.1207 29.6857 38C29.6023 37.9167 29.5186 37.8332 29.4352 37.75C29.7195 37.5627 29.97 37.6042 30.1867 37.875C29.7433 38.205 29.6599 38.58 29.9362 39C29.6023 39.4167 29.2681 39.8332 28.9342 40.25C29.3518 40.4167 29.7691 40.4167 30.1867 40.25C30.6048 39.661 31.1059 39.4527 31.6898 39.625C31.7113 39.874 31.6277 40.0822 31.4393 40.25C30.4365 40.8972 29.5597 41.689 28.8089 42.625C28.7255 42.5417 28.6418 42.4582 28.5584 42.375C26.1076 45.4217 23.7695 48.5882 21.544 51.875C21.081 52.9647 20.6217 54.048 20.1662 55.125C19.5435 54.8845 19.5435 54.6762 20.1662 54.5C19.8534 54.044 19.5611 54.0857 19.2894 54.625C19.0959 54.2877 18.8036 54.0795 18.4126 54C19.006 53.866 19.5071 53.5742 19.9157 53.125C19.8291 52.826 19.7038 52.826 19.5399 53.125C19.4619 52.8145 19.5872 52.5645 19.9157 52.375C19.8291 52.076 19.7038 52.076 19.5399 52.375C19.4639 51.8897 19.2551 51.4732 18.9136 51.125C19.1993 50.8937 19.1993 50.6852 18.9136 50.5C19.5817 50.3332 19.5817 50.1667 18.9136 50C19.1641 49.5832 19.4147 49.1667 19.6652 48.75C19.5288 48.5707 19.3618 48.4457 19.1641 48.375C20.6679 46.3307 22.1292 44.2475 23.5481 42.125C24.6463 40.8927 25.7737 39.6845 26.9301 38.5C27.4854 38.0692 28.0699 37.6942 28.6836 37.375Z" fill="#ED00B5"/>
<path opacity="0.85" fill-rule="evenodd" clip-rule="evenodd" d="M43.9653 31.875C44.3523 32.0575 44.561 32.3908 44.5916 32.875C44.6875 32.736 44.8128 32.6528 44.9673 32.625C44.6835 33.3178 44.433 34.026 44.2158 34.75C44.2228 35.0175 44.3062 35.2258 44.4663 35.375C43.2741 37.4598 42.2302 39.6265 41.3349 41.875C39.8737 43.9583 38.4122 46.0418 36.9509 48.125C36.6683 48.3155 36.376 48.4823 36.0741 48.625C34.414 50.702 32.7022 52.702 30.9386 54.625C30.9193 54.3125 30.7522 54.1043 30.4376 54C30.989 53.8058 30.989 53.514 30.4376 53.125C30.138 53.2115 30.138 53.3365 30.4376 53.5C30.2001 53.6208 29.9496 53.6623 29.686 53.625C30.0816 52.5648 30.7497 51.7313 31.6901 51.125C32.7824 49.9533 33.7844 48.7033 34.6963 47.375C34.9789 47.1845 35.2712 47.0178 35.5731 46.875C36.8116 44.8893 38.1476 42.9728 39.5813 41.125C40.4929 39.3863 41.3697 37.5528 42.2117 35.625C42.7137 35.3318 43.0895 34.915 43.339 34.375C43.6253 33.5558 43.8343 32.7225 43.9653 31.875Z" fill="#FE7596"/>
<path opacity="0.857" fill-rule="evenodd" clip-rule="evenodd" d="M30.9382 54.625C30.1092 55.4155 29.3993 56.332 28.8088 57.375C28.5583 57.4582 28.3078 57.5417 28.0573 57.625C27.5582 58.6625 26.8483 59.496 25.9279 60.125C24.387 62.4192 22.7169 64.586 20.9176 66.625C20.492 66.665 20.0744 66.6235 19.6651 66.5C19.8622 66.1717 19.7787 65.88 19.4146 65.625C21.1656 63.581 22.794 61.4142 24.2996 59.125C25.3247 58.4152 26.118 57.4985 26.6794 56.375C27.5931 55.712 28.3446 54.8787 28.9341 53.875C29.1407 53.6535 29.3912 53.5702 29.6856 53.625C29.9491 53.6622 30.1997 53.6207 30.4371 53.5C30.1375 53.3365 30.1375 53.2115 30.4371 53.125C30.9885 53.514 30.9885 53.8057 30.4371 54C30.7518 54.1042 30.9189 54.3125 30.9382 54.625Z" fill="#FE799F"/>
<path opacity="0.965" fill-rule="evenodd" clip-rule="evenodd" d="M19.164 48.375C19.3617 48.4458 19.5287 48.5708 19.6651 48.75C19.4146 49.1668 19.164 49.5833 18.9135 50C19.5816 50.1668 19.5816 50.3333 18.9135 50.5C19.1992 50.6853 19.1992 50.8938 18.9135 51.125C19.255 51.4733 19.4638 51.8898 19.5398 52.375C19.7037 52.076 19.829 52.076 19.9156 52.375C19.5871 52.5645 19.4618 52.8145 19.5398 53.125C19.7037 52.826 19.829 52.826 19.9156 53.125C19.507 53.5743 19.0059 53.866 18.4125 54C18.8035 54.0795 19.0958 54.2878 19.2893 54.625C19.561 54.0858 19.8533 54.044 20.1661 54.5C19.5434 54.6763 19.5434 54.8845 20.1661 55.125C19.9121 56.0738 19.411 56.9488 18.663 57.75C18.9012 57.9295 18.9429 58.1378 18.7883 58.375C18.2024 58.785 17.9936 59.285 18.162 59.875C17.9584 60.2035 17.7079 60.4953 17.4104 60.75C17.459 61.2258 17.459 61.6843 17.4104 62.125C17.1599 62.4583 16.9094 62.7918 16.6589 63.125C16.7113 63.2715 16.7948 63.3965 16.9094 63.5C16.4919 64.4168 16.0744 65.3333 15.6569 66.25C15.7714 66.3535 15.8549 66.4785 15.9074 66.625C15.4485 68.5395 15.0309 70.456 14.6548 72.375C14.0717 73.8743 13.4871 75.3743 12.9012 76.875C12.6507 77.0418 12.4002 77.2083 12.1497 77.375C12.2667 76.2743 12.6007 75.2743 13.1517 74.375C13.1291 73.943 13.0457 73.5265 12.9012 73.125C13.4779 72.7503 13.3944 72.417 12.6507 72.125C13.4307 71.7383 13.5559 71.155 13.0265 70.375C11.6071 70.1848 11.5654 69.893 12.9012 69.5C12.7856 69.0695 12.7438 68.6113 12.7759 68.125C12.52 67.9115 12.3112 67.6615 12.1497 67.375C12.4491 67.0083 12.4491 66.6333 12.1497 66.25C12.2146 65.9348 12.3816 65.6848 12.6507 65.5C12.5089 65.2513 12.3419 65.043 12.1497 64.875C13.819 58.9778 16.1571 53.4778 19.164 48.375Z" fill="#ED02BD"/>
<path opacity="0.908" fill-rule="evenodd" clip-rule="evenodd" d="M153.69 62.125C155.395 63.578 157.232 64.828 159.201 65.875C159.092 65.8588 159.008 65.9002 158.951 66C159.285 66.1667 159.535 66.4167 159.702 66.75C159.504 67.4375 159.504 68.1458 159.702 68.875C160.155 68.8727 160.573 68.9977 160.955 69.25C160.725 69.3195 160.559 69.4445 160.454 69.625C158.419 68.88 156.415 68.0883 154.442 67.25C153.71 66.7635 153.042 66.2218 152.438 65.625C152.843 65.4905 153.26 65.4072 153.69 65.375C153.552 64.9172 153.552 64.5008 153.69 64.125C153.465 64.0827 153.215 63.9995 152.939 63.875C153.046 63.6767 153.13 63.4683 153.189 63.25C152.645 62.8925 152.604 62.5175 153.064 62.125C153.257 62.3995 153.465 62.3995 153.69 62.125Z" fill="#F70054"/>
<path opacity="0.897" fill-rule="evenodd" clip-rule="evenodd" d="M159.201 65.875C162.002 66.7165 164.674 67.8415 167.218 69.25C168.186 69.4283 169.105 69.72 169.973 70.125C169.875 71.135 169.541 72.0518 168.971 72.875C168.272 73.005 167.646 72.755 167.092 72.125C166.989 72.2393 166.863 72.3228 166.717 72.375C164.699 71.2695 162.611 70.3528 160.454 69.625C160.558 69.4445 160.725 69.3195 160.955 69.25C160.573 68.9978 160.155 68.8728 159.702 68.875C159.504 68.1458 159.504 67.4375 159.702 66.75C159.535 66.4168 159.285 66.1668 158.951 66C159.008 65.9003 159.091 65.8588 159.201 65.875Z" fill="#F7004E"/>
<path opacity="0.918" fill-rule="evenodd" clip-rule="evenodd" d="M12.1501 64.875C12.3424 65.043 12.5094 65.2512 12.6512 65.5C12.3821 65.6848 12.215 65.9347 12.1501 66.25C12.4496 66.6332 12.4496 67.0082 12.1501 67.375C12.3117 67.6615 12.5205 67.9115 12.7764 68.125C12.7443 68.6112 12.7861 69.0695 12.9017 69.5C11.5658 69.893 11.6076 70.1848 13.0269 70.375C13.5564 71.155 13.4311 71.7382 12.6512 72.125C13.3949 72.417 13.4784 72.7502 12.9017 73.125C13.0461 73.5265 13.1296 73.943 13.1522 74.375C12.6012 75.2743 12.2671 76.2743 12.1501 77.375C11.6239 78.0317 11.2898 78.7817 11.1481 79.625C10.6521 79.871 10.2346 80.2043 9.89551 80.625C10.0118 79.3022 10.0118 78.0105 9.89551 76.75C10.0625 76.5833 10.2295 76.4167 10.3965 76.25C10.2585 75.9005 10.175 75.567 10.146 75.25C10.5439 74.327 10.6274 73.3685 10.3965 72.375C10.9087 69.859 11.4933 67.359 12.1501 64.875Z" fill="#EB03C2"/>
<path opacity="0.832" fill-rule="evenodd" clip-rule="evenodd" d="M19.4148 65.625C19.779 65.88 19.8625 66.1718 19.6653 66.5C20.0747 66.6235 20.4922 66.665 20.9179 66.625C19.2485 69.2883 17.4532 71.8715 15.5319 74.375C15.4397 75.4215 14.9804 76.255 14.154 76.875C13.7424 76.87 13.4084 77.0368 13.152 77.375C12.9522 77.2608 12.8687 77.094 12.9015 76.875C13.4874 75.3743 14.0719 73.8743 14.6551 72.375C16.3002 70.1783 17.8867 67.9283 19.4148 65.625Z" fill="#FF7BA7"/>
<path opacity="0.898" fill-rule="evenodd" clip-rule="evenodd" d="M171.476 70.875C173.193 71.7118 174.821 72.7118 176.361 73.875C176.465 73.7608 176.59 73.6773 176.737 73.625C177.121 74.3148 177.622 74.898 178.24 75.375C178.262 75.624 178.178 75.8323 177.99 76C178.38 76.245 178.798 76.4533 179.242 76.625C178.364 77.1195 178.155 77.7863 178.616 78.625C178.938 78.357 179.021 78.0238 178.866 77.625C179.108 77.185 179.4 77.1015 179.743 77.375C179.453 78.169 179.035 78.8775 178.491 79.5C178.532 79.625 178.574 79.75 178.616 79.875C178.927 79.532 179.303 79.282 179.743 79.125C180.011 79.5813 179.844 79.873 179.242 80C179.646 80.18 180.022 80.1385 180.369 79.875C180.495 80 180.62 80.125 180.745 80.25C180.113 80.356 179.612 80.6475 179.242 81.125C178.143 79.9698 177.058 78.7615 175.985 77.5C174.246 76.4308 172.576 75.264 170.975 74C170.651 73.8775 170.317 73.8358 169.973 73.875C170.237 72.959 170.53 72.0423 170.85 71.125C171.018 70.937 171.227 70.8535 171.476 70.875Z" fill="#F80148"/>
<path opacity="0.945" fill-rule="evenodd" clip-rule="evenodd" d="M178.24 75.375C178.68 75.518 179.098 75.7265 179.493 76C182.833 79.1843 185.171 83.1427 186.507 87.875C187.5 92.4875 187.834 97.0708 187.509 101.625C187.348 102.965 187.014 104.256 186.507 105.5C186.646 105.596 186.73 105.721 186.758 105.875C186.382 105.58 186.132 105.164 186.006 104.625C185.891 105.423 185.474 105.965 184.754 106.25C184.837 106.333 184.921 106.417 185.004 106.5C184.758 106.648 184.591 106.564 184.503 106.25C184.756 105.958 185.006 105.666 185.255 105.375C185.035 105.187 184.785 105.062 184.503 105C184.934 104.618 185.435 104.368 186.006 104.25C185.672 104.083 185.338 103.917 185.004 103.75C185.37 103.004 185.203 102.379 184.503 101.875C185.14 101.516 185.14 101.141 184.503 100.75C185.123 100.314 185.123 100.064 184.503 100C184.346 100.188 184.221 100.396 184.127 100.625C183.959 100.437 183.751 100.354 183.501 100.375C183.384 98.809 183.384 97.184 183.501 95.5C183.267 90.1912 181.848 85.3995 179.242 81.125C179.612 80.6475 180.113 80.356 180.745 80.25C180.62 80.125 180.495 80 180.37 79.875C180.022 80.1385 179.646 80.18 179.242 80C179.845 79.873 180.012 79.5813 179.743 79.125C179.303 79.282 178.927 79.532 178.616 79.875C178.574 79.75 178.533 79.625 178.491 79.5C179.036 78.8775 179.453 78.169 179.743 77.375C179.401 77.1015 179.108 77.185 178.867 77.625C179.021 78.0238 178.938 78.357 178.616 78.625C178.155 77.7863 178.364 77.1195 179.242 76.625C178.798 76.4533 178.38 76.245 177.99 76C178.178 75.8322 178.262 75.624 178.24 75.375Z" fill="#F70043"/>
<path opacity="0.817" fill-rule="evenodd" clip-rule="evenodd" d="M168.47 74.375C168.723 74.7347 168.64 75.068 168.22 75.375C168.388 75.8825 168.555 76.3825 168.721 76.875C169.034 77.4572 168.866 77.9155 168.22 78.25C168.47 78.7727 168.303 79.1892 167.719 79.5C167.936 80.079 167.769 80.579 167.218 81C167.301 81.0832 167.385 81.1667 167.468 81.25C165.715 86.4667 165.381 91.7167 166.466 97C166.467 100.597 166.968 104.181 167.969 107.75C168.3 110.644 168.801 113.561 169.472 116.5C169.389 116.583 169.305 116.667 169.222 116.75C169.476 116.88 169.643 117.088 169.723 117.375C170.414 119.841 170.998 122.341 171.476 124.875C171.496 125.969 171.621 127.052 171.852 128.125C171.877 128.663 172.086 129.08 172.478 129.375C172.753 131.584 172.92 133.709 172.979 135.75C172.702 136.744 172.452 137.744 172.228 138.75C172.311 138.833 172.395 138.917 172.478 139C172.06 139.877 171.726 140.711 171.476 141.5C171.727 142.023 171.56 142.439 170.975 142.75C171.09 142.853 171.173 142.978 171.226 143.125C169.999 145.489 168.579 147.739 166.967 149.875C166.371 149.609 166.371 149.276 166.967 148.875C166.884 148.792 166.8 148.708 166.717 148.625C166.445 148.916 166.236 149.249 166.09 149.625C165.884 149.075 166.009 148.616 166.466 148.25C166.327 148.154 166.243 148.029 166.216 147.875C167.4 146.133 168.486 144.342 169.472 142.5C169.358 142.396 169.274 142.271 169.222 142.125C169.472 141.792 169.723 141.458 169.973 141.125C169.921 140.978 169.837 140.853 169.723 140.75C170.117 139.348 170.534 138.015 170.975 136.75C170.925 134.917 170.925 133.042 170.975 131.125C171.03 129.692 170.904 128.275 170.6 126.875C170.422 126.655 170.213 126.488 169.973 126.375C168.994 121.897 167.867 117.397 166.591 112.875C165.82 108.602 165.152 104.352 164.587 100.125C164.5 98.954 164.374 97.7872 164.211 96.625C164.388 95.8067 164.305 94.9732 163.961 94.125C163.979 91.8102 163.979 89.5602 163.961 87.375C164.074 86.0822 164.408 84.7907 164.963 83.5C164.849 83.3965 164.765 83.2715 164.712 83.125C165.909 80.157 167.161 77.2402 168.47 74.375Z" fill="#FF5549"/>
<path fill-rule="evenodd" clip-rule="evenodd" d="M12.9012 76.875C12.8684 77.094 12.952 77.2607 13.1517 77.375C13.4082 77.0367 13.7422 76.87 14.1538 76.875C14.1538 77.125 14.1538 77.375 14.1538 77.625C13.8508 77.733 13.6003 77.8997 13.4023 78.125C12.346 78.817 11.8032 79.817 11.7739 81.125C11.5234 81.4582 11.2729 81.7917 11.0224 82.125C10.8794 83.0417 10.5872 83.875 10.1456 84.625C10.1456 84.2082 10.1456 83.7917 10.1456 83.375C9.82217 83.4342 9.57166 83.351 9.39404 83.125C9.39404 82.7917 9.39404 82.4582 9.39404 82.125C9.77417 82.1222 10.0664 81.9557 10.2708 81.625C10.733 81.0332 11.0252 80.3667 11.1476 79.625C11.2894 78.7817 11.6234 78.0317 12.1497 77.375C12.4002 77.2082 12.6507 77.0417 12.9012 76.875Z" fill="#FD73AE"/>
<path opacity="0.965" fill-rule="evenodd" clip-rule="evenodd" d="M11.1476 79.625C11.0252 80.3667 10.733 81.0332 10.2708 81.625C10.0664 81.9557 9.77417 82.1222 9.39404 82.125C9.56106 81.625 9.72805 81.125 9.89507 80.625C10.2341 80.2042 10.6516 79.871 11.1476 79.625Z" fill="#F53BBC"/>
<path fill-rule="evenodd" clip-rule="evenodd" d="M13.4027 78.125C13.4419 78.4683 13.4002 78.8018 13.2774 79.125C12.849 79.993 12.3479 80.8263 11.7743 81.625C11.294 83.03 10.7513 84.3632 10.146 85.625C10.146 85.2917 10.146 84.9583 10.146 84.625C10.5876 83.875 10.8798 83.0417 11.0228 82.125C11.2733 81.7917 11.5238 81.4583 11.7743 81.125C11.8036 79.817 12.3464 78.817 13.4027 78.125Z" fill="#F53ABA"/>
<path opacity="0.964" fill-rule="evenodd" clip-rule="evenodd" d="M46.7205 85.125C49.8985 84.651 52.8212 85.276 55.4885 87C57.2516 88.6498 58.1702 90.6915 58.2441 93.125C57.0026 93.3735 55.75 93.4568 54.4864 93.375C54.1931 90.056 52.3558 88.4725 48.9751 88.625C46.0105 88.3908 44.1733 89.6825 43.4638 92.5C43.6475 93.681 44.2319 94.5978 45.2174 95.25C48.186 96.2415 51.1922 97.158 54.2359 98C58.1153 99.6175 59.5766 102.493 58.6199 106.625C57.5226 109.635 55.3933 111.51 52.2318 112.25C48.7439 112.927 45.4872 112.344 42.4618 110.5C40.2217 108.753 39.2196 106.462 39.4556 103.625C40.6278 103.584 41.7967 103.625 42.9628 103.75C43.2241 106.512 44.7272 108.178 47.472 108.75C50.1245 109.308 52.4209 108.683 54.3612 106.875C55.7495 104.023 54.9564 102.064 51.9813 101C48.773 100.346 45.6831 99.3458 42.7123 98C40.3074 96.2193 39.4306 93.8443 40.0819 90.875C41.1128 87.591 43.3255 85.6745 46.7205 85.125Z" fill="#ED009C"/>
<path opacity="0.961" fill-rule="evenodd" clip-rule="evenodd" d="M129.14 85.125C135.928 84.1577 140.896 86.6577 144.045 92.625C144.33 93.274 144.539 93.9407 144.672 94.625C143.416 94.6665 142.164 94.6247 140.914 94.5C138.742 89.832 135.068 87.9155 129.891 88.75C124.746 90.1327 122.074 93.5077 121.875 98.875C122.686 106.391 126.861 109.683 134.401 108.75C137.676 107.898 139.931 105.898 141.164 102.75C142.331 102.625 143.499 102.583 144.672 102.625C142.924 109.115 138.666 112.449 131.895 112.625C123.378 111.958 118.785 107.375 118.117 98.875C118.493 91.5895 122.168 87.0062 129.14 85.125Z" fill="#ED009C"/>
<path opacity="0.965" fill-rule="evenodd" clip-rule="evenodd" d="M64.0063 85.375C67.4311 85.3333 70.8546 85.375 74.2774 85.5C80.0763 86.1218 83.9592 89.1635 85.9263 94.625C87.5636 101.143 85.6848 106.351 80.2897 110.25C78.7177 111.118 77.0478 111.701 75.2794 112C71.5227 112.125 67.765 112.167 64.0063 112.125C64.0063 103.208 64.0063 94.2918 64.0063 85.375ZM67.5135 88.875C69.8531 88.8335 72.1914 88.875 74.5279 89C79.8082 90.1038 82.5639 93.3538 82.7948 98.75C82.6055 103.936 80.0169 107.186 75.0289 108.5C72.5341 108.814 70.0289 108.939 67.5135 108.875C67.5135 102.208 67.5135 95.5418 67.5135 88.875Z" fill="#ED009C"/>
<path opacity="0.937" fill-rule="evenodd" clip-rule="evenodd" d="M91.5625 85.3749C92.7434 85.2932 93.9123 85.3767 95.0697 85.6249C99.8713 92.2082 104.673 98.7917 109.474 105.375C109.599 98.7087 109.641 92.0422 109.599 85.3749C110.769 85.3749 111.938 85.3749 113.107 85.3749C113.107 94.2917 113.107 103.208 113.107 112.125C111.955 112.2 110.827 112.117 109.725 111.875C104.965 105.292 100.205 98.7082 95.4455 92.1249C95.3202 98.7912 95.2784 105.458 95.3202 112.125C94.0676 112.125 92.8151 112.125 91.5625 112.125C91.5625 103.208 91.5625 94.2917 91.5625 85.3749Z" fill="#ED009C"/>
<path opacity="0.534" fill-rule="evenodd" clip-rule="evenodd" d="M144.17 85.375C145.256 85.375 146.342 85.375 147.427 85.375C147.427 85.7082 147.427 86.0417 147.427 86.375C147.009 86.375 146.592 86.375 146.175 86.375C146.175 87.4582 146.175 88.5417 146.175 89.625C145.924 89.625 145.673 89.625 145.423 89.625C145.423 88.5417 145.423 87.4582 145.423 86.375C145.005 86.375 144.588 86.375 144.17 86.375C144.17 86.0417 144.17 85.7082 144.17 85.375Z" fill="#EC009B"/>
<path opacity="0.691" fill-rule="evenodd" clip-rule="evenodd" d="M147.928 85.375C148.259 85.3325 148.552 85.4158 148.805 85.625C149.188 86.3543 149.522 87.1043 149.807 87.875C150.253 87.1668 150.629 86.4168 150.934 85.625C151.185 85.2918 151.435 85.2918 151.686 85.625C152.029 86.941 152.28 88.2743 152.438 89.625C152.104 89.625 151.769 89.625 151.435 89.625C151.508 88.8378 151.383 88.0878 151.06 87.375C150.683 88.1273 150.307 88.8773 149.932 89.625C149.41 88.8318 148.95 87.9985 148.555 87.125C148.441 87.9635 148.315 88.7968 148.179 89.625C147.928 89.625 147.678 89.625 147.427 89.625C147.547 88.2023 147.714 86.7855 147.928 85.375Z" fill="#ED009C"/>
<path fill-rule="evenodd" clip-rule="evenodd" d="M10.1457 85.625C9.81962 88.0045 9.40209 90.338 8.89317 92.625C8.82877 90.175 9.2463 87.8417 10.1457 85.625Z" fill="#F438BD"/>
<path opacity="0.875" fill-rule="evenodd" clip-rule="evenodd" d="M9.39432 83.125C9.57193 83.351 9.82245 83.4342 10.1459 83.375C10.1459 83.7917 10.1459 84.2082 10.1459 84.625C10.1459 84.9582 10.1459 85.2917 10.1459 85.625C9.24642 87.8417 8.82889 90.175 8.89329 92.625C8.50873 95.1967 8.34171 97.8217 8.39227 100.5C8.41524 102.656 8.58225 104.781 8.89329 106.875C8.89329 107.625 8.89329 108.375 8.89329 109.125C8.82418 110.711 9.07469 112.211 9.64483 113.625C9.64483 113.792 9.64483 113.958 9.64483 114.125C9.68228 114.388 9.64052 114.638 9.51958 114.875C9.01108 114.193 8.63531 113.443 8.39227 112.625C8.17039 112.831 8.08689 113.081 8.14175 113.375C7.88009 112.36 7.62958 111.318 7.39021 110.25C7.47371 110.167 7.55723 110.083 7.64073 110C7.41812 108.548 7.16761 107.09 6.88919 105.625C7.08864 104.821 7.00512 104.029 6.63867 103.25C6.78314 100.455 6.78314 97.6632 6.63867 94.875C6.7873 94.4045 6.95429 93.9462 7.1397 93.5C7.06532 92.4727 7.06532 91.4727 7.1397 90.5C7.27906 89.9407 7.52957 89.4407 7.89124 89C7.78009 88.6167 7.69659 88.2417 7.64073 87.875C7.89788 86.9522 8.23189 86.0772 8.64278 85.25C8.55928 85.1667 8.47576 85.0832 8.39227 85C8.70603 84.3417 9.04004 83.7167 9.39432 83.125Z" fill="#FE7EB0"/>
<path opacity="0.942" fill-rule="evenodd" clip-rule="evenodd" d="M14.1539 77.625C14.092 78.8822 13.925 80.174 13.6529 81.5C13.7364 81.5833 13.8199 81.6667 13.9034 81.75C13.7364 82.1667 13.5694 82.5833 13.4024 83C13.5893 83.5233 13.6728 84.0233 13.6529 84.5C13.4859 85.3333 13.3189 86.1667 13.1519 87C13.1519 88 13.1519 89 13.1519 90C12.9848 90.4167 12.8179 90.8333 12.6508 91.25C12.9 92.1812 12.8166 93.098 12.4003 94C12.5149 94.1035 12.5984 94.2285 12.6508 94.375C12.4937 95.1755 12.3267 95.9673 12.1498 96.75C12.2644 96.8535 12.3479 96.9785 12.4003 97.125C12.2333 98.4583 12.0663 99.7917 11.8993 101.125C11.9214 104.376 11.9214 107.668 11.8993 111C12.3462 112.142 12.4297 113.225 12.1498 114.25C12.9343 118.448 13.8529 122.615 14.9055 126.75C16.0915 130.975 17.8451 135.142 20.1662 139.25C20.0827 139.333 19.9992 139.417 19.9157 139.5C22.4159 143.629 25.2133 147.838 28.3079 152.125C28.837 152.648 29.3796 153.148 29.9363 153.625C31.0939 154.992 32.1794 156.409 33.1929 157.875C32.6929 158.016 32.1919 157.891 31.6899 157.5C31.1828 156.938 30.7652 156.313 30.4373 155.625C30.056 155.359 29.6386 155.193 29.1847 155.125C28.4998 154.34 27.9988 153.423 27.6816 152.375C27.4006 152.092 27.0664 151.926 26.6796 151.875C25.3464 150.05 24.0102 148.217 22.6714 146.375C22.5264 145.667 22.1924 145.084 21.6693 144.625C20.7917 143.374 20.0402 142.041 19.4147 140.625C19.2906 140.13 19.1653 139.63 19.0389 139.125C18.2565 137.976 17.5467 136.809 16.9096 135.625C16.6683 134.814 16.3343 134.064 15.9075 133.375C15.9017 132.768 15.7765 132.185 15.5317 131.625C14.8898 130.07 14.1799 128.57 13.4024 127.125C13.4695 126.725 13.386 126.392 13.1519 126.125C12.8305 124.166 12.2459 122.332 11.3983 120.625C11.3983 120.292 11.3983 119.958 11.3983 119.625C11.0843 117.952 10.6667 116.368 10.1457 114.875C9.91388 112.143 9.49635 109.476 8.89314 106.875C8.5821 104.781 8.41508 102.656 8.39211 100.5C8.34156 97.8218 8.50857 95.1968 8.89314 92.625C9.40206 90.338 9.81959 88.0045 10.1457 85.625C10.751 84.3632 11.2937 83.03 11.774 81.625C12.3476 80.8263 12.8487 79.993 13.2771 79.125C13.3999 78.8017 13.4416 78.4683 13.4024 78.125C13.6004 77.8997 13.8509 77.733 14.1539 77.625Z" fill="#EC09C7"/>
<path opacity="0.905" fill-rule="evenodd" clip-rule="evenodd" d="M186.758 105.875C186.339 106.703 186.172 107.537 186.257 108.375C185.858 109.346 185.44 110.305 185.004 111.25C185.255 111.773 185.087 112.189 184.503 112.5C184.617 112.604 184.701 112.729 184.754 112.875C184.178 114.238 183.552 115.572 182.875 116.875C182.523 117.183 182.231 117.516 181.998 117.875C181.983 117.39 181.983 116.89 181.998 116.375C181.361 116.016 180.693 115.724 179.994 115.5C180.328 115.04 180.286 114.915 179.869 115.125C179.752 114.977 179.71 114.81 179.743 114.625C180.864 111.639 181.866 108.764 182.749 106C182.635 105.897 182.551 105.772 182.499 105.625C182.797 103.86 183.131 102.11 183.501 100.375C183.75 100.354 183.959 100.437 184.127 100.625C184.221 100.396 184.346 100.188 184.503 100C185.123 100.064 185.123 100.314 184.503 100.75C185.14 101.141 185.14 101.516 184.503 101.875C185.203 102.379 185.37 103.004 185.004 103.75C185.338 103.917 185.672 104.083 186.006 104.25C185.435 104.368 184.934 104.618 184.503 105C184.785 105.062 185.035 105.187 185.255 105.375C185.006 105.666 184.756 105.958 184.503 106.25C184.591 106.564 184.758 106.648 185.004 106.5C184.921 106.417 184.837 106.333 184.754 106.25C185.474 105.965 185.891 105.423 186.006 104.625C186.132 105.164 186.382 105.581 186.758 105.875Z" fill="#F80048"/>
<path fill-rule="evenodd" clip-rule="evenodd" d="M8.89307 106.875C9.49628 109.476 9.91381 112.143 10.1456 114.875C9.97862 114.625 9.81162 114.375 9.64461 114.125C9.64461 113.958 9.64461 113.792 9.64461 113.625C9.64576 112.052 9.39525 110.552 8.89307 109.125C8.89307 108.375 8.89307 107.625 8.89307 106.875Z" fill="#F538BD"/>
<path fill-rule="evenodd" clip-rule="evenodd" d="M8.89305 109.125C9.39522 110.552 9.64574 112.052 9.64459 113.625C9.07444 112.211 8.82393 110.711 8.89305 109.125Z" fill="#FD6AB4"/>
<path opacity="0.639" fill-rule="evenodd" clip-rule="evenodd" d="M8.1416 113.875C8.97927 114.859 9.39677 116.026 9.39417 117.375C9.14365 117.375 8.89314 117.375 8.64263 117.375C8.5298 116.199 8.3628 115.033 8.1416 113.875Z" fill="#F74DB8"/>
<path opacity="0.921" fill-rule="evenodd" clip-rule="evenodd" d="M179.744 114.625C179.711 114.81 179.753 114.976 179.869 115.125C180.286 114.915 180.328 115.04 179.994 115.5C180.693 115.724 181.362 116.016 181.998 116.375C181.983 116.89 181.983 117.39 181.998 117.875C181.685 118.483 181.309 119.066 180.871 119.625C180.748 119.948 180.706 120.282 180.746 120.625C180.451 120.57 180.201 120.653 179.994 120.875C179.402 121.675 178.859 122.508 178.366 123.375C176.373 125.196 174.411 127.196 172.479 129.375C172.086 129.08 171.877 128.663 171.852 128.125C171.621 127.052 171.496 125.969 171.477 124.875C172.643 124.354 173.519 123.52 174.107 122.375C174.486 122.186 174.82 121.936 175.109 121.625C176.881 119.309 178.426 116.976 179.744 114.625Z" fill="#F7014E"/>
<path fill-rule="evenodd" clip-rule="evenodd" d="M10.146 114.875C10.667 116.368 11.0846 117.952 11.3986 119.625C10.7133 118.141 10.2958 116.558 10.146 114.875Z" fill="#F53CBC"/>
<path opacity="0.58" fill-rule="evenodd" clip-rule="evenodd" d="M8.64258 117.375C8.89309 117.375 9.1436 117.375 9.39412 117.375C10.1548 119.74 10.8228 122.157 11.3982 124.625C10.5922 123.425 10.0494 122.092 9.76989 120.625C9.54074 120.418 9.37373 120.168 9.26886 119.875C9.15255 120.024 9.11079 120.19 9.1436 120.375C8.81927 119.433 8.65227 118.433 8.64258 117.375Z" fill="#F32EBF"/>
<path opacity="0.821" fill-rule="evenodd" clip-rule="evenodd" d="M11.3982 124.625C11.6395 126.318 12.0152 127.985 12.5255 129.625C12.711 130.08 13.0032 130.413 13.4023 130.625C14.2413 131.719 14.7423 132.969 14.9054 134.375C15.2122 135.569 15.588 136.736 16.0327 137.875C16.6247 138.836 17.251 139.753 17.9116 140.625C18.7934 142.344 19.7955 144.011 20.9177 145.625C20.8785 145.968 20.9202 146.302 21.043 146.625C21.6053 147.472 22.2316 148.222 22.9218 148.875C23.1691 149.866 23.5031 150.825 23.9239 151.75C23.6711 151.839 23.5041 152.047 23.4229 152.375C19.1362 146.418 15.5038 139.918 12.5255 132.875C11.2961 129.5 10.3358 126.125 9.64462 122.75C9.72812 122.667 9.81164 122.583 9.89514 122.5C9.28724 121.937 9.03673 121.228 9.1436 120.375C9.11078 120.19 9.15254 120.023 9.26885 119.875C9.37372 120.168 9.54074 120.418 9.76988 120.625C10.0494 122.092 10.5922 123.425 11.3982 124.625Z" fill="#EC0CC8"/>
<path fill-rule="evenodd" clip-rule="evenodd" d="M11.3985 120.625C12.2462 122.332 12.8307 124.166 13.1521 126.125C12.5883 124.731 12.0455 123.314 11.5238 121.875C11.4002 121.467 11.3584 121.05 11.3985 120.625Z" fill="#F850B8"/>
<path fill-rule="evenodd" clip-rule="evenodd" d="M11.3984 124.625C12.294 126.526 12.962 128.526 13.4025 130.625C13.0035 130.413 12.7112 130.08 12.5257 129.625C12.0155 127.985 11.6397 126.318 11.3984 124.625Z" fill="#F22DC0"/>
<path fill-rule="evenodd" clip-rule="evenodd" d="M9.64488 114.125C9.8119 114.375 9.97889 114.625 10.1459 114.875C10.2957 116.557 10.7132 118.141 11.3985 119.625C11.3985 119.958 11.3985 120.292 11.3985 120.625C11.3583 121.05 11.4001 121.467 11.5237 121.875C12.0455 123.314 12.5882 124.731 13.1521 126.125C13.3862 126.392 13.4697 126.725 13.4026 127.125C14.0444 129.317 14.8795 131.401 15.9077 133.375C16.3345 134.064 16.6686 134.814 16.9098 135.625C17.4193 137.503 18.2544 139.17 19.4149 140.625C20.0404 142.041 20.792 143.375 21.6695 144.625C21.5984 145.464 21.9324 146.048 22.6716 146.375C24.0104 148.217 25.3466 150.05 26.6798 151.875C27.249 153.163 28.0842 154.246 29.1849 155.125C29.4354 155.458 29.686 155.792 29.9365 156.125C29.4678 156.035 29.092 155.785 28.8092 155.375C28.6882 155.612 28.6466 155.862 28.6839 156.125C27.8512 155.169 26.9744 154.252 26.0535 153.375C25.2393 151.692 24.1954 150.192 22.9221 148.875C22.4508 147.658 21.7827 146.575 20.918 145.625C19.7957 144.011 18.7937 142.344 17.9118 140.625C17.9511 140.282 17.9093 139.948 17.7866 139.625C17.2855 138.792 16.7845 137.958 16.2835 137.125C16.0935 136.064 15.6342 135.147 14.9057 134.375C14.7426 132.969 14.2415 131.719 13.4026 130.625C12.9621 128.526 12.294 126.526 11.3985 124.625C10.823 122.156 10.155 119.74 9.39437 117.375C9.39698 116.026 8.97947 114.859 8.1418 113.875C8.1418 113.708 8.1418 113.542 8.1418 113.375C8.08694 113.081 8.17044 112.831 8.39232 112.625C8.63537 113.443 9.01114 114.194 9.51963 114.875C9.64058 114.638 9.68234 114.388 9.64488 114.125Z" fill="#FD75B2"/>
<path opacity="0.941" fill-rule="evenodd" clip-rule="evenodd" d="M169.973 126.375C170.213 126.488 170.422 126.655 170.6 126.875C170.905 128.275 171.03 129.692 170.975 131.125C170.821 131.097 170.696 131.014 170.6 130.875C169.18 132.625 167.593 134.208 165.84 135.625C164.566 137.585 163.23 139.502 161.832 141.375C161.471 142.611 160.844 143.694 159.953 144.625C159.217 145.177 158.716 144.927 158.45 143.875C159.016 143.664 159.183 143.33 158.951 142.875C159.07 142.631 159.237 142.422 159.452 142.25C159.089 141.392 158.671 140.6 158.199 139.875C159.536 137.997 160.83 136.08 162.082 134.125C162.915 133.668 163.541 133.002 163.961 132.125C164.859 131.388 165.694 130.596 166.466 129.75C167.885 128.872 169.054 127.747 169.973 126.375Z" fill="#F7005A"/>
<path fill-rule="evenodd" clip-rule="evenodd" d="M13.4023 127.125C14.1799 128.57 14.8897 130.07 15.5317 131.625C15.7765 132.185 15.9017 132.768 15.9075 133.375C14.8792 131.401 14.0442 129.317 13.4023 127.125Z" fill="#F84BB8"/>
<path fill-rule="evenodd" clip-rule="evenodd" d="M14.9058 134.375C15.6343 135.148 16.0936 136.064 16.2836 137.125C16.7846 137.958 17.2856 138.792 17.7867 139.625C17.9094 139.948 17.9512 140.282 17.9119 140.625C17.2513 139.753 16.625 138.836 16.0331 137.875C15.5884 136.736 15.2126 135.569 14.9058 134.375Z" fill="#F437BD"/>
<path fill-rule="evenodd" clip-rule="evenodd" d="M16.9097 135.625C17.5468 136.809 18.2566 137.976 19.039 139.125C19.1654 139.629 19.2907 140.129 19.4148 140.625C18.2542 139.17 17.4192 137.503 16.9097 135.625Z" fill="#F849B9"/>
<path opacity="0.925" fill-rule="evenodd" clip-rule="evenodd" d="M158.199 139.875C158.671 140.6 159.088 141.391 159.452 142.25C159.237 142.422 159.07 142.63 158.951 142.875C159.183 143.33 159.016 143.664 158.45 143.875C158.716 144.927 159.217 145.177 159.953 144.625C159.992 144.968 159.95 145.302 159.827 145.625C158.736 147.412 157.609 149.162 156.446 150.875C156.214 151.076 155.964 151.117 155.694 151C155.932 150.82 155.974 150.612 155.819 150.375C155.402 150.708 154.984 151.042 154.567 151.375C154.4 151.208 154.4 151.042 154.567 150.875C155.664 150.325 155.706 149.991 154.692 149.875C154.811 149.63 154.978 149.422 155.193 149.25C154.907 149.065 154.907 148.856 155.193 148.625C154.586 148.238 154.586 147.821 155.193 147.375C154.928 147.273 154.594 147.273 154.191 147.375C154.712 146.848 154.921 146.265 154.817 145.625C155.795 144.76 156.379 143.76 156.571 142.625C157.413 141.764 157.955 140.848 158.199 139.875Z" fill="#F60061"/>
<path fill-rule="evenodd" clip-rule="evenodd" d="M21.6695 144.625C22.1926 145.084 22.5266 145.667 22.6716 146.375C21.9324 146.048 21.5984 145.464 21.6695 144.625Z" fill="#FB5EB5"/>
<path fill-rule="evenodd" clip-rule="evenodd" d="M20.9181 145.625C21.7828 146.575 22.4508 147.658 22.9222 148.875C22.2319 148.222 21.6056 147.472 21.0433 146.625C20.9206 146.302 20.8788 145.968 20.9181 145.625Z" fill="#F747B9"/>
<path opacity="0.938" fill-rule="evenodd" clip-rule="evenodd" d="M156.446 150.875C156.473 151.029 156.557 151.154 156.696 151.25C155.812 152.424 154.977 153.632 154.191 154.875C154.243 155.022 154.327 155.147 154.442 155.25C153.439 156.583 152.437 157.917 151.435 159.25C151.55 159.354 151.634 159.479 151.686 159.625C150.989 160.484 150.405 161.4 149.932 162.375C149.765 162.375 149.682 162.458 149.682 162.625C149.515 162.625 149.431 162.708 149.431 162.875C148.23 163.83 146.978 164.664 145.674 165.375C144.903 165.576 144.152 165.826 143.419 166.125C143.976 165.642 144.602 165.226 145.298 164.875C145.659 164.713 146.034 164.63 146.425 164.625C146.425 164.375 146.425 164.125 146.425 163.875C146.759 163.875 147.093 163.875 147.427 163.875C147.408 163.123 147.742 162.581 148.429 162.25C148.304 162.125 148.179 162 148.053 161.875C147.948 162.168 147.782 162.418 147.552 162.625C147.577 161.972 147.661 161.305 147.803 160.625C147.909 160.989 148.118 161.114 148.429 161C147.993 160.594 147.576 160.052 147.177 159.375C149.707 155.383 152.045 151.383 154.191 147.375C154.594 147.274 154.928 147.274 155.193 147.375C154.586 147.822 154.586 148.238 155.193 148.625C154.907 148.856 154.907 149.065 155.193 149.25C154.978 149.422 154.812 149.631 154.692 149.875C155.706 149.992 155.664 150.325 154.567 150.875C154.4 151.042 154.4 151.208 154.567 151.375C154.984 151.042 155.402 150.708 155.819 150.375C155.974 150.612 155.932 150.821 155.694 151C155.964 151.118 156.214 151.076 156.446 150.875Z" fill="#F60266"/>
<path opacity="0.832" fill-rule="evenodd" clip-rule="evenodd" d="M166.216 147.875C166.244 148.029 166.327 148.154 166.466 148.25C166.009 148.617 165.884 149.075 166.091 149.625C166.237 149.25 166.445 148.916 166.717 148.625C166.8 148.708 166.884 148.792 166.967 148.875C166.371 149.276 166.371 149.609 166.967 149.875C165.851 151.689 164.557 153.356 163.084 154.875C162.917 155.208 162.75 155.208 162.583 154.875C162.424 155.241 162.215 155.575 161.957 155.875C160.453 157.126 158.95 158.376 157.448 159.625C157.173 158.678 157.006 158.678 156.947 159.625C156.056 159.681 155.972 159.473 156.696 159C156.574 158.715 156.49 158.424 156.446 158.125C158.356 156.645 160.235 154.978 162.082 153.125C163.506 151.412 164.884 149.662 166.216 147.875Z" fill="#FF5953"/>
<path opacity="0.814" fill-rule="evenodd" clip-rule="evenodd" d="M329.915 130.988C334.16 130.928 337.037 132.874 338.549 136.825C337.728 137.146 336.892 137.192 336.043 136.964C334.124 133.506 331.339 132.58 327.687 134.184C325.119 136.137 324.331 138.685 325.32 141.828C326.924 144.833 329.383 145.899 332.7 145.024C334.372 144.468 335.486 143.357 336.043 141.689C336.892 141.461 337.728 141.507 338.549 141.828C336.839 146.528 333.497 148.427 328.523 147.526C323.866 145.879 321.869 142.59 322.534 137.659C323.565 133.801 326.027 131.577 329.915 130.988Z" fill="#EC009B"/>
<path opacity="0.822" fill-rule="evenodd" clip-rule="evenodd" d="M358.325 130.988C365.001 131.025 368.204 134.361 367.934 140.994C366.28 146.25 362.706 148.427 357.211 147.526C352.554 145.876 350.557 142.587 351.223 137.659C352.212 133.937 354.579 131.713 358.325 130.988ZM358.047 133.489C364.166 133.526 366.439 136.491 364.87 142.384C362.534 145.456 359.609 146.151 356.097 144.468C352.986 141.395 352.799 138.152 355.54 134.74C356.401 134.311 357.236 133.894 358.047 133.489Z" fill="#EC009B"/>
<path opacity="0.828" fill-rule="evenodd" clip-rule="evenodd" d="M535.742 130.988C541.51 130.955 544.666 133.781 545.212 139.465C544.432 145.84 540.811 148.527 534.349 147.526C528.734 145.174 527.016 141.144 529.197 135.435C530.718 132.943 532.898 131.46 535.742 130.988ZM535.185 133.489C540.803 133.21 543.262 135.804 542.566 141.272C540.995 144.76 538.349 146.011 534.628 145.024C532.166 144.006 530.865 142.154 530.729 139.465C530.904 136.468 532.391 134.476 535.185 133.489Z" fill="#EC009B"/>
<path opacity="0.82" fill-rule="evenodd" clip-rule="evenodd" d="M231.598 131.266C232.74 131.063 233.715 131.341 234.523 132.1C237.054 135.762 239.653 139.375 242.321 142.94C242.46 139.05 242.508 135.158 242.46 131.266C243.204 131.266 243.945 131.266 244.689 131.266C244.689 136.732 244.689 142.199 244.689 147.665C243.959 147.74 243.263 147.647 242.6 147.387C239.881 143.539 237.096 139.74 234.244 135.991C234.105 139.881 234.057 143.773 234.105 147.665C233.269 147.665 232.434 147.665 231.598 147.665C231.598 142.199 231.598 136.732 231.598 131.266Z" fill="#EC009B"/>
<path opacity="0.811" fill-rule="evenodd" clip-rule="evenodd" d="M259.729 131.266C262.884 131.266 266.043 131.266 269.198 131.266C269.198 132.007 269.198 132.748 269.198 133.489C266.878 133.489 264.555 133.489 262.235 133.489C262.235 135.157 262.235 136.825 262.235 138.492C264.277 138.492 266.321 138.492 268.363 138.492C268.363 139.234 268.363 139.975 268.363 140.716C266.321 140.716 264.277 140.716 262.235 140.716C262.235 143.032 262.235 145.349 262.235 147.665C261.4 147.665 260.564 147.665 259.729 147.665C259.729 142.198 259.729 136.732 259.729 131.266Z" fill="#EC009B"/>
<path opacity="0.789" fill-rule="evenodd" clip-rule="evenodd" d="M280.896 131.266C284.982 131.266 289.065 131.266 293.151 131.266C293.151 132.007 293.151 132.748 293.151 133.489C291.469 133.398 289.798 133.491 288.138 133.767C288.458 138.202 288.506 142.65 288.277 147.109C287.592 147.615 286.804 147.8 285.91 147.665C285.91 142.94 285.91 138.215 285.91 133.489C284.239 133.489 282.568 133.489 280.896 133.489C280.896 132.748 280.896 132.007 280.896 131.266Z" fill="#EC009B"/>
<path opacity="0.816" fill-rule="evenodd" clip-rule="evenodd" d="M382 131.266C382.822 131.189 383.61 131.282 384.367 131.544C386.952 135.328 389.645 139.034 392.445 142.662C392.584 138.864 392.631 135.066 392.584 131.266C393.419 131.266 394.255 131.266 395.09 131.266C395.138 136.64 395.09 142.014 394.951 147.387C393.968 147.857 393.132 147.672 392.445 146.831C389.86 143.047 387.167 139.342 384.367 135.713C384.228 139.696 384.181 143.68 384.228 147.665C383.485 147.665 382.744 147.665 382 147.665C382 142.199 382 136.732 382 131.266Z" fill="#EC009B"/>
<path opacity="0.804" fill-rule="evenodd" clip-rule="evenodd" d="M408.18 131.266C409.127 131.177 410.054 131.269 410.965 131.544C412.617 135.609 414.24 139.686 415.839 143.774C417.262 139.638 418.839 135.562 420.574 131.544C421.443 131.186 422.326 131.186 423.22 131.544C421.111 136.887 418.975 142.214 416.814 147.526C416.09 147.74 415.393 147.693 414.725 147.387C412.463 142.039 410.28 136.665 408.18 131.266Z" fill="#EC009B"/>
<path opacity="0.794" fill-rule="evenodd" clip-rule="evenodd" d="M436.589 131.266C439.745 131.266 442.903 131.266 446.059 131.266C446.059 132.007 446.059 132.748 446.059 133.489C443.739 133.489 441.416 133.489 439.096 133.489C439.096 134.972 439.096 136.454 439.096 137.937C441.138 137.937 443.182 137.937 445.223 137.937C445.223 138.77 445.223 139.604 445.223 140.438C443.182 140.438 441.138 140.438 439.096 140.438C439.182 141.993 439.088 143.521 438.818 145.024C441.23 145.163 443.644 145.209 446.059 145.163C446.059 145.997 446.059 146.831 446.059 147.665C442.903 147.665 439.745 147.665 436.589 147.665C436.589 142.198 436.589 136.732 436.589 131.266Z" fill="#EC009B"/>
<path opacity="0.856" fill-rule="evenodd" clip-rule="evenodd" d="M460.263 131.266C461.029 131.179 461.77 131.271 462.492 131.544C465.285 135.304 468.023 139.102 470.708 142.94C470.847 139.05 470.895 135.158 470.847 131.266C471.591 131.266 472.332 131.266 473.075 131.266C473.075 136.732 473.075 142.198 473.075 147.665C471.936 147.886 471.053 147.515 470.429 146.553C467.898 142.891 465.299 139.277 462.631 135.713C462.492 139.696 462.444 143.68 462.492 147.665C461.748 147.665 461.007 147.665 460.263 147.665C460.263 142.198 460.263 136.732 460.263 131.266Z" fill="#EC009B"/>
<path opacity="0.848" fill-rule="evenodd" clip-rule="evenodd" d="M486.444 131.266C490.53 131.266 494.613 131.266 498.699 131.266C498.699 132.007 498.699 132.748 498.699 133.489C497.028 133.489 495.357 133.489 493.686 133.489C493.686 138.215 493.686 142.94 493.686 147.665C492.942 147.665 492.201 147.665 491.458 147.665C491.458 142.94 491.458 138.215 491.458 133.489C489.787 133.489 488.115 133.489 486.444 133.489C486.444 132.748 486.444 132.007 486.444 131.266Z" fill="#EC009B"/>
<path opacity="0.878" fill-rule="evenodd" clip-rule="evenodd" d="M512.069 131.266C512.812 131.266 513.553 131.266 514.297 131.266C514.297 136.732 514.297 142.198 514.297 147.665C513.553 147.665 512.812 147.665 512.069 147.665C512.069 142.198 512.069 136.732 512.069 131.266Z" fill="#EC009B"/>
<path opacity="0.795" fill-rule="evenodd" clip-rule="evenodd" d="M559.139 131.266C560.281 131.063 561.255 131.341 562.063 132.1C564.461 135.698 566.968 139.218 569.583 142.662C569.722 138.864 569.77 135.066 569.722 131.266C570.558 131.266 571.394 131.266 572.229 131.266C572.229 136.732 572.229 142.199 572.229 147.665C571.499 147.74 570.803 147.647 570.14 147.387C567.422 143.539 564.637 139.74 561.785 135.991C561.645 139.881 561.598 143.773 561.645 147.665C560.824 147.742 560.035 147.649 559.278 147.387C559.139 142.014 559.091 136.64 559.139 131.266Z" fill="#EC009B"/>
<path opacity="0.798" fill-rule="evenodd" clip-rule="evenodd" d="M22.9219 148.875C24.1952 150.192 25.2391 151.692 26.0533 153.375C26.9742 154.252 27.851 155.169 28.6837 156.125C29.0399 156.628 29.3738 157.128 29.6857 157.625C30.282 158.39 30.783 159.224 31.1888 160.125C32.5218 160.958 33.7744 161.875 34.9465 162.875C35.0299 163.125 35.197 163.292 35.4475 163.375C35.8461 163.892 36.1803 164.475 36.4496 165.125C37.034 165.458 37.6187 165.792 38.2032 166.125C38.5041 166.727 38.9214 167.227 39.4558 167.625C39.2987 167.854 39.215 168.104 39.2052 168.375C36.5814 166.32 34.0762 164.153 31.6898 161.875C30.2048 160.295 28.7017 158.712 27.1806 157.125C26.0275 155.438 24.7748 153.854 23.4229 152.375C23.5041 152.047 23.6711 151.839 23.9239 151.75C23.5031 150.825 23.1691 149.867 22.9219 148.875Z" fill="#ED15C1"/>
<path fill-rule="evenodd" clip-rule="evenodd" d="M26.6797 151.875C27.0665 151.926 27.4007 152.093 27.6817 152.375C27.9989 153.423 28.4999 154.34 29.1848 155.125C28.0841 154.247 27.2489 153.163 26.6797 151.875Z" fill="#F438BA"/>
<path opacity="0.583" fill-rule="evenodd" clip-rule="evenodd" d="M581.631 143.754C583.594 143.754 585.559 143.754 587.522 143.754C587.522 144.304 587.522 144.853 587.522 145.403C586.799 145.403 586.074 145.403 585.351 145.403C585.351 147.602 585.351 149.801 585.351 152C584.834 152 584.319 152 583.801 152C583.801 149.801 583.801 147.602 583.801 145.403C583.079 145.403 582.354 145.403 581.631 145.403C581.631 144.853 581.631 144.304 581.631 143.754Z" fill="#EC009B"/>
<path opacity="0.653" fill-rule="evenodd" clip-rule="evenodd" d="M588.845 143.786C589.425 143.694 589.962 143.801 590.464 144.109C591.196 145.712 591.899 147.328 592.57 148.958C593.409 147.39 594.163 145.774 594.837 144.109C595.287 143.768 595.773 143.715 596.295 143.947C596.8 146.564 597.234 149.204 597.59 151.867C597.05 151.867 596.512 151.867 595.971 151.867C595.877 150.118 595.608 148.394 595.161 146.695C594.436 148.468 593.626 150.192 592.732 151.867C591.728 150.222 590.811 148.498 589.978 146.695C589.813 148.44 589.541 150.163 589.169 151.867C588.589 151.959 588.051 151.851 587.549 151.544C588.106 148.98 588.537 146.394 588.845 143.786Z" fill="#EC009B"/>
<path opacity="0.752" fill-rule="evenodd" clip-rule="evenodd" d="M156.446 158.125C156.49 158.424 156.574 158.715 156.696 159C155.972 159.473 156.056 159.681 156.947 159.625C157.006 158.678 157.173 158.678 157.448 159.625C154.271 162.288 150.764 164.455 146.926 166.125C146.911 165.989 146.828 165.906 146.676 165.875C145.782 166.363 144.863 166.78 143.92 167.125C143.735 167.158 143.568 167.116 143.419 167C144.187 166.453 144.939 165.911 145.674 165.375C146.978 164.663 148.23 163.83 149.431 162.875C149.598 162.875 149.682 162.792 149.682 162.625C149.849 162.625 149.932 162.542 149.932 162.375C152.154 161.203 154.326 159.786 156.446 158.125Z" fill="#FE5B5C"/>
<path fill-rule="evenodd" clip-rule="evenodd" d="M29.686 157.625C31.3805 159.43 33.1341 161.18 34.9468 162.875C33.7747 161.875 32.5221 160.958 31.1891 160.125C30.7833 159.224 30.2823 158.39 29.686 157.625Z" fill="#F435B9"/>
<path opacity="0.949" fill-rule="evenodd" clip-rule="evenodd" d="M147.177 159.375C147.576 160.052 147.993 160.594 148.429 161C148.118 161.114 147.909 160.989 147.803 160.625C147.661 161.305 147.577 161.972 147.553 162.625C147.782 162.418 147.949 162.168 148.054 161.875C148.179 162 148.304 162.125 148.429 162.25C147.742 162.581 147.408 163.123 147.427 163.875C147.093 163.875 146.759 163.875 146.425 163.875C146.425 164.125 146.425 164.375 146.425 164.625C146.034 164.63 145.659 164.713 145.298 164.875C144.603 165.226 143.976 165.642 143.419 166.125C142.948 166.805 142.363 166.971 141.666 166.625C143.525 164.382 145.362 161.965 147.177 159.375Z" fill="#F4026C"/>
<path fill-rule="evenodd" clip-rule="evenodd" d="M29.9362 156.125C34.8215 161.667 40.3328 166.5 46.4701 170.625C46.7452 170.849 46.7452 171.057 46.4701 171.25C46.894 171.577 47.2279 171.952 47.4721 172.375C46.9711 172.208 46.4701 172.042 45.9691 171.875C45.7712 171.551 45.5206 171.26 45.2175 171C41.6951 168.774 38.4384 166.232 35.4475 163.375C35.197 163.292 35.0299 163.125 34.9465 162.875C33.1338 161.18 31.3802 159.43 29.6857 157.625C29.3738 157.128 29.0399 156.628 28.6836 156.125C28.6463 155.862 28.6879 155.612 28.8089 155.375C29.0917 155.785 29.4675 156.035 29.9362 156.125Z" fill="#FE74A8"/>
<path opacity="0.829" fill-rule="evenodd" clip-rule="evenodd" d="M29.1846 155.125C29.6385 155.193 30.0559 155.359 30.4371 155.625C30.7651 156.313 31.1827 156.938 31.6897 157.5C32.1917 157.891 32.6928 158.016 33.1928 157.875C33.4641 157.885 33.7146 157.968 33.9443 158.125C34.652 158.874 35.3201 159.666 35.9484 160.5C36.366 160.75 36.7834 161 37.201 161.25C38.2865 162.333 39.3722 163.417 40.4577 164.5C44.0921 166.938 47.6827 169.438 51.2297 172C51.8189 172.06 52.32 172.268 52.7328 172.625C52.574 172.987 52.2816 173.153 51.856 173.125C51.472 173.057 51.0962 172.973 50.7287 172.875C49.8346 172.479 48.9163 172.104 47.9731 171.75C47.6456 171.13 47.1446 170.755 46.47 170.625C40.3327 166.5 34.8214 161.667 29.9361 156.125C29.6856 155.792 29.4351 155.458 29.1846 155.125Z" fill="#EE17B8"/>
<path fill-rule="evenodd" clip-rule="evenodd" d="M146.926 166.125C146.693 166.843 146.275 167.426 145.674 167.875C145.524 167.715 145.316 167.632 145.047 167.625C143.372 167.907 141.911 168.615 140.663 169.75C140.032 170.085 139.364 170.294 138.659 170.375C138.697 170.638 138.655 170.888 138.534 171.125C138.451 171.042 138.367 170.958 138.284 170.875C137.781 171.167 137.238 171.334 136.655 171.375C137.761 170.485 139.014 169.86 140.413 169.5C141.477 168.514 142.646 167.722 143.92 167.125C144.863 166.78 145.782 166.363 146.676 165.875C146.828 165.906 146.911 165.989 146.926 166.125Z" fill="#F9276B"/>
<path opacity="0.956" fill-rule="evenodd" clip-rule="evenodd" d="M145.673 167.875C144.196 169.429 142.735 171.012 141.289 172.625C139.791 173.509 138.288 174.592 136.78 175.875C135.776 176.48 134.733 176.98 133.649 177.375C133.414 176.765 133.665 176.349 134.4 176.125C134.103 175.87 133.852 175.578 133.649 175.25C134.237 174.828 134.279 174.37 133.774 173.875C133.69 174.125 133.607 174.375 133.523 174.625C133.351 174.411 133.142 174.244 132.897 174.125C132.504 174.327 132.086 174.411 131.645 174.375C133.313 173.376 134.983 172.376 136.655 171.375C137.238 171.334 137.78 171.167 138.283 170.875C138.367 170.958 138.45 171.042 138.534 171.125C138.655 170.888 138.696 170.638 138.659 170.375C139.363 170.293 140.031 170.085 140.663 169.75C141.91 168.615 143.372 167.907 145.047 167.625C145.315 167.632 145.524 167.715 145.673 167.875Z" fill="#F30374"/>
<path opacity="0.892" fill-rule="evenodd" clip-rule="evenodd" d="M35.4478 163.375C38.4386 166.232 41.6953 168.774 45.2178 171C45.5209 171.26 45.7714 171.551 45.9693 171.875C46.7246 172.541 47.5598 173.124 48.4744 173.625C48.7129 174.011 48.7964 174.428 48.725 174.875C46.5312 173.512 44.5271 172.137 42.7126 170.75C41.5733 169.903 40.4044 169.111 39.2055 168.375C39.2152 168.104 39.2989 167.854 39.456 167.625C38.9216 167.227 38.5043 166.727 38.2034 166.125C37.619 165.792 37.0343 165.458 36.4498 165.125C36.1805 164.475 35.8463 163.891 35.4478 163.375Z" fill="#EE10B9"/>
<path opacity="0.96" fill-rule="evenodd" clip-rule="evenodd" d="M133.649 177.375C132.537 178.055 131.326 178.805 130.017 179.625C129.933 179.542 129.849 179.458 129.766 179.375C127.778 180.529 125.648 181.363 123.378 181.875C123.128 181.882 122.961 181.758 122.877 181.5C122.97 180.678 123.22 179.928 123.628 179.25C123.156 179.209 122.78 179.418 122.501 179.875C122.248 179.666 121.956 179.582 121.624 179.625C121.662 179.888 121.62 180.138 121.499 180.375C121.067 180.106 120.608 180.064 120.121 180.25C117.948 180.875 115.776 181.5 113.608 182.125C114.567 181.445 115.653 181.029 116.865 180.875C118.374 180.513 119.877 180.097 121.374 179.625C121.842 179.344 122.343 179.136 122.877 179C123.268 178.81 123.519 178.518 123.628 178.125C126.311 176.951 128.983 175.701 131.645 174.375C132.086 174.411 132.504 174.327 132.897 174.125C133.142 174.244 133.351 174.411 133.524 174.625C133.607 174.375 133.691 174.125 133.774 173.875C134.279 174.37 134.237 174.828 133.649 175.25C133.853 175.579 134.103 175.87 134.401 176.125C133.665 176.349 133.414 176.765 133.649 177.375Z" fill="#F3097B"/>
<path opacity="0.803" fill-rule="evenodd" clip-rule="evenodd" d="M45.9692 171.875C46.4703 172.042 46.9713 172.208 47.4723 172.375C49.0886 173.572 50.7586 174.697 52.4826 175.75C53.1342 175.98 53.8023 176.147 54.4867 176.25C56.0268 177.267 57.6133 178.142 59.2464 178.875C59.3599 179.115 59.5268 179.323 59.7475 179.5C60.6072 179.796 61.4422 180.088 62.2526 180.375C62.2526 180.625 62.2526 180.875 62.2526 181.125C62.9924 180.786 63.6602 180.87 64.2567 181.375C63.9781 181.566 63.811 181.816 63.7557 182.125C61.4733 181.103 59.2605 180.103 57.1171 179.125C57.0134 179.239 56.8881 179.323 56.7413 179.375C55.4517 178.751 54.2409 178.001 53.1089 177.125C52.929 177.363 52.7203 177.404 52.4826 177.25C51.7729 176.708 51.0629 176.167 50.3532 175.625C50.1734 175.863 49.9647 175.904 49.7269 175.75C49.3279 175.513 48.9939 175.221 48.7249 174.875C48.7963 174.428 48.7129 174.011 48.4744 173.625C47.5597 173.125 46.7245 172.541 45.9692 171.875Z" fill="#EF13B1"/>
<path opacity="0.958" fill-rule="evenodd" clip-rule="evenodd" d="M145.673 165.375C144.939 165.911 144.187 166.453 143.419 167C143.568 167.116 143.735 167.158 143.92 167.125C142.646 167.722 141.476 168.514 140.413 169.5C139.013 169.86 137.761 170.485 136.655 171.375C134.983 172.376 133.313 173.376 131.645 174.375C128.983 175.701 126.311 176.951 123.628 178.125C123.066 178.364 122.481 178.53 121.875 178.625C122.058 178.323 122.142 177.99 122.125 177.625C121.875 177.625 121.624 177.625 121.374 177.625C124.636 176.079 127.851 174.412 131.018 172.625C131.102 172.708 131.185 172.792 131.269 172.875C131.781 172.522 132.241 172.106 132.647 171.625C135.841 170.037 138.847 168.371 141.665 166.625C142.363 166.971 142.947 166.804 143.419 166.125C144.152 165.825 144.903 165.575 145.673 165.375Z" fill="#FE606B"/>
<path opacity="0.769" fill-rule="evenodd" clip-rule="evenodd" d="M52.7331 172.625C55.0253 174.059 57.3633 175.268 59.7475 176.25C63.2462 177.7 66.7533 178.908 70.269 179.875C69.9451 180.04 69.5694 180.123 69.1417 180.125C67.7632 179.946 66.3853 179.78 65.0083 179.625C64.9248 179.625 64.8412 179.625 64.7578 179.625C61.8403 178.729 59.0012 177.604 56.2403 176.25C54.3534 175.184 52.5164 174.059 50.729 172.875C51.0965 172.974 51.4723 173.057 51.8563 173.125C52.2819 173.153 52.5743 172.987 52.7331 172.625Z" fill="#F013AC"/>
<path opacity="0.856" fill-rule="evenodd" clip-rule="evenodd" d="M121.374 177.625C121.624 177.625 121.875 177.625 122.125 177.625C122.142 177.99 122.058 178.323 121.875 178.625C120.207 179.297 118.537 180.047 116.864 180.875C115.653 181.029 114.567 181.445 113.608 182.125C113.274 182.125 112.94 182.125 112.606 182.125C111.373 182.216 111.289 181.966 112.355 181.375C112.742 181.137 113.16 181.054 113.608 181.125C113.608 180.875 113.608 180.625 113.608 180.375C116.194 179.426 118.783 178.509 121.374 177.625Z" fill="#FE6575"/>
<path fill-rule="evenodd" clip-rule="evenodd" d="M46.4702 170.625C47.1448 170.755 47.6459 171.13 47.9733 171.75C48.9165 172.104 49.8349 172.479 50.7289 172.875C52.5164 174.059 54.3534 175.184 56.2402 176.25C59.0011 177.604 61.8402 178.729 64.7577 179.625C64.0793 179.388 63.4114 179.388 62.7536 179.625C63.318 179.995 63.9027 180.328 64.5072 180.625C62.7789 179.994 61.0253 179.411 59.2464 178.875C57.6133 178.142 56.0268 177.267 54.4866 176.25C53.8022 176.147 53.1341 175.98 52.4825 175.75C50.7585 174.696 49.0886 173.571 47.4723 172.375C47.228 171.952 46.8941 171.577 46.4702 171.25C46.7453 171.057 46.7453 170.849 46.4702 170.625Z" fill="#FD6C9E"/>
<path fill-rule="evenodd" clip-rule="evenodd" d="M123.628 178.125C123.519 178.519 123.268 178.81 122.877 179C122.343 179.136 121.842 179.344 121.373 179.625C119.876 180.097 118.373 180.513 116.864 180.875C118.536 180.047 120.207 179.297 121.875 178.625C122.481 178.531 123.065 178.364 123.628 178.125Z" fill="#F93278"/>
<path opacity="0.982" fill-rule="evenodd" clip-rule="evenodd" d="M123.378 181.875C123.251 182.308 123.042 182.391 122.752 182.125C122.396 182.365 122.02 182.573 121.624 182.75C119.031 183.461 116.443 184.17 113.858 184.875C113.787 184.678 113.662 184.511 113.483 184.375C112.508 184.833 112.091 184.583 112.23 183.625C111.975 183.908 111.808 183.825 111.729 183.375C111.625 183.489 111.5 183.573 111.353 183.625C110.846 183.207 110.262 183.04 109.6 183.125C110.581 182.739 111.583 182.406 112.606 182.125C112.94 182.125 113.274 182.125 113.608 182.125C115.776 181.5 117.947 180.875 120.121 180.25C120.607 180.064 121.067 180.106 121.499 180.375C121.62 180.138 121.662 179.888 121.624 179.625C121.955 179.582 122.248 179.666 122.501 179.875C122.78 179.418 123.156 179.209 123.628 179.25C123.22 179.928 122.97 180.678 122.877 181.5C122.961 181.757 123.128 181.882 123.378 181.875Z" fill="#F30584"/>
<path opacity="0.847" fill-rule="evenodd" clip-rule="evenodd" d="M65.0083 179.625C66.3854 179.78 67.7632 179.946 69.1418 180.125C69.5694 180.123 69.9452 180.04 70.2691 179.875C70.8077 179.731 71.3087 179.898 71.7722 180.375C72.4488 180.2 73.0751 180.367 73.651 180.875C73.7547 180.761 73.88 180.677 74.0268 180.625C74.864 181.045 75.699 181.212 76.5319 181.125C78.025 181.743 79.4444 182.076 80.7906 182.125C80.3861 182.609 79.8432 182.859 79.1623 182.875C77.3005 182.513 75.4216 182.263 73.5258 182.125C70.5519 181.608 67.7126 180.774 65.0083 179.625Z" fill="#F114A3"/>
<path fill-rule="evenodd" clip-rule="evenodd" d="M65.0083 180.875C66.715 181.111 68.3018 181.611 69.7681 182.375C68.0663 182.17 66.4798 181.67 65.0083 180.875Z" fill="#FB539B"/>
<path fill-rule="evenodd" clip-rule="evenodd" d="M64.7575 179.625C64.8409 179.625 64.9246 179.625 65.008 179.625C67.7123 180.774 70.5516 181.608 73.5255 182.125C74.3787 182.527 75.2974 182.819 76.2811 183C78.3431 183.146 80.3472 183.438 82.2935 183.875C80.4502 183.721 78.6132 183.596 76.7822 183.5C77.2368 183.689 77.6542 183.898 78.0347 184.125C77.1998 184.042 76.3646 183.958 75.5296 183.875C73.5095 183.559 71.589 183.059 69.7678 182.375C68.3015 181.611 66.7148 181.111 65.008 180.875C64.7595 180.918 64.5927 180.835 64.507 180.625C63.9025 180.328 63.3178 179.995 62.7534 179.625C63.4113 179.388 64.0791 179.388 64.7575 179.625Z" fill="#FE6A94"/>
<path opacity="0.768" fill-rule="evenodd" clip-rule="evenodd" d="M102.335 182.625C102.307 182.779 102.224 182.904 102.084 183C101.129 183.199 100.211 183.407 99.3288 183.625C93.6734 184.201 87.995 184.285 82.2938 183.875C80.3476 183.438 78.3435 183.146 76.2815 183C75.2978 182.819 74.3791 182.527 73.5259 182.125C75.4218 182.263 77.3006 182.513 79.1624 182.875C79.8433 182.859 80.3862 182.609 80.7908 182.125C81.6079 181.801 82.4013 181.884 83.1706 182.375C84.1642 182.692 85.1662 182.692 86.1768 182.375C86.5944 182.542 87.0118 182.708 87.4294 182.875C91.652 182.755 95.9107 182.755 100.206 182.875C100.902 182.48 101.612 182.396 102.335 182.625Z" fill="#F21298"/>
<path opacity="0.735" fill-rule="evenodd" clip-rule="evenodd" d="M109.099 181.375C109.439 181.875 109.271 182.166 108.598 182.25C106.174 182.643 103.753 183.101 101.333 183.625C100.665 183.625 99.9967 183.625 99.3286 183.625C100.211 183.407 101.129 183.199 102.084 183C102.224 182.904 102.307 182.779 102.335 182.625C104.665 182.225 106.92 181.808 109.099 181.375Z" fill="#F82E87"/>
<path opacity="0.914" fill-rule="evenodd" clip-rule="evenodd" d="M109.599 183.125C110.262 183.04 110.846 183.207 111.353 183.625C111.5 183.573 111.625 183.489 111.729 183.375C111.808 183.825 111.975 183.908 112.23 183.625C112.091 184.583 112.508 184.833 113.482 184.375C113.662 184.511 113.787 184.678 113.858 184.875C110.692 185.485 107.519 185.985 104.339 186.375C104.339 185.875 104.339 185.375 104.339 184.875C101.674 185.136 99.0015 185.303 96.3223 185.375C96.3223 185.292 96.3223 185.208 96.3223 185.125C98.4151 184.983 100.503 184.774 102.585 184.5C104.899 183.887 107.237 183.429 109.599 183.125Z" fill="#F20D8C"/>
<path opacity="0.728" fill-rule="evenodd" clip-rule="evenodd" d="M59.2466 178.875C61.0255 179.411 62.7791 179.994 64.5074 180.625C64.593 180.834 64.7599 180.918 65.0084 180.875C66.4799 181.67 68.0664 182.17 69.7681 182.375C71.5894 183.059 73.5098 183.559 75.5299 183.875C75.9105 184.102 76.3278 184.311 76.7825 184.5C79.7729 185.012 82.7791 185.387 85.801 185.625C86.2539 185.831 86.7131 186.081 87.1788 186.375C87.8196 185.963 88.0286 186.047 87.8051 186.625C86.8424 186.381 85.8403 186.381 84.7989 186.625C80.5943 186.134 76.5024 185.384 72.5238 184.375C72.377 184.427 72.2517 184.511 72.148 184.625C71.3131 184.292 70.4778 183.958 69.6429 183.625C69.5392 183.739 69.4139 183.823 69.2671 183.875C67.9722 183.395 66.6778 182.895 65.3842 182.375C64.9149 182.522 64.4973 182.355 64.1316 181.875C64.0356 182.014 63.9104 182.097 63.7558 182.125C63.8112 181.816 63.9783 181.566 64.2568 181.375C63.6604 180.869 62.9925 180.786 62.2527 181.125C62.2527 180.875 62.2527 180.625 62.2527 180.375C61.4423 180.088 60.6074 179.796 59.7476 179.5C59.5269 179.323 59.3601 179.114 59.2466 178.875Z" fill="#F00BA5"/>
<path fill-rule="evenodd" clip-rule="evenodd" d="M82.2935 183.875C87.9947 184.285 93.6731 184.201 99.3284 183.625C99.9965 183.625 100.664 183.625 101.333 183.625C101.228 183.806 101.061 183.931 100.832 184C96.6537 184.264 92.4786 184.556 88.3058 184.875C90.9728 185.125 93.645 185.208 96.3223 185.125C96.3223 185.208 96.3223 185.292 96.3223 185.375C90.1624 185.693 84.0667 185.276 78.0348 184.125C77.6543 183.897 77.2369 183.689 76.7822 183.5C78.6132 183.596 80.4502 183.721 82.2935 183.875Z" fill="#FD638B"/>
<path fill-rule="evenodd" clip-rule="evenodd" d="M113.608 180.375C113.608 180.625 113.608 180.875 113.608 181.125C113.16 181.054 112.742 181.137 112.355 181.375C111.289 181.966 111.373 182.216 112.606 182.125C111.583 182.406 110.581 182.739 109.6 183.125C107.237 183.429 104.899 183.888 102.585 184.5C100.503 184.774 98.4154 184.983 96.3226 185.125C93.6453 185.208 90.9731 185.125 88.3062 184.875C92.479 184.556 96.654 184.264 100.832 184C101.061 183.931 101.228 183.806 101.333 183.625C103.753 183.101 106.175 182.643 108.598 182.25C109.272 182.166 109.439 181.875 109.099 181.375C110.621 181.12 112.124 180.787 113.608 180.375Z" fill="#FE6581"/>
<path fill-rule="evenodd" clip-rule="evenodd" d="M75.5298 183.875C76.3647 183.958 77.2 184.042 78.0349 184.125C84.0668 185.276 90.1625 185.693 96.3224 185.375C92.8595 185.624 89.3524 185.707 85.8008 185.625C82.7789 185.387 79.7727 185.012 76.7824 184.5C76.3277 184.311 75.9103 184.103 75.5298 183.875Z" fill="#F73296"/>
<path opacity="0.935" fill-rule="evenodd" clip-rule="evenodd" d="M104.339 186.375C103.488 186.549 102.653 186.549 101.834 186.375C101.28 186.526 100.737 186.693 100.205 186.875C98.4176 186.796 96.5806 186.712 94.694 186.625C94.2764 186.792 93.859 186.958 93.4414 187.125C91.4995 186.738 89.6206 186.571 87.8049 186.625C88.0283 186.047 87.8194 185.963 87.1786 186.375C86.7129 186.081 86.2537 185.831 85.8008 185.625C89.3523 185.707 92.8595 185.624 96.3223 185.375C99.0016 185.303 101.674 185.137 104.339 184.875C104.339 185.375 104.339 185.875 104.339 186.375Z" fill="#F10494"/>
<path opacity="0.932" fill-rule="evenodd" clip-rule="evenodd" d="M450.1 48C454.245 48 458.391 48 462.537 48C462.537 51.902 462.537 55.804 462.537 59.7059C458.472 59.7467 454.406 59.7059 450.343 59.584C450.102 55.7415 450.022 51.8803 450.1 48Z" fill="#ED009C"/>
<path opacity="0.967" fill-rule="evenodd" clip-rule="evenodd" d="M225.559 51.0367C231.685 50.7326 237.229 52.3199 242.196 55.7986C246.348 59.7356 248.306 64.579 248.068 70.3285C243.828 70.3285 239.586 70.3285 235.345 70.3285C235.098 66.297 232.98 63.8955 228.984 63.1246C226.156 62.6811 223.463 63.0882 220.91 64.3456C218.774 66.0183 218.244 68.094 219.32 70.5727C220.105 71.473 221.043 72.1651 222.133 72.6484C223.501 73.1849 224.888 73.6733 226.293 74.1136C231.458 75.0723 236.432 76.6188 241.218 78.7534C248.584 83.0052 251.317 89.3136 249.414 97.6789C247.532 104.36 243.251 108.715 236.569 110.744C229.212 112.814 222.034 112.326 215.038 109.278C208.172 105.383 204.829 99.4818 205.007 91.5739C209.329 91.5739 213.652 91.5739 217.974 91.5739C218.21 96.2474 220.657 98.9742 225.314 99.7546C228.343 100.241 231.196 99.7524 233.877 98.2894C236.654 96.2801 237.347 93.716 235.957 90.5971C234.418 89.0782 232.583 88.0606 230.452 87.5446C226.856 86.6804 223.268 85.7849 219.687 84.8584C208.049 81.695 203.685 74.2469 206.597 62.5141C208.9 57.0411 212.937 53.5815 218.708 52.1356C221.007 51.6308 223.29 51.2645 225.559 51.0367Z" fill="#ED009C"/>
<path opacity="0.97" fill-rule="evenodd" clip-rule="evenodd" d="M389.619 51.902C398.154 51.8613 406.69 51.902 415.226 52.0239C428.875 53.8886 437.372 61.4894 440.71 74.8261C442.742 85.7721 439.857 95.1613 432.053 102.994C427.58 106.899 422.376 109.256 416.445 110.066C407.509 110.417 398.567 110.539 389.619 110.432C389.619 90.9218 389.619 71.4119 389.619 51.902ZM402.544 63.8518C405.715 63.8111 408.885 63.8518 412.055 63.9737C422.249 65.0636 427.614 70.7539 428.151 81.0449C427.641 91.472 422.237 97.2842 411.933 98.4819C408.843 98.1568 405.756 98.1568 402.666 98.4819C402.544 86.9388 402.503 75.3956 402.544 63.8518Z" fill="#ED009C"/>
<path opacity="0.968" fill-rule="evenodd" clip-rule="evenodd" d="M277.437 63.8518C283.649 63.5245 289.136 65.3129 293.899 69.217C294.25 67.8384 294.696 66.4971 295.24 65.1931C298.327 65.0712 301.417 65.0305 304.507 65.0712C304.507 80.1914 304.507 95.3115 304.507 110.432C301.254 110.472 298.003 110.432 294.752 110.31C294.294 109.083 293.928 107.822 293.655 106.53C288.019 110.997 281.637 112.583 274.511 111.285C265.809 109.332 259.917 104.17 256.83 95.7993C253.938 85.7036 256.174 76.9649 263.536 69.5828C267.614 66.3137 272.248 64.4035 277.437 63.8518ZM279.632 75.5578C288.875 76.3969 292.979 81.4368 291.948 90.6779C289.733 97.622 284.978 100.589 277.681 99.5793C272.845 98.3192 269.797 95.2708 268.536 90.434C267.641 81.9653 271.338 77.0066 279.632 75.5578Z" fill="#ED009C"/>
<path opacity="0.965" fill-rule="evenodd" clip-rule="evenodd" d="M492.534 63.8517C503.637 63.5674 511.483 68.4448 516.067 78.4841C517.533 82.5105 518.021 86.6563 517.531 90.9217C506.244 91.367 494.904 91.5702 483.51 91.5314C485.244 98.2203 489.551 101.147 496.436 100.311C499.482 99.7436 501.84 98.1584 503.508 95.5553C507.895 95.3114 512.285 95.2302 516.677 95.3114C513.538 104.422 507.198 109.828 497.655 111.529C485.752 112.47 477.338 107.552 472.414 96.7747C469.112 86.7785 470.983 77.9179 478.023 70.1924C482.176 66.4921 487.012 64.3785 492.534 63.8517ZM493.753 74.5822C499.469 74.6741 503.291 77.3974 505.215 82.7519C498.143 82.8739 491.07 82.9146 483.998 82.8739C485.386 77.9096 488.637 75.1457 493.753 74.5822Z" fill="#ED009C"/>
<path opacity="0.966" fill-rule="evenodd" clip-rule="evenodd" d="M543.504 63.852C549.842 63.5125 555.409 65.3821 560.209 69.4611C560.814 68.0866 561.423 66.7046 562.038 65.3152C564.796 65.1862 567.559 65.1862 570.33 65.3152C570.444 80.0345 570.322 94.7483 569.964 109.456C567.964 120.398 561.421 126.454 550.332 127.625C544.394 128.24 538.785 127.184 533.505 124.455C528.354 121.374 525.267 116.862 524.238 110.92C528.383 110.92 532.529 110.92 536.675 110.92C537.502 113.493 539.209 115.241 541.796 116.163C546.418 117.758 550.727 117.189 554.722 114.456C557.214 112.012 558.231 109.045 557.77 105.554C551.093 109.636 544.06 110.327 536.675 107.627C526.62 102.68 522.108 94.591 523.14 83.3619C525.372 72.0649 532.161 65.5615 543.504 63.852ZM544.723 75.3141C551.556 74.6375 555.905 77.564 557.77 84.0935C558.804 89.7077 556.892 93.9755 552.039 96.8969C546.323 99.1532 541.487 97.9743 537.529 93.3607C535.28 89.2268 535.117 84.9997 537.041 80.6793C538.838 77.7813 541.399 75.993 544.723 75.3141Z" fill="#ED009C"/>
<path opacity="0.969" fill-rule="evenodd" clip-rule="evenodd" d="M601.057 63.8519C611.142 63.4263 618.904 67.4095 624.347 75.8017C627.149 81.3578 627.964 87.2108 626.786 93.3606C624.698 101.708 619.616 107.358 611.544 110.31C602.74 113.069 594.612 111.769 587.157 106.408C579.445 99.4135 576.885 90.8372 579.475 80.6791C583.147 70.5418 590.342 64.9327 601.057 63.8519ZM602.277 75.5578C609.422 75.8346 613.527 79.4927 614.592 86.5321C614.575 96.0595 609.82 100.409 600.326 99.5793C595.47 98.3819 592.502 95.3335 591.424 90.4341C590.576 85.5837 591.917 81.4783 595.448 78.1185C597.558 76.7523 599.833 75.8987 602.277 75.5578Z" fill="#ED009C"/>
<path opacity="0.96" fill-rule="evenodd" clip-rule="evenodd" d="M340.113 64.0957C350.587 64.1237 356.562 69.3263 358.037 79.7036C358.159 89.9461 358.201 100.189 358.159 110.432C354.013 110.432 349.868 110.432 345.722 110.432C345.831 100.589 345.709 90.7526 345.356 80.923C344.485 76.9939 342.047 75.1242 338.04 75.3139C332.474 75.5941 329.304 78.5206 328.529 84.0933C328.407 92.8723 328.365 101.652 328.407 110.432C324.202 110.511 320.015 110.43 315.847 110.188C315.684 95.2303 315.684 80.2726 315.847 65.3151C318.718 64.9932 321.603 64.9932 324.505 65.3151C325.17 67.0527 325.902 68.7598 326.7 70.4364C330.404 66.673 334.877 64.5596 340.113 64.0957Z" fill="#ED009C"/>
<path opacity="0.943" fill-rule="evenodd" clip-rule="evenodd" d="M450.1 65.0712C454.304 64.992 458.492 65.0732 462.659 65.3151C462.823 80.2726 462.823 95.2304 462.659 110.188C458.492 110.43 454.304 110.511 450.1 110.432C450.1 95.3116 450.1 80.1914 450.1 65.0712Z" fill="#ED009C"/>
</svg>
