<?xml version="1.0" encoding="UTF-8"?>
<!DOCTYPE svg PUBLIC "-//W3C//DTD SVG 1.1//EN" "http://www.w3.org/Graphics/SVG/1.1/DTD/svg11.dtd">
<svg xmlns="http://www.w3.org/2000/svg" version="1.1" width="2672px" height="768px" style="shape-rendering:geometricPrecision; text-rendering:geometricPrecision; image-rendering:optimizeQuality; fill-rule:evenodd; clip-rule:evenodd" xmlns:xlink="http://www.w3.org/1999/xlink">
<g><path style="opacity:0.944" fill="#f3006d" d="M 452.5,25.5 C 452.163,27.672 451.163,29.5054 449.5,31C 449.667,31.5 449.833,32 450,32.5C 451,31.5 452,30.5 453,29.5C 453.169,31.6711 452.336,33.5044 450.5,35C 450.833,35.5 451.167,36 451.5,36.5C 452.451,35.6744 453.451,35.5078 454.5,36C 453.327,39.1103 453.827,39.277 456,36.5C 456.309,37.7659 456.809,38.9326 457.5,40C 456.906,40.4643 456.239,40.631 455.5,40.5C 447.833,40.5 440.167,40.5 432.5,40.5C 432.611,39.8826 432.944,39.3826 433.5,39C 432.139,37.4157 431.472,35.5824 431.5,33.5C 429.856,33.2865 428.356,33.6198 427,34.5C 426.333,33.5 426.333,32.5 427,31.5C 427.333,31.8333 427.667,32.1667 428,32.5C 429.067,31.8095 430.234,31.3095 431.5,31C 430.376,30.7508 429.376,30.2508 428.5,29.5C 429.326,28.549 429.492,27.549 429,26.5C 428.077,27.7588 427.243,29.0921 426.5,30.5C 425.749,29.624 425.249,28.624 425,27.5C 422.752,32.5095 420.919,32.1761 419.5,26.5C 423.407,26.7934 427.407,26.1267 431.5,24.5C 434.637,25.1241 437.803,24.7908 441,23.5C 444.791,24.2745 448.624,24.9412 452.5,25.5 Z"/></g>
<g><path style="opacity:0.932" fill="#f60066" d="M 487.5,31.5 C 489.513,34.3627 491.513,36.6961 493.5,38.5C 490.847,43.1894 491.347,43.5228 495,39.5C 495.617,40.4491 495.451,41.2825 494.5,42C 495.738,41.9227 496.738,42.0894 497.5,42.5C 496.482,43.8524 495.149,44.8524 493.5,45.5C 494.433,46.9847 494.1,48.3181 492.5,49.5C 484.761,47.039 477.261,44.7057 470,42.5C 469.586,42.9574 469.086,43.2907 468.5,43.5C 464.023,42.5946 459.689,41.5946 455.5,40.5C 456.239,40.631 456.906,40.4643 457.5,40C 456.809,38.9326 456.309,37.7659 456,36.5C 453.827,39.277 453.327,39.1103 454.5,36C 453.451,35.5078 452.451,35.6744 451.5,36.5C 451.167,36 450.833,35.5 450.5,35C 452.336,33.5044 453.169,31.6711 453,29.5C 452,30.5 451,31.5 450,32.5C 449.833,32 449.667,31.5 449.5,31C 451.163,29.5054 452.163,27.672 452.5,25.5C 455.964,25.442 459.464,25.442 463,25.5C 466.667,26.5 470.333,27.5 474,28.5C 477.656,27.8057 481.156,28.4724 484.5,30.5C 485.922,29.2232 486.922,29.5565 487.5,31.5 Z"/></g>
<g><path style="opacity:0.912" fill="#f60061" d="M 487.5,31.5 C 494.551,32.9458 501.051,35.6124 507,39.5C 507.333,39.1667 507.667,38.8333 508,38.5C 510.988,40.3991 513.821,42.3991 516.5,44.5C 515.522,44.811 514.855,45.4777 514.5,46.5C 515.617,49.114 517.284,51.2806 519.5,53C 518.167,54.3333 518.167,55.6667 519.5,57C 519.095,57.9454 518.428,58.6121 517.5,59C 519.061,59.941 520.395,61.1076 521.5,62.5C 521.043,63.2975 520.376,63.6309 519.5,63.5C 516.688,61.9235 514.022,60.0902 511.5,58C 510.551,57.3828 509.718,57.5494 509,58.5C 503.637,54.9837 498.137,51.9837 492.5,49.5C 494.1,48.3181 494.433,46.9847 493.5,45.5C 495.149,44.8524 496.482,43.8524 497.5,42.5C 496.738,42.0894 495.738,41.9227 494.5,42C 495.451,41.2825 495.617,40.4491 495,39.5C 491.347,43.5228 490.847,43.1894 493.5,38.5C 491.513,36.6961 489.513,34.3627 487.5,31.5 Z"/></g>
<g><path style="opacity:0.969" fill="#f30074" d="M 419.5,26.5 C 420.919,32.1761 422.752,32.5095 425,27.5C 425.249,28.624 425.749,29.624 426.5,30.5C 427.243,29.0921 428.077,27.7588 429,26.5C 429.492,27.549 429.326,28.549 428.5,29.5C 429.376,30.2508 430.376,30.7508 431.5,31C 430.234,31.3095 429.067,31.8095 428,32.5C 427.667,32.1667 427.333,31.8333 427,31.5C 426.333,32.5 426.333,33.5 427,34.5C 428.356,33.6198 429.856,33.2865 431.5,33.5C 431.472,35.5824 432.139,37.4157 433.5,39C 432.944,39.3826 432.611,39.8826 432.5,40.5C 418.126,41.3447 404.626,45.3447 392,52.5C 391.617,51.944 391.117,51.6107 390.5,51.5C 389.5,51.5 388.5,51.5 387.5,51.5C 387.859,49.2341 387.192,47.4007 385.5,46C 387.24,43.8524 387.573,41.6857 386.5,39.5C 396.764,33.3145 407.764,28.9811 419.5,26.5 Z"/></g>
<g><path style="opacity:0.913" fill="#f2027a" d="M 386.5,39.5 C 387.573,41.6857 387.24,43.8524 385.5,46C 387.192,47.4007 387.859,49.2341 387.5,51.5C 388.5,51.5 389.5,51.5 390.5,51.5C 384.862,55.2408 379.695,59.5741 375,64.5C 374.667,64.1667 374.333,63.8333 374,63.5C 370.293,67.6352 366.46,71.6352 362.5,75.5C 361.833,75.5 361.167,75.5 360.5,75.5C 356.398,73.7338 353.731,70.7338 352.5,66.5C 359.319,60.245 366.153,53.9116 373,47.5C 373.333,47.8333 373.667,48.1667 374,48.5C 377.697,44.9221 381.864,41.9221 386.5,39.5 Z"/></g>
<g><path style="opacity:0.759" fill="#fe6573" d="M 303.5,40.5 C 306.528,40.9649 309.362,41.9649 312,43.5C 312.333,43.1667 312.667,42.8333 313,42.5C 317.964,44.7277 323.131,47.2277 328.5,50C 336.355,55.7568 344.355,61.2568 352.5,66.5C 353.731,70.7338 356.398,73.7338 360.5,75.5C 359.032,76.7791 358.365,78.4458 358.5,80.5C 358.167,80.5 357.833,80.5 357.5,80.5C 357.5,79.1667 357.5,77.8333 357.5,76.5C 354.524,74.8731 351.524,73.2064 348.5,71.5C 334.981,60.8744 320.981,53.2077 306.5,48.5C 305.402,47.603 305.402,46.7697 306.5,46C 305.167,45.3333 303.833,44.6667 302.5,44C 304.373,43.0471 304.706,41.8804 303.5,40.5 Z"/></g>
<g><path style="opacity:0.839" fill="#ff6b7d" d="M 303.5,40.5 C 304.706,41.8804 304.373,43.0471 302.5,44C 303.833,44.6667 305.167,45.3333 306.5,46C 305.402,46.7697 305.402,47.603 306.5,48.5C 301.008,47.3174 295.508,46.3174 290,45.5C 287.347,47.0121 284.681,47.3455 282,46.5C 277.534,47.0756 273.2,48.0756 269,49.5C 268.667,49.1667 268.333,48.8333 268,48.5C 261.177,51.7537 254.011,54.4204 246.5,56.5C 245.458,55.2089 244.292,55.2089 243,56.5C 241.141,55.4209 239.641,54.0876 238.5,52.5C 242.113,50.6936 245.779,48.8603 249.5,47C 257.076,44.4746 264.576,41.9746 272,39.5C 273.545,39.3662 275.212,39.6995 277,40.5C 283.267,38.5435 289.267,37.8769 295,38.5C 297.942,39.7913 300.775,40.458 303.5,40.5 Z"/></g>
<g><path style="opacity:0.915" fill="#f6005c" d="M 570.5,133.5 C 570.5,134.167 570.167,134.5 569.5,134.5C 566.703,135.241 563.87,135.907 561,136.5C 559.93,136.472 559.097,136.139 558.5,135.5C 558.128,133.129 558.128,130.629 558.5,128C 556.285,126.609 556.285,124.943 558.5,123C 557.692,122.692 557.025,122.192 556.5,121.5C 558.922,119.714 558.922,118.048 556.5,116.5C 557.508,113.972 556.842,111.805 554.5,110C 554.645,109.228 554.978,108.561 555.5,108C 552.219,101.939 549.052,95.7725 546,89.5C 538.847,79.7017 530.014,71.035 519.5,63.5C 520.376,63.6309 521.043,63.2975 521.5,62.5C 520.395,61.1076 519.061,59.941 517.5,59C 518.428,58.6121 519.095,57.9454 519.5,57C 518.167,55.6667 518.167,54.3333 519.5,53C 517.284,51.2806 515.617,49.114 514.5,46.5C 514.855,45.4777 515.522,44.811 516.5,44.5C 517.117,44.3893 517.617,44.056 518,43.5C 524.5,48 531,52.5 537.5,57C 538.455,59.9521 540.788,62.1187 544.5,63.5C 546.715,68.2847 550.215,72.618 555,76.5C 559.913,85.6299 564.08,94.6299 567.5,103.5C 566.522,104.801 566.855,105.968 568.5,107C 568.241,108.261 567.574,109.261 566.5,110C 569.003,111.549 569.003,113.216 566.5,115C 567.056,117.237 568.056,119.237 569.5,121C 569.167,122.667 568.833,124.333 568.5,126C 569.357,126.689 570.023,127.522 570.5,128.5C 569.185,130.199 569.185,131.865 570.5,133.5 Z"/></g>
<g><path style="opacity:0.934" fill="#f20184" d="M 348.5,71.5 C 351.524,73.2064 354.524,74.8731 357.5,76.5C 357.5,77.8333 357.5,79.1667 357.5,80.5C 356.279,81.0283 355.113,81.695 354,82.5C 350.67,86.383 347.504,90.383 344.5,94.5C 337.285,100.73 330.618,107.564 324.5,115C 319.918,118.77 315.252,122.27 310.5,125.5C 309.395,123.847 309.229,122.18 310,120.5C 308.308,122.822 306.474,123.322 304.5,122C 307.344,121.093 308.844,119.259 309,116.5C 305.845,119.173 304.678,118.507 305.5,114.5C 306.192,115.025 306.692,115.692 307,116.5C 307.167,115.833 307.333,115.167 307.5,114.5C 306.775,113.133 306.108,111.8 305.5,110.5C 311.263,106.776 316.596,103.109 321.5,99.5C 330.168,89.832 339.168,80.4987 348.5,71.5 Z"/></g>
<g><path style="opacity:0.866" fill="#ff6f89" d="M 238.5,52.5 C 239.641,54.0876 241.141,55.4209 243,56.5C 244.292,55.2089 245.458,55.2089 246.5,56.5C 237.998,60.5122 230.164,65.5122 223,71.5C 222.667,71.1667 222.333,70.8333 222,70.5C 217.227,75.3355 212.227,80.0021 207,84.5C 202.224,92.2751 197.057,99.7751 191.5,107C 191.957,107.414 192.291,107.914 192.5,108.5C 190.808,110.359 189.308,112.359 188,114.5C 186.329,118.803 184.829,122.803 183.5,126.5C 181.833,127.5 180.5,128.833 179.5,130.5C 178.883,130.611 178.383,130.944 178,131.5C 177.878,129.563 177.045,128.23 175.5,127.5C 175.727,123.855 177.227,120.855 180,118.5C 180.564,114.873 182.064,111.707 184.5,109C 184.167,108.667 183.833,108.333 183.5,108C 188.191,98.532 194.025,89.3654 201,80.5C 211.891,69.1221 224.391,59.7888 238.5,52.5 Z"/></g>
<g><path style="opacity:0.839" fill="#ff6268" d="M 360.5,75.5 C 361.167,75.5 361.833,75.5 362.5,75.5C 362.783,76.2161 363.116,77.0494 363.5,78C 366.936,79.9443 369.769,82.4443 372,85.5C 373.833,86.6667 375.667,87.8333 377.5,89C 380.777,92.6568 384.111,96.3235 387.5,100C 396.675,106.087 405.675,112.421 414.5,119C 415.449,119.617 416.282,119.451 417,118.5C 421.861,121.79 426.861,124.79 432,127.5C 432.333,127.167 432.667,126.833 433,126.5C 436.811,128.574 440.644,130.574 444.5,132.5C 443.34,134.203 444.007,134.869 446.5,134.5C 446.33,135.822 446.663,136.989 447.5,138C 445.866,138.494 444.199,138.66 442.5,138.5C 438.03,137.67 433.863,136.004 430,133.5C 429.667,133.833 429.333,134.167 429,134.5C 423.566,131.839 418.399,128.672 413.5,125C 411.392,124.64 409.392,123.973 407.5,123C 398.036,116.692 389.036,109.859 380.5,102.5C 379.749,101.624 379.249,100.624 379,99.5C 371.544,93.7148 364.71,87.3815 358.5,80.5C 358.365,78.4458 359.032,76.7791 360.5,75.5 Z"/></g>
<g><path style="opacity:0.922" fill="#f1008c" d="M 305.5,110.5 C 306.108,111.8 306.775,113.133 307.5,114.5C 307.333,115.167 307.167,115.833 307,116.5C 306.692,115.692 306.192,115.025 305.5,114.5C 304.678,118.507 305.845,119.173 309,116.5C 308.844,119.259 307.344,121.093 304.5,122C 306.474,123.322 308.308,122.822 310,120.5C 309.229,122.18 309.395,123.847 310.5,125.5C 299.847,130.971 288.847,134.637 277.5,136.5C 278.473,134.7 279.473,132.866 280.5,131C 280.167,130.667 279.833,130.333 279.5,130C 281.875,127.76 284.542,125.926 287.5,124.5C 286.782,123.863 285.782,123.863 284.5,124.5C 282.84,125.787 281.174,127.12 279.5,128.5C 278.246,126.741 278.579,125.241 280.5,124C 282.044,123.71 283.377,123.044 284.5,122C 283.829,121.014 283.829,119.847 284.5,118.5C 291.818,116.675 298.818,114.008 305.5,110.5 Z"/></g>
<g><path style="opacity:0.938" fill="#f10092" d="M 284.5,118.5 C 283.829,119.847 283.829,121.014 284.5,122C 283.377,123.044 282.044,123.71 280.5,124C 278.579,125.241 278.246,126.741 279.5,128.5C 281.174,127.12 282.84,125.787 284.5,124.5C 285.782,123.863 286.782,123.863 287.5,124.5C 284.542,125.926 281.875,127.76 279.5,130C 279.833,130.333 280.167,130.667 280.5,131C 279.473,132.866 278.473,134.7 277.5,136.5C 268.141,138.975 258.807,140.642 249.5,141.5C 249.062,141.565 248.728,141.399 248.5,141C 250.5,140.333 251.833,139 252.5,137C 251.552,136.517 250.552,136.351 249.5,136.5C 249.421,135.07 249.754,133.736 250.5,132.5C 249.833,131.167 249.167,129.833 248.5,128.5C 249.533,127.548 250.7,127.548 252,128.5C 253.03,128.164 253.53,127.497 253.5,126.5C 263.724,123.693 274.058,121.027 284.5,118.5 Z"/></g>
<g><path style="opacity:0.896" fill="#f00098" d="M 253.5,126.5 C 253.53,127.497 253.03,128.164 252,128.5C 250.7,127.548 249.533,127.548 248.5,128.5C 249.167,129.833 249.833,131.167 250.5,132.5C 249.754,133.736 249.421,135.07 249.5,136.5C 250.552,136.351 251.552,136.517 252.5,137C 251.833,139 250.5,140.333 248.5,141C 248.728,141.399 249.062,141.565 249.5,141.5C 243.631,142.205 237.631,142.871 231.5,143.5C 224.739,142.402 218.073,141.735 211.5,141.5C 210.407,139.433 210.907,138.766 213,139.5C 213.667,138.167 213.667,136.833 213,135.5C 211.847,137.497 210.347,137.83 208.5,136.5C 209.833,134.833 211.167,133.167 212.5,131.5C 211.726,130.289 210.893,130.289 210,131.5C 209.333,130.833 208.667,130.167 208,129.5C 206.732,129.616 205.398,129.949 204,130.5C 203.53,129.423 203.697,128.423 204.5,127.5C 215.138,127.848 225.638,128.181 236,128.5C 241.736,127.01 247.569,126.343 253.5,126.5 Z"/></g>
<g><path style="opacity:0.939" fill="#ef04a5" d="M 175.5,127.5 C 174.977,130.89 174.143,134.223 173,137.5C 172.004,139.66 170.504,141.327 168.5,142.5C 163.853,143.544 158.853,144.211 153.5,144.5C 151.533,144.261 149.699,144.594 148,145.5C 147.009,144.061 145.676,143.061 144,142.5C 143.517,143.448 143.351,144.448 143.5,145.5C 144.552,145.351 145.552,145.517 146.5,146C 144.365,146.635 142.365,146.301 140.5,145C 141.973,144.29 142.64,143.124 142.5,141.5C 141.448,141.649 140.448,141.483 139.5,141C 141.192,139.599 141.859,137.766 141.5,135.5C 143.167,135.5 144.833,135.5 146.5,135.5C 145.874,139.195 146.874,140.029 149.5,138C 148.473,136.134 147.473,134.3 146.5,132.5C 155.47,129.058 165.136,127.391 175.5,127.5 Z"/></g>
<g><path style="opacity:0.945" fill="#f0029f" d="M 183.5,126.5 C 190.248,126.887 197.248,127.22 204.5,127.5C 203.697,128.423 203.53,129.423 204,130.5C 205.398,129.949 206.732,129.616 208,129.5C 208.667,130.167 209.333,130.833 210,131.5C 210.893,130.289 211.726,130.289 212.5,131.5C 211.167,133.167 209.833,134.833 208.5,136.5C 210.347,137.83 211.847,137.497 213,135.5C 213.667,136.833 213.667,138.167 213,139.5C 210.907,138.766 210.407,139.433 211.5,141.5C 200.271,140.32 188.938,140.32 177.5,141.5C 176.861,140.903 176.528,140.07 176.5,139C 177.367,136.104 178.367,133.271 179.5,130.5C 180.5,128.833 181.833,127.5 183.5,126.5 Z"/></g>
<g><path style="opacity:0.907" fill="#ef00ac" d="M 146.5,132.5 C 147.473,134.3 148.473,136.134 149.5,138C 146.874,140.029 145.874,139.195 146.5,135.5C 144.833,135.5 143.167,135.5 141.5,135.5C 141.859,137.766 141.192,139.599 139.5,141C 140.448,141.483 141.448,141.649 142.5,141.5C 142.64,143.124 141.973,144.29 140.5,145C 142.365,146.301 144.365,146.635 146.5,146C 145.552,145.517 144.552,145.351 143.5,145.5C 143.351,144.448 143.517,143.448 144,142.5C 145.676,143.061 147.009,144.061 148,145.5C 149.699,144.594 151.533,144.261 153.5,144.5C 144.408,148.88 135.408,153.547 126.5,158.5C 124.169,157.811 122.169,158.644 120.5,161C 118.833,161.667 117.167,161.667 115.5,161C 116.833,159.333 118.167,157.667 119.5,156C 118.397,154.32 118.73,152.82 120.5,151.5C 119.635,150.417 118.635,150.251 117.5,151C 117.833,151.333 118.167,151.667 118.5,152C 117.552,152.483 116.552,152.649 115.5,152.5C 115.737,151.209 115.404,150.209 114.5,149.5C 123.694,141.234 134.361,135.567 146.5,132.5 Z"/></g>
<g><path style="opacity:0.847" fill="#ff564a" d="M 629.5,133.5 C 629.5,136.167 629.5,138.833 629.5,141.5C 625.088,139.803 620.255,138.47 615,137.5C 614.667,137.833 614.333,138.167 614,138.5C 604.146,136.372 593.979,136.372 583.5,138.5C 582.558,138.392 581.725,138.059 581,137.5C 577.915,138.432 574.748,139.099 571.5,139.5C 571.167,139.5 570.833,139.5 570.5,139.5C 569.699,137.958 569.366,136.292 569.5,134.5C 570.167,134.5 570.5,134.167 570.5,133.5C 590.748,130.025 610.415,130.025 629.5,133.5 Z"/></g>
<g><path style="opacity:0.714" fill="#fe5753" d="M 569.5,134.5 C 569.366,136.292 569.699,137.958 570.5,139.5C 567.14,139.616 563.807,139.949 560.5,140.5C 560.737,141.791 560.404,142.791 559.5,143.5C 559.217,142.711 558.717,142.044 558,141.5C 554.241,142.49 550.407,143.323 546.5,144C 540.415,148.694 533.415,151.194 525.5,151.5C 526.803,148.15 526.137,147.816 523.5,150.5C 522.808,149.975 522.308,149.308 522,148.5C 520.612,149.554 519.112,149.72 517.5,149C 518.308,148.692 518.975,148.192 519.5,147.5C 518.726,146.289 517.893,146.289 517,147.5C 516.536,146.906 516.369,146.239 516.5,145.5C 518.567,145.466 520.734,145.466 523,145.5C 526.667,144.5 530.333,143.5 534,142.5C 535.667,142.833 537.333,143.167 539,143.5C 544.821,139.179 551.321,136.512 558.5,135.5C 559.097,136.139 559.93,136.472 561,136.5C 563.87,135.907 566.703,135.241 569.5,134.5 Z"/></g>
<g><path style="opacity:0.929" fill="#f6005b" d="M 570.5,139.5 C 570.833,139.5 571.167,139.5 571.5,139.5C 571.568,143.963 571.568,148.796 571.5,154C 573.271,157.932 573.604,161.932 572.5,166C 573.845,168.324 574.178,170.658 573.5,173C 574.652,183.904 576.985,194.571 580.5,205C 582.86,211.051 586.526,216.717 591.5,222C 591.167,222.333 590.833,222.667 590.5,223C 591.833,225.009 593.5,226.676 595.5,228C 595.167,228.333 594.833,228.667 594.5,229C 600.528,235.969 606.861,242.469 613.5,248.5C 612.603,249.598 611.77,249.598 611,248.5C 609.164,250.07 609.33,251.57 611.5,253C 611.265,253.873 610.931,254.707 610.5,255.5C 611.603,255.998 612.603,256.331 613.5,256.5C 612.948,258.003 612.948,259.669 613.5,261.5C 611.784,261.629 610.117,261.962 608.5,262.5C 603.908,260.401 600.075,257.401 597,253.5C 592.524,248.934 587.857,244.601 583,240.5C 577.854,233.542 573.354,226.376 569.5,219C 569.833,218.667 570.167,218.333 570.5,218C 568.974,216.411 567.807,214.577 567,212.5C 566.145,206.941 564.978,201.775 563.5,197C 562.907,193.445 562.907,189.779 563.5,186C 562.692,185.692 562.025,185.192 561.5,184.5C 561.457,173.264 561.457,162.097 561.5,151C 560.572,150.612 559.905,149.945 559.5,149C 559.622,147.061 559.622,145.228 559.5,143.5C 560.404,142.791 560.737,141.791 560.5,140.5C 563.807,139.949 567.14,139.616 570.5,139.5 Z"/></g>
<g><path style="opacity:0.754" fill="#ff5d5c" d="M 516.5,145.5 C 516.369,146.239 516.536,146.906 517,147.5C 517.893,146.289 518.726,146.289 519.5,147.5C 518.975,148.192 518.308,148.692 517.5,149C 519.112,149.72 520.612,149.554 522,148.5C 522.308,149.308 522.808,149.975 523.5,150.5C 526.137,147.816 526.803,148.15 525.5,151.5C 506.142,154.446 487.476,153.113 469.5,147.5C 468.914,147.709 468.414,148.043 468,148.5C 464.883,146.716 461.55,145.383 458,144.5C 457.667,144.833 457.333,145.167 457,145.5C 451.989,143.242 447.155,140.909 442.5,138.5C 444.199,138.66 445.866,138.494 447.5,138C 446.663,136.989 446.33,135.822 446.5,134.5C 444.007,134.869 443.34,134.203 444.5,132.5C 444.435,132.062 444.601,131.728 445,131.5C 447.98,133.535 451.147,135.202 454.5,136.5C 455.086,136.291 455.586,135.957 456,135.5C 459.117,137.284 462.45,138.617 466,139.5C 466.414,139.043 466.914,138.709 467.5,138.5C 474.297,140.767 481.13,142.767 488,144.5C 492,145.833 496,145.833 500,144.5C 501.667,145.167 503.333,145.833 505,146.5C 508.621,146.244 512.455,145.91 516.5,145.5 Z"/></g>
<g><path style="opacity:0.804" fill="#fe503e" d="M 629.5,133.5 C 636.451,135.605 643.117,138.438 649.5,142C 653.515,146.023 657.848,149.689 662.5,153C 667.057,157.955 671.724,162.788 676.5,167.5C 683.01,178.559 688.677,189.226 693.5,199.5C 696.885,210.247 698.552,220.914 698.5,231.5C 697.926,233.059 697.26,234.559 696.5,236C 697.187,238.232 697.521,240.398 697.5,242.5C 695.472,245.844 694.806,249.344 695.5,253C 693.833,256.667 692.167,260.333 690.5,264C 690.694,265.903 690.694,267.737 690.5,269.5C 689.5,270.833 688.5,272.167 687.5,273.5C 687.709,274.086 688.043,274.586 688.5,275C 686.578,276.46 685.911,278.127 686.5,280C 685.695,281.113 685.028,282.279 684.5,283.5C 683.504,283.414 682.671,283.748 682,284.5C 680.721,288.169 679.554,291.836 678.5,295.5C 678.804,296.15 679.137,296.817 679.5,297.5C 676.675,300.843 674.675,304.176 673.5,307.5C 672.838,305.53 672.172,303.53 671.5,301.5C 673.176,300.272 673.509,298.939 672.5,297.5C 673.684,296.312 673.684,295.145 672.5,294C 673.381,293.292 674.047,292.458 674.5,291.5C 676.776,288.207 678.109,284.54 678.5,280.5C 680.427,274.021 683.094,267.188 686.5,260C 685.273,258.413 685.606,257.079 687.5,256C 686.216,254.703 686.383,253.536 688,252.5C 688.287,250.109 688.787,247.776 689.5,245.5C 689.291,244.914 688.957,244.414 688.5,244C 691.766,236.53 692.099,229.03 689.5,221.5C 690.022,220.393 690.355,219.226 690.5,218C 685.904,200.234 678.57,184.234 668.5,170C 661.67,162.564 654.337,155.564 646.5,149C 641.077,145.955 635.411,143.455 629.5,141.5C 629.5,138.833 629.5,136.167 629.5,133.5 Z"/></g>
<g><path style="opacity:0.961" fill="#ed00b5" d="M 114.5,149.5 C 115.404,150.209 115.737,151.209 115.5,152.5C 116.552,152.649 117.552,152.483 118.5,152C 118.167,151.667 117.833,151.333 117.5,151C 118.635,150.251 119.635,150.417 120.5,151.5C 118.73,152.82 118.397,154.32 119.5,156C 118.167,157.667 116.833,159.333 115.5,161C 117.167,161.667 118.833,161.667 120.5,161C 122.169,158.644 124.169,157.811 126.5,158.5C 126.586,159.496 126.252,160.329 125.5,161C 121.497,163.589 117.997,166.756 115,170.5C 114.667,170.167 114.333,169.833 114,169.5C 104.217,181.687 94.8838,194.353 86,207.5C 84.1517,211.859 82.3183,216.192 80.5,220.5C 78.0144,219.538 78.0144,218.705 80.5,218C 79.2513,216.176 78.0847,216.343 77,218.5C 76.2276,217.151 75.0609,216.318 73.5,216C 75.8689,215.464 77.8689,214.297 79.5,212.5C 79.1543,211.304 78.6543,211.304 78,212.5C 77.6886,211.258 78.1886,210.258 79.5,209.5C 79.1543,208.304 78.6543,208.304 78,209.5C 77.6964,207.559 76.8631,205.893 75.5,204.5C 76.6405,203.575 76.6405,202.741 75.5,202C 78.1667,201.333 78.1667,200.667 75.5,200C 76.5,198.333 77.5,196.667 78.5,195C 77.9558,194.283 77.2891,193.783 76.5,193.5C 82.5028,185.323 88.3361,176.99 94,168.5C 98.3839,163.571 102.884,158.738 107.5,154C 109.717,152.277 112.05,150.777 114.5,149.5 Z"/></g>
<g><path style="opacity:0.85" fill="#fe7596" d="M 175.5,127.5 C 177.045,128.23 177.878,129.563 178,131.5C 178.383,130.944 178.883,130.611 179.5,130.5C 178.367,133.271 177.367,136.104 176.5,139C 176.528,140.07 176.861,140.903 177.5,141.5C 172.741,149.839 168.574,158.506 165,167.5C 159.167,175.833 153.333,184.167 147.5,192.5C 146.372,193.262 145.205,193.929 144,194.5C 137.373,202.808 130.54,210.808 123.5,218.5C 123.423,217.25 122.756,216.417 121.5,216C 123.701,215.223 123.701,214.056 121.5,212.5C 120.304,212.846 120.304,213.346 121.5,214C 120.552,214.483 119.552,214.649 118.5,214.5C 120.079,210.259 122.746,206.925 126.5,204.5C 130.86,199.813 134.86,194.813 138.5,189.5C 139.628,188.738 140.795,188.071 142,187.5C 146.944,179.557 152.277,171.891 158,164.5C 161.639,157.545 165.139,150.211 168.5,142.5C 170.504,141.327 172.004,139.66 173,137.5C 174.143,134.223 174.977,130.89 175.5,127.5 Z"/></g>
<g><path style="opacity:0.857" fill="#fe799f" d="M 123.5,218.5 C 120.191,221.662 117.357,225.328 115,229.5C 114,229.833 113,230.167 112,230.5C 110.008,234.65 107.174,237.984 103.5,240.5C 97.3489,249.677 90.6822,258.344 83.5,266.5C 81.8008,266.66 80.1341,266.494 78.5,266C 79.2871,264.687 78.9538,263.52 77.5,262.5C 84.4899,254.324 90.9899,245.657 97,236.5C 101.092,233.661 104.259,229.994 106.5,225.5C 110.147,222.848 113.147,219.515 115.5,215.5C 116.325,214.614 117.325,214.281 118.5,214.5C 119.552,214.649 120.552,214.483 121.5,214C 120.304,213.346 120.304,212.846 121.5,212.5C 123.701,214.056 123.701,215.223 121.5,216C 122.756,216.417 123.423,217.25 123.5,218.5 Z"/></g>
<g><path style="opacity:0.965" fill="#ed02bd" d="M 76.5,193.5 C 77.2891,193.783 77.9558,194.283 78.5,195C 77.5,196.667 76.5,198.333 75.5,200C 78.1667,200.667 78.1667,201.333 75.5,202C 76.6405,202.741 76.6405,203.575 75.5,204.5C 76.8631,205.893 77.6964,207.559 78,209.5C 78.6543,208.304 79.1543,208.304 79.5,209.5C 78.1886,210.258 77.6886,211.258 78,212.5C 78.6543,211.304 79.1543,211.304 79.5,212.5C 77.8689,214.297 75.8689,215.464 73.5,216C 75.0609,216.318 76.2276,217.151 77,218.5C 78.0847,216.343 79.2513,216.176 80.5,218C 78.0144,218.705 78.0144,219.538 80.5,220.5C 79.486,224.295 77.486,227.795 74.5,231C 75.4506,231.718 75.6172,232.551 75,233.5C 72.6612,235.14 71.8279,237.14 72.5,239.5C 71.6872,240.814 70.6872,241.981 69.5,243C 69.6938,244.903 69.6938,246.737 69.5,248.5C 68.5,249.833 67.5,251.167 66.5,252.5C 66.7093,253.086 67.0426,253.586 67.5,254C 65.8333,257.667 64.1667,261.333 62.5,265C 62.9574,265.414 63.2907,265.914 63.5,266.5C 61.6681,274.158 60.0014,281.824 58.5,289.5C 56.1722,295.497 53.8388,301.497 51.5,307.5C 50.5,308.167 49.5,308.833 48.5,309.5C 48.9671,305.097 50.3004,301.097 52.5,297.5C 52.4099,295.772 52.0766,294.106 51.5,292.5C 53.8022,291.001 53.4689,289.668 50.5,288.5C 53.6135,286.953 54.1135,284.62 52,281.5C 46.3342,280.739 46.1676,279.572 51.5,278C 51.0385,276.278 50.8718,274.445 51,272.5C 49.9783,271.646 49.1449,270.646 48.5,269.5C 49.6953,268.033 49.6953,266.533 48.5,265C 48.7591,263.739 49.4258,262.739 50.5,262C 49.9341,261.005 49.2674,260.172 48.5,259.5C 55.1635,235.911 64.4968,213.911 76.5,193.5 Z"/></g>
<g><path style="opacity:0.932" fill="#fefffe" d="M 1928.5,229.5 C 1945.5,229.5 1962.5,229.5 1979.5,229.5C 1979.5,245.5 1979.5,261.5 1979.5,277.5C 1962.83,277.667 1946.16,277.5 1929.5,277C 1928.51,261.244 1928.18,245.411 1928.5,229.5 Z"/></g>
<g><path style="opacity:0.967" fill="#fefffe" d="M 1007.5,240.5 C 1032.54,239.255 1055.2,245.755 1075.5,260C 1092.47,276.122 1100.47,295.956 1099.5,319.5C 1082.17,319.5 1064.83,319.5 1047.5,319.5C 1046.49,302.991 1037.83,293.157 1021.5,290C 1009.94,288.184 998.935,289.851 988.5,295C 979.771,301.85 977.604,310.35 982,320.5C 985.21,324.187 989.044,327.021 993.5,329C 999.091,331.197 1004.76,333.197 1010.5,335C 1031.61,338.926 1051.94,345.259 1071.5,354C 1101.61,371.411 1112.78,397.244 1105,431.5C 1097.31,458.859 1079.81,476.692 1052.5,485C 1022.43,493.478 993.094,491.478 964.5,479C 936.438,463.05 922.772,438.883 923.5,406.5C 941.167,406.5 958.833,406.5 976.5,406.5C 977.466,425.638 987.466,436.804 1006.5,440C 1018.88,441.991 1030.54,439.991 1041.5,434C 1052.85,425.772 1055.68,415.272 1050,402.5C 1043.71,396.28 1036.21,392.113 1027.5,390C 1012.8,386.461 998.136,382.794 983.5,379C 935.933,366.046 918.099,335.546 930,287.5C 939.413,265.088 955.913,250.921 979.5,245C 988.894,242.933 998.227,241.433 1007.5,240.5 Z"/></g>
<g><path style="opacity:0.97" fill="#fefffe" d="M 1680.5,245.5 C 1715.5,245.333 1750.5,245.5 1785.5,246C 1841.47,253.646 1876.31,284.813 1890,339.5C 1898.33,384.384 1886.5,422.884 1854.5,455C 1836.16,471.014 1814.82,480.681 1790.5,484C 1753.86,485.44 1717.19,485.94 1680.5,485.5C 1680.5,405.5 1680.5,325.5 1680.5,245.5 Z M 1733.5,294.5 C 1746.5,294.333 1759.5,294.5 1772.5,295C 1814.3,299.469 1836.3,322.802 1838.5,365C 1836.41,407.756 1814.25,431.589 1772,436.5C 1759.33,435.167 1746.67,435.167 1734,436.5C 1733.5,389.168 1733.33,341.835 1733.5,294.5 Z"/></g>
<g><path style="opacity:0.908" fill="#f70054" d="M 613.5,248.5 C 620.306,254.312 627.639,259.312 635.5,263.5C 635.062,263.435 634.728,263.601 634.5,264C 635.833,264.667 636.833,265.667 637.5,267C 636.709,269.75 636.709,272.583 637.5,275.5C 639.308,275.491 640.975,275.991 642.5,277C 641.584,277.278 640.918,277.778 640.5,278.5C 632.378,275.52 624.378,272.353 616.5,269C 613.58,267.054 610.913,264.887 608.5,262.5C 610.117,261.962 611.784,261.629 613.5,261.5C 612.948,259.669 612.948,258.003 613.5,256.5C 612.603,256.331 611.603,255.998 610.5,255.5C 610.931,254.707 611.265,253.873 611.5,253C 609.33,251.57 609.164,250.07 611,248.5C 611.77,249.598 612.603,249.598 613.5,248.5 Z"/></g>
<g><path style="opacity:0.897" fill="#f7004e" d="M 635.5,263.5 C 646.681,266.866 657.348,271.366 667.5,277C 671.366,277.713 675.033,278.88 678.5,280.5C 678.109,284.54 676.776,288.207 674.5,291.5C 671.708,292.02 669.208,291.02 667,288.5C 666.586,288.957 666.086,289.291 665.5,289.5C 657.445,285.078 649.111,281.411 640.5,278.5C 640.918,277.778 641.584,277.278 642.5,277C 640.975,275.991 639.308,275.491 637.5,275.5C 636.709,272.583 636.709,269.75 637.5,267C 636.833,265.667 635.833,264.667 634.5,264C 634.728,263.601 635.062,263.435 635.5,263.5 Z"/></g>
<g><path style="opacity:0.918" fill="#eb03c2" d="M 48.5,259.5 C 49.2674,260.172 49.9341,261.005 50.5,262C 49.4258,262.739 48.7591,263.739 48.5,265C 49.6953,266.533 49.6953,268.033 48.5,269.5C 49.1449,270.646 49.9783,271.646 51,272.5C 50.8718,274.445 51.0385,276.278 51.5,278C 46.1676,279.572 46.3342,280.739 52,281.5C 54.1135,284.62 53.6135,286.953 50.5,288.5C 53.4689,289.668 53.8022,291.001 51.5,292.5C 52.0766,294.106 52.4099,295.772 52.5,297.5C 50.3004,301.097 48.9671,305.097 48.5,309.5C 46.3993,312.127 45.0659,315.127 44.5,318.5C 42.5201,319.484 40.8534,320.817 39.5,322.5C 39.9642,317.209 39.9642,312.042 39.5,307C 40.1667,306.333 40.8333,305.667 41.5,305C 40.9491,303.602 40.6158,302.268 40.5,301C 42.0882,297.308 42.4216,293.474 41.5,289.5C 43.5445,279.436 45.8779,269.436 48.5,259.5 Z"/></g>
<g><path style="opacity:0.832" fill="#ff7ba7" d="M 77.5,262.5 C 78.9538,263.52 79.2871,264.687 78.5,266C 80.1341,266.494 81.8008,266.66 83.5,266.5C 76.8363,277.153 69.6697,287.486 62,297.5C 61.6321,301.686 59.7987,305.02 56.5,307.5C 54.857,307.48 53.5237,308.147 52.5,309.5C 51.7025,309.043 51.3691,308.376 51.5,307.5C 53.8388,301.497 56.1722,295.497 58.5,289.5C 65.0669,280.713 71.4002,271.713 77.5,262.5 Z"/></g>
<g><path style="opacity:0.898" fill="#f80148" d="M 684.5,283.5 C 691.352,286.847 697.852,290.847 704,295.5C 704.414,295.043 704.914,294.709 705.5,294.5C 707.033,297.259 709.033,299.592 711.5,301.5C 711.586,302.496 711.252,303.329 710.5,304C 712.059,304.98 713.726,305.813 715.5,306.5C 711.993,308.478 711.16,311.145 713,314.5C 714.284,313.428 714.617,312.095 714,310.5C 714.965,308.74 716.132,308.406 717.5,309.5C 716.342,312.676 714.675,315.51 712.5,318C 712.667,318.5 712.833,319 713,319.5C 714.242,318.128 715.742,317.128 717.5,316.5C 718.571,318.325 717.904,319.492 715.5,320C 717.112,320.72 718.612,320.554 720,319.5C 720.5,320 721,320.5 721.5,321C 718.975,321.424 716.975,322.59 715.5,324.5C 711.114,319.879 706.781,315.046 702.5,310C 695.557,305.723 688.89,301.056 682.5,296C 681.207,295.51 679.873,295.343 678.5,295.5C 679.554,291.836 680.721,288.169 682,284.5C 682.671,283.748 683.504,283.414 684.5,283.5 Z"/></g>
<g><path style="opacity:0.968" fill="#fefffe" d="M 1220.5,294.5 C 1245.97,293.158 1268.47,300.491 1288,316.5C 1289.44,310.847 1291.27,305.347 1293.5,300C 1306.16,299.5 1318.83,299.333 1331.5,299.5C 1331.5,361.5 1331.5,423.5 1331.5,485.5C 1318.16,485.667 1304.83,485.5 1291.5,485C 1289.62,479.968 1288.12,474.801 1287,469.5C 1263.89,487.82 1237.72,494.32 1208.5,489C 1172.82,480.991 1148.66,459.825 1136,425.5C 1124.14,384.103 1133.31,348.27 1163.5,318C 1180.22,304.595 1199.22,296.762 1220.5,294.5 Z M 1229.5,342.5 C 1267.4,345.941 1284.23,366.607 1280,404.5C 1270.92,432.974 1251.42,445.141 1221.5,441C 1201.67,435.833 1189.17,423.333 1184,403.5C 1180.33,368.774 1195.49,348.441 1229.5,342.5 Z"/></g>
<g><path style="opacity:0.965" fill="#fefffe" d="M 2102.5,294.5 C 2148.03,293.334 2180.2,313.334 2199,354.5C 2205.01,371.01 2207.01,388.01 2205,405.5C 2158.72,407.326 2112.22,408.159 2065.5,408C 2072.61,435.428 2090.27,447.428 2118.5,444C 2130.99,441.674 2140.66,435.174 2147.5,424.5C 2165.49,423.5 2183.49,423.167 2201.5,423.5C 2188.63,460.859 2162.63,483.025 2123.5,490C 2074.69,493.86 2040.19,473.693 2020,429.5C 2006.46,388.511 2014.13,352.178 2043,320.5C 2060.03,305.327 2079.86,296.66 2102.5,294.5 Z M 2107.5,338.5 C 2130.94,338.877 2146.61,350.044 2154.5,372C 2125.5,372.5 2096.5,372.667 2067.5,372.5C 2073.19,352.144 2086.52,340.811 2107.5,338.5 Z"/></g>
<g><path style="opacity:0.966" fill="#fefffe" d="M 2311.5,294.5 C 2337.49,293.108 2360.32,300.774 2380,317.5C 2382.48,311.864 2384.98,306.197 2387.5,300.5C 2398.81,299.971 2410.14,299.971 2421.5,300.5C 2421.97,360.856 2421.47,421.19 2420,481.5C 2411.8,526.364 2384.97,551.197 2339.5,556C 2315.15,558.524 2292.15,554.19 2270.5,543C 2249.38,530.368 2236.72,511.868 2232.5,487.5C 2249.5,487.5 2266.5,487.5 2283.5,487.5C 2286.89,498.054 2293.89,505.221 2304.5,509C 2323.45,515.54 2341.12,513.206 2357.5,502C 2367.72,491.98 2371.89,479.814 2370,465.5C 2342.62,482.235 2313.78,485.068 2283.5,474C 2242.27,453.712 2223.77,420.545 2228,374.5C 2237.15,328.177 2264.99,301.51 2311.5,294.5 Z M 2316.5,341.5 C 2344.52,338.726 2362.35,350.726 2370,377.5C 2374.24,400.521 2366.4,418.021 2346.5,430C 2323.06,439.252 2303.23,434.418 2287,415.5C 2277.78,398.549 2277.11,381.216 2285,363.5C 2292.37,351.617 2302.87,344.284 2316.5,341.5 Z"/></g>
<g><path style="opacity:0.969" fill="#fefffe" d="M 2547.5,294.5 C 2588.85,292.755 2620.68,309.088 2643,343.5C 2654.49,366.283 2657.83,390.283 2653,415.5C 2644.44,449.728 2623.6,472.895 2590.5,485C 2554.4,496.316 2521.07,490.983 2490.5,469C 2458.88,440.32 2448.38,405.153 2459,363.5C 2474.06,321.932 2503.56,298.932 2547.5,294.5 Z M 2552.5,342.5 C 2581.8,343.635 2598.63,358.635 2603,387.5C 2602.93,426.567 2583.43,444.401 2544.5,441C 2524.59,436.09 2512.42,423.59 2508,403.5C 2504.52,383.611 2510.02,366.777 2524.5,353C 2533.15,347.398 2542.48,343.898 2552.5,342.5 Z"/></g>
<g><path style="opacity:0.96" fill="#fefffe" d="M 1477.5,295.5 C 1520.45,295.615 1544.95,316.948 1551,359.5C 1551.5,401.499 1551.67,443.499 1551.5,485.5C 1534.5,485.5 1517.5,485.5 1500.5,485.5C 1500.95,445.139 1500.45,404.806 1499,364.5C 1495.43,348.389 1485.43,340.722 1469,341.5C 1446.18,342.649 1433.18,354.649 1430,377.5C 1429.5,413.498 1429.33,449.498 1429.5,485.5C 1412.26,485.825 1395.09,485.492 1378,484.5C 1377.33,423.167 1377.33,361.833 1378,300.5C 1389.77,299.18 1401.6,299.18 1413.5,300.5C 1416.23,307.625 1419.23,314.625 1422.5,321.5C 1437.69,306.068 1456.03,297.402 1477.5,295.5 Z"/></g>
<g><path style="opacity:0.943" fill="#fefffe" d="M 1928.5,299.5 C 1945.74,299.175 1962.91,299.508 1980,300.5C 1980.67,361.833 1980.67,423.167 1980,484.5C 1962.91,485.492 1945.74,485.825 1928.5,485.5C 1928.5,423.5 1928.5,361.5 1928.5,299.5 Z"/></g>
<g><path style="opacity:0.945" fill="#f70043" d="M 711.5,301.5 C 713.255,302.072 714.922,302.906 716.5,304C 729.834,316.737 739.167,332.571 744.5,351.5C 748.463,369.95 749.796,388.283 748.5,406.5C 747.855,411.858 746.522,417.024 744.5,422C 745.056,422.383 745.389,422.883 745.5,423.5C 744.001,422.322 743.001,420.655 742.5,418.5C 742.042,421.692 740.376,423.858 737.5,425C 737.833,425.333 738.167,425.667 738.5,426C 737.517,426.591 736.85,426.257 736.5,425C 737.509,423.832 738.509,422.665 739.5,421.5C 738.624,420.749 737.624,420.249 736.5,420C 738.221,418.473 740.221,417.473 742.5,417C 741.167,416.333 739.833,415.667 738.5,415C 739.961,412.015 739.295,409.515 736.5,407.5C 739.044,406.063 739.044,404.563 736.5,403C 738.975,401.257 738.975,400.257 736.5,400C 735.874,400.75 735.374,401.584 735,402.5C 734.329,401.748 733.496,401.414 732.5,401.5C 732.034,395.236 732.034,388.736 732.5,382C 731.567,360.765 725.901,341.598 715.5,324.5C 716.975,322.59 718.975,321.424 721.5,321C 721,320.5 720.5,320 720,319.5C 718.612,320.554 717.112,320.72 715.5,320C 717.904,319.492 718.571,318.325 717.5,316.5C 715.742,317.128 714.242,318.128 713,319.5C 712.833,319 712.667,318.5 712.5,318C 714.675,315.51 716.342,312.676 717.5,309.5C 716.132,308.406 714.965,308.74 714,310.5C 714.617,312.095 714.284,313.428 713,314.5C 711.16,311.145 711.993,308.478 715.5,306.5C 713.726,305.813 712.059,304.98 710.5,304C 711.252,303.329 711.586,302.496 711.5,301.5 Z"/></g>
<g><path style="opacity:0.817" fill="#ff5549" d="M 672.5,297.5 C 673.509,298.939 673.176,300.272 671.5,301.5C 672.172,303.53 672.838,305.53 673.5,307.5C 674.749,309.829 674.082,311.662 671.5,313C 672.5,315.091 671.833,316.757 669.5,318C 670.367,320.316 669.701,322.316 667.5,324C 667.833,324.333 668.167,324.667 668.5,325C 661.503,345.867 660.17,366.867 664.5,388C 664.503,402.39 666.503,416.723 670.5,431C 671.819,442.578 673.819,454.244 676.5,466C 676.167,466.333 675.833,466.667 675.5,467C 676.516,467.519 677.182,468.353 677.5,469.5C 680.258,479.365 682.591,489.365 684.5,499.5C 684.577,503.877 685.077,508.21 686,512.5C 686.099,514.653 686.933,516.319 688.5,517.5C 689.596,526.335 690.262,534.835 690.5,543C 689.393,546.977 688.393,550.977 687.5,555C 687.833,555.333 688.167,555.667 688.5,556C 686.83,559.509 685.496,562.843 684.5,566C 685.5,568.091 684.833,569.757 682.5,571C 682.957,571.414 683.291,571.914 683.5,572.5C 678.602,581.957 672.936,590.957 666.5,599.5C 664.121,598.438 664.121,597.105 666.5,595.5C 666.167,595.167 665.833,594.833 665.5,594.5C 664.416,595.665 663.583,596.998 663,598.5C 662.175,596.299 662.675,594.466 664.5,593C 663.944,592.617 663.611,592.117 663.5,591.5C 668.23,584.534 672.563,577.368 676.5,570C 676.043,569.586 675.709,569.086 675.5,568.5C 676.5,567.167 677.5,565.833 678.5,564.5C 678.291,563.914 677.957,563.414 677.5,563C 679.073,557.393 680.739,552.06 682.5,547C 682.299,539.67 682.299,532.17 682.5,524.5C 682.717,518.768 682.217,513.101 681,507.5C 680.292,506.619 679.458,505.953 678.5,505.5C 674.591,487.59 670.091,469.59 665,451.5C 661.92,434.407 659.253,417.407 657,400.5C 656.65,395.816 656.15,391.149 655.5,386.5C 656.205,383.227 655.872,379.893 654.5,376.5C 654.574,367.241 654.574,358.241 654.5,349.5C 654.952,344.329 656.285,339.163 658.5,334C 658.043,333.586 657.709,333.086 657.5,332.5C 662.276,320.628 667.276,308.961 672.5,297.5 Z"/></g>
<g><path style="opacity:1" fill="#fd73ae" d="M 51.5,307.5 C 51.3691,308.376 51.7025,309.043 52.5,309.5C 53.5237,308.147 54.857,307.48 56.5,307.5C 56.5,308.5 56.5,309.5 56.5,310.5C 55.2905,310.932 54.2905,311.599 53.5,312.5C 49.2836,315.268 47.117,319.268 47,324.5C 46,325.833 45,327.167 44,328.5C 43.4294,332.167 42.2627,335.5 40.5,338.5C 40.5,336.833 40.5,335.167 40.5,333.5C 39.209,333.737 38.209,333.404 37.5,332.5C 37.5,331.167 37.5,329.833 37.5,328.5C 39.0174,328.489 40.1841,327.823 41,326.5C 42.8448,324.133 44.0114,321.467 44.5,318.5C 45.0659,315.127 46.3993,312.127 48.5,309.5C 49.5,308.833 50.5,308.167 51.5,307.5 Z"/></g>
<g><path style="opacity:0.965" fill="#f53bbc" d="M 44.5,318.5 C 44.0114,321.467 42.8448,324.133 41,326.5C 40.1841,327.823 39.0174,328.489 37.5,328.5C 38.1667,326.5 38.8333,324.5 39.5,322.5C 40.8534,320.817 42.5201,319.484 44.5,318.5 Z"/></g>
<g><path style="opacity:1" fill="#f53aba" d="M 53.5,312.5 C 53.6567,313.873 53.49,315.207 53,316.5C 51.2897,319.972 49.2897,323.305 47,326.5C 45.0827,332.12 42.9161,337.453 40.5,342.5C 40.5,341.167 40.5,339.833 40.5,338.5C 42.2627,335.5 43.4294,332.167 44,328.5C 45,327.167 46,325.833 47,324.5C 47.117,319.268 49.2836,315.268 53.5,312.5 Z"/></g>
<g><path style="opacity:0.964" fill="#ed009c" d="M 186.5,340.5 C 199.186,338.604 210.853,341.104 221.5,348C 228.538,354.599 232.205,362.766 232.5,372.5C 227.544,373.494 222.544,373.827 217.5,373.5C 216.329,360.224 208.995,353.89 195.5,354.5C 183.666,353.563 176.332,358.73 173.5,370C 174.233,374.724 176.566,378.391 180.5,381C 192.35,384.966 204.35,388.632 216.5,392C 231.986,398.47 237.819,409.97 234,426.5C 229.62,438.54 221.12,446.04 208.5,449C 194.577,451.709 181.577,449.376 169.5,442C 160.558,435.013 156.558,425.846 157.5,414.5C 162.179,414.334 166.845,414.501 171.5,415C 172.543,426.046 178.543,432.713 189.5,435C 200.088,437.231 209.255,434.731 217,427.5C 222.542,416.09 219.376,408.257 207.5,404C 194.693,401.383 182.359,397.383 170.5,392C 160.9,384.877 157.4,375.377 160,363.5C 164.115,350.364 172.948,342.698 186.5,340.5 Z"/></g>
<g><path style="opacity:0.961" fill="#ed009c" d="M 515.5,340.5 C 542.597,336.631 562.43,346.631 575,370.5C 576.136,373.096 576.969,375.763 577.5,378.5C 572.489,378.666 567.489,378.499 562.5,378C 553.831,359.328 539.164,351.662 518.5,355C 497.961,360.531 487.294,374.031 486.5,395.5C 489.738,425.564 506.404,438.731 536.5,435C 549.576,431.591 558.576,423.591 563.5,411C 568.155,410.501 572.821,410.334 577.5,410.5C 570.525,436.462 553.525,449.796 526.5,450.5C 492.5,447.833 474.167,429.5 471.5,395.5C 473.002,366.358 487.669,348.025 515.5,340.5 Z"/></g>
<g><path style="opacity:0.965" fill="#ed009c" d="M 255.5,341.5 C 269.171,341.333 282.837,341.5 296.5,342C 319.648,344.487 335.148,356.654 343,378.5C 349.536,404.57 342.036,425.403 320.5,441C 314.225,444.471 307.559,446.805 300.5,448C 285.504,448.5 270.504,448.667 255.5,448.5C 255.5,412.833 255.5,377.167 255.5,341.5 Z M 269.5,355.5 C 278.839,355.334 288.173,355.5 297.5,356C 318.578,360.415 329.578,373.415 330.5,395C 329.744,415.743 319.411,428.743 299.5,434C 289.541,435.256 279.541,435.756 269.5,435.5C 269.5,408.833 269.5,382.167 269.5,355.5 Z"/></g>
<g><path style="opacity:0.937" fill="#ed009c" d="M 365.5,341.5 C 370.214,341.173 374.88,341.507 379.5,342.5C 398.667,368.833 417.833,395.167 437,421.5C 437.5,394.835 437.667,368.169 437.5,341.5C 442.167,341.5 446.833,341.5 451.5,341.5C 451.5,377.167 451.5,412.833 451.5,448.5C 446.901,448.8 442.401,448.467 438,447.5C 419,421.167 400,394.833 381,368.5C 380.5,395.165 380.333,421.831 380.5,448.5C 375.5,448.5 370.5,448.5 365.5,448.5C 365.5,412.833 365.5,377.167 365.5,341.5 Z"/></g>
<g><path style="opacity:0.534" fill="#ec009b" d="M 575.5,341.5 C 579.833,341.5 584.167,341.5 588.5,341.5C 588.5,342.833 588.5,344.167 588.5,345.5C 586.833,345.5 585.167,345.5 583.5,345.5C 583.5,349.833 583.5,354.167 583.5,358.5C 582.5,358.5 581.5,358.5 580.5,358.5C 580.5,354.167 580.5,349.833 580.5,345.5C 578.833,345.5 577.167,345.5 575.5,345.5C 575.5,344.167 575.5,342.833 575.5,341.5 Z"/></g>
<g><path style="opacity:0.691" fill="#ed009c" d="M 590.5,341.5 C 591.822,341.33 592.989,341.663 594,342.5C 595.528,345.417 596.861,348.417 598,351.5C 599.781,348.667 601.281,345.667 602.5,342.5C 603.5,341.167 604.5,341.167 605.5,342.5C 606.871,347.764 607.871,353.097 608.5,358.5C 607.167,358.5 605.833,358.5 604.5,358.5C 604.789,355.351 604.289,352.351 603,349.5C 601.496,352.509 599.996,355.509 598.5,358.5C 596.413,355.327 594.579,351.994 593,348.5C 592.545,351.854 592.045,355.187 591.5,358.5C 590.5,358.5 589.5,358.5 588.5,358.5C 588.98,352.809 589.646,347.142 590.5,341.5 Z"/></g>
<g><path style="opacity:1" fill="#f438bd" d="M 40.5,342.5 C 39.1982,352.018 37.5315,361.352 35.5,370.5C 35.2429,360.7 36.9096,351.367 40.5,342.5 Z"/></g>
<g><path style="opacity:0.875" fill="#fe7eb0" d="M 37.5,332.5 C 38.209,333.404 39.209,333.737 40.5,333.5C 40.5,335.167 40.5,336.833 40.5,338.5C 40.5,339.833 40.5,341.167 40.5,342.5C 36.9096,351.367 35.2429,360.7 35.5,370.5C 33.9649,380.787 33.2982,391.287 33.5,402C 33.5917,410.623 34.2584,419.123 35.5,427.5C 35.5,430.5 35.5,433.5 35.5,436.5C 35.2241,442.845 36.2241,448.845 38.5,454.5C 38.5,455.167 38.5,455.833 38.5,456.5C 38.6495,457.552 38.4828,458.552 38,459.5C 35.9702,456.774 34.4702,453.774 33.5,450.5C 32.6143,451.325 32.281,452.325 32.5,453.5C 31.4555,449.44 30.4555,445.273 29.5,441C 29.8333,440.667 30.1667,440.333 30.5,440C 29.6114,434.194 28.6114,428.361 27.5,422.5C 28.2962,419.283 27.9628,416.117 26.5,413C 27.0767,401.82 27.0767,390.653 26.5,379.5C 27.0933,377.618 27.7599,375.785 28.5,374C 28.2031,369.891 28.2031,365.891 28.5,362C 29.0563,359.763 30.0563,357.763 31.5,356C 31.0563,354.467 30.723,352.967 30.5,351.5C 31.5265,347.809 32.8598,344.309 34.5,341C 34.1667,340.667 33.8333,340.333 33.5,340C 34.7525,337.367 36.0858,334.867 37.5,332.5 Z"/></g>
<g><path style="opacity:0.942" fill="#ec09c7" d="M 56.5,310.5 C 56.2528,315.529 55.5861,320.696 54.5,326C 54.8333,326.333 55.1667,326.667 55.5,327C 54.8333,328.667 54.1667,330.333 53.5,332C 54.2461,334.093 54.5795,336.093 54.5,338C 53.8333,341.333 53.1667,344.667 52.5,348C 52.5,352 52.5,356 52.5,360C 51.8333,361.667 51.1667,363.333 50.5,365C 51.4948,368.725 51.1615,372.392 49.5,376C 49.9574,376.414 50.2907,376.914 50.5,377.5C 49.8728,380.702 49.2061,383.869 48.5,387C 48.9574,387.414 49.2907,387.914 49.5,388.5C 48.8333,393.833 48.1667,399.167 47.5,404.5C 47.5881,417.506 47.5881,430.673 47.5,444C 49.284,448.568 49.6174,452.902 48.5,457C 51.6317,473.793 55.2984,490.459 59.5,507C 64.2343,523.9 71.2343,540.567 80.5,557C 80.1667,557.333 79.8333,557.667 79.5,558C 89.4802,574.517 100.647,591.35 113,608.5C 115.112,610.594 117.278,612.594 119.5,614.5C 124.121,619.969 128.454,625.635 132.5,631.5C 130.504,632.062 128.504,631.562 126.5,630C 124.476,627.751 122.809,625.251 121.5,622.5C 119.978,621.438 118.312,620.771 116.5,620.5C 113.766,617.36 111.766,613.693 110.5,609.5C 109.378,608.37 108.044,607.703 106.5,607.5C 101.178,600.201 95.8443,592.868 90.5,585.5C 89.9213,582.669 88.588,580.336 86.5,578.5C 82.9969,573.498 79.9969,568.165 77.5,562.5C 77.0046,560.518 76.5046,558.518 76,556.5C 72.8767,551.903 70.0433,547.237 67.5,542.5C 66.5371,539.256 65.2038,536.256 63.5,533.5C 63.477,531.073 62.977,528.74 62,526.5C 59.4373,520.281 56.6039,514.281 53.5,508.5C 53.7678,506.901 53.4345,505.568 52.5,504.5C 51.217,496.662 48.8836,489.328 45.5,482.5C 45.5,481.167 45.5,479.833 45.5,478.5C 44.2466,471.807 42.5799,465.473 40.5,459.5C 39.5746,448.571 37.9079,437.904 35.5,427.5C 34.2584,419.123 33.5917,410.623 33.5,402C 33.2982,391.287 33.9649,380.787 35.5,370.5C 37.5315,361.352 39.1982,352.018 40.5,342.5C 42.9161,337.453 45.0827,332.12 47,326.5C 49.2897,323.305 51.2897,319.972 53,316.5C 53.49,315.207 53.6567,313.873 53.5,312.5C 54.2905,311.599 55.2905,310.932 56.5,310.5 Z"/></g>
<g><path style="opacity:0.905" fill="#f80048" d="M 745.5,423.5 C 743.83,426.812 743.163,430.146 743.5,433.5C 741.907,437.385 740.24,441.218 738.5,445C 739.5,447.091 738.833,448.757 736.5,450C 736.957,450.414 737.291,450.914 737.5,451.5C 735.203,456.953 732.703,462.286 730,467.5C 728.595,468.731 727.429,470.064 726.5,471.5C 726.439,469.561 726.439,467.561 726.5,465.5C 723.959,464.063 721.292,462.897 718.5,462C 719.833,460.16 719.666,459.66 718,460.5C 717.536,459.906 717.369,459.239 717.5,458.5C 721.975,446.555 725.975,435.055 729.5,424C 729.043,423.586 728.709,423.086 728.5,422.5C 729.689,415.439 731.023,408.439 732.5,401.5C 733.496,401.414 734.329,401.748 735,402.5C 735.374,401.584 735.874,400.75 736.5,400C 738.975,400.257 738.975,401.257 736.5,403C 739.044,404.563 739.044,406.063 736.5,407.5C 739.295,409.515 739.961,412.015 738.5,415C 739.833,415.667 741.167,416.333 742.5,417C 740.221,417.473 738.221,418.473 736.5,420C 737.624,420.249 738.624,420.749 739.5,421.5C 738.509,422.665 737.509,423.832 736.5,425C 736.85,426.257 737.517,426.591 738.5,426C 738.167,425.667 737.833,425.333 737.5,425C 740.376,423.858 742.042,421.692 742.5,418.5C 743.001,420.655 744.001,422.322 745.5,423.5 Z"/></g>
<g><path style="opacity:1" fill="#f538bd" d="M 35.5,427.5 C 37.9079,437.904 39.5746,448.571 40.5,459.5C 39.8333,458.5 39.1667,457.5 38.5,456.5C 38.5,455.833 38.5,455.167 38.5,454.5C 38.5046,448.209 37.5046,442.209 35.5,436.5C 35.5,433.5 35.5,430.5 35.5,427.5 Z"/></g>
<g><path style="opacity:1" fill="#fd6ab4" d="M 35.5,436.5 C 37.5046,442.209 38.5046,448.209 38.5,454.5C 36.2241,448.845 35.2241,442.845 35.5,436.5 Z"/></g>
<g><path style="opacity:0.639" fill="#f74db8" d="M 32.5,455.5 C 35.8438,459.436 37.5104,464.103 37.5,469.5C 36.5,469.5 35.5,469.5 34.5,469.5C 34.0496,464.798 33.383,460.132 32.5,455.5 Z"/></g>
<g><path style="opacity:0.921" fill="#f7014e" d="M 717.5,458.5 C 717.369,459.239 717.536,459.906 718,460.5C 719.666,459.66 719.833,460.16 718.5,462C 721.292,462.897 723.959,464.063 726.5,465.5C 726.439,467.561 726.439,469.561 726.5,471.5C 725.25,473.932 723.75,476.266 722,478.5C 721.51,479.793 721.343,481.127 721.5,482.5C 720.325,482.281 719.325,482.614 718.5,483.5C 716.136,486.699 713.97,490.032 712,493.5C 704.045,500.784 696.212,508.784 688.5,517.5C 686.933,516.319 686.099,514.653 686,512.5C 685.077,508.21 684.577,503.877 684.5,499.5C 689.155,497.415 692.655,494.082 695,489.5C 696.512,488.743 697.846,487.743 699,486.5C 706.073,477.236 712.24,467.903 717.5,458.5 Z"/></g>
<g><path style="opacity:1" fill="#f53cbc" d="M 40.5,459.5 C 42.5799,465.473 44.2466,471.807 45.5,478.5C 42.7645,472.564 41.0978,466.23 40.5,459.5 Z"/></g>
<g><path style="opacity:0.58" fill="#f32ebf" d="M 34.5,469.5 C 35.5,469.5 36.5,469.5 37.5,469.5C 40.5363,478.959 43.2029,488.626 45.5,498.5C 42.2825,493.701 40.1158,488.367 39,482.5C 38.0853,481.672 37.4186,480.672 37,479.5C 36.5357,480.094 36.369,480.761 36.5,481.5C 35.2053,477.733 34.5387,473.733 34.5,469.5 Z"/></g>
<g><path style="opacity:0.821" fill="#ec0cc8" d="M 45.5,498.5 C 46.463,505.273 47.963,511.94 50,518.5C 50.7403,520.319 51.9069,521.652 53.5,522.5C 56.8489,526.878 58.8489,531.878 59.5,537.5C 60.7248,542.276 62.2248,546.943 64,551.5C 66.363,555.345 68.863,559.011 71.5,562.5C 75.0202,569.376 79.0202,576.043 83.5,582.5C 83.3433,583.873 83.51,585.207 84,586.5C 86.2446,589.889 88.7446,592.889 91.5,595.5C 92.487,599.466 93.8203,603.299 95.5,607C 94.4909,607.355 93.8243,608.188 93.5,609.5C 76.3885,585.674 61.8885,559.674 50,531.5C 45.0925,517.999 41.2592,504.499 38.5,491C 38.8333,490.667 39.1667,490.333 39.5,490C 37.0734,487.748 36.0734,484.914 36.5,481.5C 36.369,480.761 36.5357,480.094 37,479.5C 37.4186,480.672 38.0853,481.672 39,482.5C 40.1158,488.367 42.2825,493.701 45.5,498.5 Z"/></g>
<g><path style="opacity:1" fill="#f850b8" d="M 45.5,482.5 C 48.8836,489.328 51.217,496.662 52.5,504.5C 50.2493,498.922 48.0827,493.255 46,487.5C 45.5065,485.866 45.3398,484.199 45.5,482.5 Z"/></g>
<g><path style="opacity:1" fill="#f22dc0" d="M 45.5,498.5 C 49.0749,506.106 51.7416,514.106 53.5,522.5C 51.9069,521.652 50.7403,520.319 50,518.5C 47.963,511.94 46.463,505.273 45.5,498.5 Z"/></g>
<g><path style="opacity:1" fill="#fd75b2" d="M 38.5,456.5 C 39.1667,457.5 39.8333,458.5 40.5,459.5C 41.0978,466.23 42.7645,472.564 45.5,478.5C 45.5,479.833 45.5,481.167 45.5,482.5C 45.3398,484.199 45.5065,485.866 46,487.5C 48.0827,493.255 50.2493,498.922 52.5,504.5C 53.4345,505.568 53.7678,506.901 53.5,508.5C 56.0621,517.269 59.3955,525.603 63.5,533.5C 65.2038,536.256 66.5371,539.256 67.5,542.5C 69.534,550.013 72.8673,556.68 77.5,562.5C 79.9969,568.165 82.9969,573.498 86.5,578.5C 86.2159,581.857 87.5493,584.191 90.5,585.5C 95.8443,592.868 101.178,600.201 106.5,607.5C 108.772,612.653 112.106,616.986 116.5,620.5C 117.5,621.833 118.5,623.167 119.5,624.5C 117.629,624.141 116.129,623.141 115,621.5C 114.517,622.448 114.351,623.448 114.5,624.5C 111.176,620.676 107.676,617.009 104,613.5C 100.75,606.769 96.583,600.769 91.5,595.5C 89.6185,590.632 86.9518,586.299 83.5,582.5C 79.0202,576.043 75.0202,569.376 71.5,562.5C 71.6567,561.127 71.49,559.793 71,558.5C 69,555.167 67,551.833 65,548.5C 64.2416,544.257 62.4082,540.59 59.5,537.5C 58.8489,531.878 56.8489,526.878 53.5,522.5C 51.7416,514.106 49.0749,506.106 45.5,498.5C 43.2029,488.626 40.5363,478.959 37.5,469.5C 37.5104,464.103 35.8438,459.436 32.5,455.5C 32.5,454.833 32.5,454.167 32.5,453.5C 32.281,452.325 32.6143,451.325 33.5,450.5C 34.4702,453.774 35.9702,456.774 38,459.5C 38.4828,458.552 38.6495,457.552 38.5,456.5 Z"/></g>
<g><path style="opacity:0.941" fill="#f7005a" d="M 678.5,505.5 C 679.458,505.953 680.292,506.619 681,507.5C 682.217,513.101 682.717,518.768 682.5,524.5C 681.883,524.389 681.383,524.056 681,523.5C 675.333,530.5 669,536.833 662,542.5C 656.913,550.341 651.58,558.008 646,565.5C 644.559,570.442 642.059,574.775 638.5,578.5C 635.563,580.707 633.563,579.707 632.5,575.5C 634.762,574.655 635.429,573.322 634.5,571.5C 634.977,570.522 635.643,569.689 636.5,569C 635.05,565.566 633.383,562.399 631.5,559.5C 636.837,551.988 642.003,544.321 647,536.5C 650.324,534.674 652.824,532.007 654.5,528.5C 658.083,525.552 661.416,522.385 664.5,519C 670.162,515.486 674.829,510.986 678.5,505.5 Z"/></g>
<g><path style="opacity:1" fill="#f84bb8" d="M 53.5,508.5 C 56.6039,514.281 59.4373,520.281 62,526.5C 62.977,528.74 63.477,531.073 63.5,533.5C 59.3955,525.603 56.0621,517.269 53.5,508.5 Z"/></g>
<g><path style="opacity:1" fill="#f437bd" d="M 59.5,537.5 C 62.4082,540.59 64.2416,544.257 65,548.5C 67,551.833 69,555.167 71,558.5C 71.49,559.793 71.6567,561.127 71.5,562.5C 68.863,559.011 66.363,555.345 64,551.5C 62.2248,546.943 60.7248,542.276 59.5,537.5 Z"/></g>
<g><path style="opacity:1" fill="#f849b9" d="M 67.5,542.5 C 70.0433,547.237 72.8767,551.903 76,556.5C 76.5046,558.518 77.0046,560.518 77.5,562.5C 72.8673,556.68 69.534,550.013 67.5,542.5 Z"/></g>
<g><path style="opacity:0.925" fill="#f60061" d="M 631.5,559.5 C 633.383,562.399 635.05,565.566 636.5,569C 635.643,569.689 634.977,570.522 634.5,571.5C 635.429,573.322 634.762,574.655 632.5,575.5C 633.563,579.707 635.563,580.707 638.5,578.5C 638.657,579.873 638.49,581.207 638,582.5C 633.645,589.649 629.145,596.649 624.5,603.5C 623.577,604.303 622.577,604.47 621.5,604C 622.451,603.282 622.617,602.449 622,601.5C 620.333,602.833 618.667,604.167 617,605.5C 616.333,604.833 616.333,604.167 617,603.5C 621.38,601.3 621.546,599.966 617.5,599.5C 617.977,598.522 618.643,597.689 619.5,597C 618.359,596.259 618.359,595.425 619.5,594.5C 617.078,592.952 617.078,591.286 619.5,589.5C 618.443,589.094 617.109,589.094 615.5,589.5C 617.58,587.393 618.413,585.059 618,582.5C 621.903,579.042 624.236,575.042 625,570.5C 628.36,567.057 630.526,563.391 631.5,559.5 Z"/></g>
<g><path style="opacity:1" fill="#fb5eb5" d="M 86.5,578.5 C 88.588,580.336 89.9213,582.669 90.5,585.5C 87.5493,584.191 86.2159,581.857 86.5,578.5 Z"/></g>
<g><path style="opacity:1" fill="#f747b9" d="M 83.5,582.5 C 86.9518,586.299 89.6185,590.632 91.5,595.5C 88.7446,592.889 86.2446,589.889 84,586.5C 83.51,585.207 83.3433,583.873 83.5,582.5 Z"/></g>
<g><path style="opacity:0.938" fill="#f60266" d="M 624.5,603.5 C 624.611,604.117 624.944,604.617 625.5,605C 621.972,609.696 618.638,614.529 615.5,619.5C 615.709,620.086 616.043,620.586 616.5,621C 612.5,626.333 608.5,631.667 604.5,637C 604.957,637.414 605.291,637.914 605.5,638.5C 602.719,641.934 600.386,645.601 598.5,649.5C 597.833,649.5 597.5,649.833 597.5,650.5C 596.833,650.5 596.5,650.833 596.5,651.5C 591.706,655.321 586.706,658.654 581.5,661.5C 578.426,662.302 575.426,663.302 572.5,664.5C 574.724,662.569 577.224,660.902 580,659.5C 581.44,658.852 582.94,658.519 584.5,658.5C 584.5,657.5 584.5,656.5 584.5,655.5C 585.833,655.5 587.167,655.5 588.5,655.5C 588.423,652.491 589.756,650.324 592.5,649C 592,648.5 591.5,648 591,647.5C 590.581,648.672 589.915,649.672 589,650.5C 589.099,647.888 589.432,645.221 590,642.5C 590.423,643.956 591.256,644.456 592.5,644C 590.759,642.375 589.093,640.208 587.5,637.5C 597.599,621.531 606.932,605.531 615.5,589.5C 617.109,589.094 618.443,589.094 619.5,589.5C 617.078,591.286 617.078,592.952 619.5,594.5C 618.359,595.425 618.359,596.259 619.5,597C 618.643,597.689 617.977,598.522 617.5,599.5C 621.546,599.966 621.38,601.3 617,603.5C 616.333,604.167 616.333,604.833 617,605.5C 618.667,604.167 620.333,602.833 622,601.5C 622.617,602.449 622.451,603.282 621.5,604C 622.577,604.47 623.577,604.303 624.5,603.5 Z"/></g>
<g><path style="opacity:0.832" fill="#ff5953" d="M 663.5,591.5 C 663.611,592.117 663.944,592.617 664.5,593C 662.675,594.466 662.175,596.299 663,598.5C 663.583,596.998 664.416,595.665 665.5,594.5C 665.833,594.833 666.167,595.167 666.5,595.5C 664.121,597.105 664.121,598.438 666.5,599.5C 662.045,606.756 656.878,613.423 651,619.5C 650.333,620.833 649.667,620.833 649,619.5C 648.365,620.966 647.531,622.3 646.5,623.5C 640.497,628.504 634.497,633.504 628.5,638.5C 627.404,634.711 626.737,634.711 626.5,638.5C 622.944,638.725 622.61,637.892 625.5,636C 625.011,634.862 624.678,633.695 624.5,632.5C 632.127,626.579 639.627,619.912 647,612.5C 652.684,605.649 658.184,598.649 663.5,591.5 Z"/></g>
<g><path style="opacity:0.814" fill="#ec009b" d="M 1549.5,600.5 C 1564.74,600.285 1575.07,607.285 1580.5,621.5C 1577.55,622.655 1574.55,622.821 1571.5,622C 1564.61,609.56 1554.61,606.227 1541.5,612C 1532.28,619.025 1529.45,628.192 1533,639.5C 1538.76,650.312 1547.59,654.146 1559.5,651C 1565.5,649 1569.5,645 1571.5,639C 1574.55,638.179 1577.55,638.345 1580.5,639.5C 1574.36,656.41 1562.36,663.243 1544.5,660C 1527.78,654.076 1520.61,642.243 1523,624.5C 1526.7,610.621 1535.54,602.621 1549.5,600.5 Z"/></g>
<g><path style="opacity:0.822" fill="#ec009b" d="M 1651.5,600.5 C 1675.47,600.635 1686.97,612.635 1686,636.5C 1680.06,655.408 1667.23,663.241 1647.5,660C 1630.78,654.064 1623.61,642.231 1626,624.5C 1629.55,611.109 1638.05,603.109 1651.5,600.5 Z M 1650.5,609.5 C 1672.47,609.631 1680.63,620.298 1675,641.5C 1666.61,652.554 1656.11,655.054 1643.5,649C 1632.33,637.942 1631.66,626.276 1641.5,614C 1644.59,612.454 1647.59,610.954 1650.5,609.5 Z"/></g>
<g><path style="opacity:0.828" fill="#ec009b" d="M 2288.5,600.5 C 2309.21,600.383 2320.54,610.55 2322.5,631C 2319.7,653.935 2306.7,663.601 2283.5,660C 2263.34,651.539 2257.17,637.039 2265,616.5C 2270.46,607.533 2278.29,602.199 2288.5,600.5 Z M 2286.5,609.5 C 2306.67,608.496 2315.5,617.829 2313,637.5C 2307.36,650.05 2297.86,654.55 2284.5,651C 2275.66,647.338 2270.99,640.672 2270.5,631C 2271.13,620.216 2276.47,613.05 2286.5,609.5 Z"/></g>
<g><path style="opacity:0.82" fill="#ec009b" d="M 1196.5,601.5 C 1200.6,600.769 1204.1,601.769 1207,604.5C 1216.09,617.676 1225.42,630.676 1235,643.5C 1235.5,629.504 1235.67,615.504 1235.5,601.5C 1238.17,601.5 1240.83,601.5 1243.5,601.5C 1243.5,621.167 1243.5,640.833 1243.5,660.5C 1240.88,660.768 1238.38,660.435 1236,659.5C 1226.24,645.656 1216.24,631.989 1206,618.5C 1205.5,632.496 1205.33,646.496 1205.5,660.5C 1202.5,660.5 1199.5,660.5 1196.5,660.5C 1196.5,640.833 1196.5,621.167 1196.5,601.5 Z"/></g>
<g><path style="opacity:0.811" fill="#ec009b" d="M 1297.5,601.5 C 1308.83,601.5 1320.17,601.5 1331.5,601.5C 1331.5,604.167 1331.5,606.833 1331.5,609.5C 1323.17,609.5 1314.83,609.5 1306.5,609.5C 1306.5,615.5 1306.5,621.5 1306.5,627.5C 1313.83,627.5 1321.17,627.5 1328.5,627.5C 1328.5,630.167 1328.5,632.833 1328.5,635.5C 1321.17,635.5 1313.83,635.5 1306.5,635.5C 1306.5,643.833 1306.5,652.167 1306.5,660.5C 1303.5,660.5 1300.5,660.5 1297.5,660.5C 1297.5,640.833 1297.5,621.167 1297.5,601.5 Z"/></g>
<g><path style="opacity:0.789" fill="#ec009b" d="M 1373.5,601.5 C 1388.17,601.5 1402.83,601.5 1417.5,601.5C 1417.5,604.167 1417.5,606.833 1417.5,609.5C 1411.46,609.171 1405.46,609.504 1399.5,610.5C 1400.65,626.456 1400.82,642.456 1400,658.5C 1397.54,660.321 1394.71,660.988 1391.5,660.5C 1391.5,643.5 1391.5,626.5 1391.5,609.5C 1385.5,609.5 1379.5,609.5 1373.5,609.5C 1373.5,606.833 1373.5,604.167 1373.5,601.5 Z"/></g>
<g><path style="opacity:0.816" fill="#ec009b" d="M 1736.5,601.5 C 1739.45,601.223 1742.28,601.556 1745,602.5C 1754.28,616.113 1763.95,629.446 1774,642.5C 1774.5,628.837 1774.67,615.171 1774.5,601.5C 1777.5,601.5 1780.5,601.5 1783.5,601.5C 1783.67,620.836 1783.5,640.17 1783,659.5C 1779.47,661.19 1776.47,660.524 1774,657.5C 1764.72,643.887 1755.05,630.554 1745,617.5C 1744.5,631.829 1744.33,646.163 1744.5,660.5C 1741.83,660.5 1739.17,660.5 1736.5,660.5C 1736.5,640.833 1736.5,621.167 1736.5,601.5 Z"/></g>
<g><path style="opacity:0.804" fill="#ec009b" d="M 1830.5,601.5 C 1833.9,601.18 1837.23,601.513 1840.5,602.5C 1846.43,617.127 1852.26,631.794 1858,646.5C 1863.11,631.621 1868.77,616.955 1875,602.5C 1878.12,601.213 1881.29,601.213 1884.5,602.5C 1876.93,621.723 1869.26,640.89 1861.5,660C 1858.9,660.769 1856.4,660.602 1854,659.5C 1845.88,640.259 1838.04,620.925 1830.5,601.5 Z"/></g>
<g><path style="opacity:0.794" fill="#ec009b" d="M 1932.5,601.5 C 1943.83,601.5 1955.17,601.5 1966.5,601.5C 1966.5,604.167 1966.5,606.833 1966.5,609.5C 1958.17,609.5 1949.83,609.5 1941.5,609.5C 1941.5,614.833 1941.5,620.167 1941.5,625.5C 1948.83,625.5 1956.17,625.5 1963.5,625.5C 1963.5,628.5 1963.5,631.5 1963.5,634.5C 1956.17,634.5 1948.83,634.5 1941.5,634.5C 1941.81,640.093 1941.47,645.593 1940.5,651C 1949.16,651.5 1957.83,651.666 1966.5,651.5C 1966.5,654.5 1966.5,657.5 1966.5,660.5C 1955.17,660.5 1943.83,660.5 1932.5,660.5C 1932.5,640.833 1932.5,621.167 1932.5,601.5 Z"/></g>
<g><path style="opacity:0.856" fill="#ec009b" d="M 2017.5,601.5 C 2020.25,601.187 2022.91,601.52 2025.5,602.5C 2035.53,616.027 2045.36,629.694 2055,643.5C 2055.5,629.504 2055.67,615.504 2055.5,601.5C 2058.17,601.5 2060.83,601.5 2063.5,601.5C 2063.5,621.167 2063.5,640.833 2063.5,660.5C 2059.41,661.295 2056.24,659.962 2054,656.5C 2044.91,643.324 2035.58,630.324 2026,617.5C 2025.5,631.829 2025.33,646.163 2025.5,660.5C 2022.83,660.5 2020.17,660.5 2017.5,660.5C 2017.5,640.833 2017.5,621.167 2017.5,601.5 Z"/></g>
<g><path style="opacity:0.848" fill="#ec009b" d="M 2111.5,601.5 C 2126.17,601.5 2140.83,601.5 2155.5,601.5C 2155.5,604.167 2155.5,606.833 2155.5,609.5C 2149.5,609.5 2143.5,609.5 2137.5,609.5C 2137.5,626.5 2137.5,643.5 2137.5,660.5C 2134.83,660.5 2132.17,660.5 2129.5,660.5C 2129.5,643.5 2129.5,626.5 2129.5,609.5C 2123.5,609.5 2117.5,609.5 2111.5,609.5C 2111.5,606.833 2111.5,604.167 2111.5,601.5 Z"/></g>
<g><path style="opacity:0.878" fill="#ec009b" d="M 2203.5,601.5 C 2206.17,601.5 2208.83,601.5 2211.5,601.5C 2211.5,621.167 2211.5,640.833 2211.5,660.5C 2208.83,660.5 2206.17,660.5 2203.5,660.5C 2203.5,640.833 2203.5,621.167 2203.5,601.5 Z"/></g>
<g><path style="opacity:0.795" fill="#ec009b" d="M 2372.5,601.5 C 2376.6,600.769 2380.1,601.769 2383,604.5C 2391.61,617.445 2400.61,630.111 2410,642.5C 2410.5,628.837 2410.67,615.171 2410.5,601.5C 2413.5,601.5 2416.5,601.5 2419.5,601.5C 2419.5,621.167 2419.5,640.833 2419.5,660.5C 2416.88,660.768 2414.38,660.435 2412,659.5C 2402.24,645.656 2392.24,631.989 2382,618.5C 2381.5,632.496 2381.33,646.496 2381.5,660.5C 2378.55,660.777 2375.72,660.444 2373,659.5C 2372.5,640.17 2372.33,620.836 2372.5,601.5 Z"/></g>
<g><path style="opacity:0.798" fill="#ed15c1" d="M 91.5,595.5 C 96.583,600.769 100.75,606.769 104,613.5C 107.676,617.009 111.176,620.676 114.5,624.5C 115.922,626.512 117.255,628.512 118.5,630.5C 120.88,633.56 122.88,636.894 124.5,640.5C 129.821,643.834 134.821,647.501 139.5,651.5C 139.833,652.5 140.5,653.167 141.5,653.5C 143.091,655.566 144.425,657.899 145.5,660.5C 147.833,661.833 150.167,663.167 152.5,664.5C 153.701,666.909 155.367,668.909 157.5,670.5C 156.873,671.417 156.539,672.417 156.5,673.5C 146.026,665.281 136.026,656.614 126.5,647.5C 120.572,641.18 114.572,634.847 108.5,628.5C 103.897,621.75 98.8966,615.417 93.5,609.5C 93.8243,608.188 94.4909,607.355 95.5,607C 93.8203,603.299 92.487,599.466 91.5,595.5 Z"/></g>
<g><path style="opacity:1" fill="#f438ba" d="M 106.5,607.5 C 108.044,607.703 109.378,608.37 110.5,609.5C 111.766,613.693 113.766,617.36 116.5,620.5C 112.106,616.986 108.772,612.653 106.5,607.5 Z"/></g>
<g><path style="opacity:0.583" fill="#ec009b" d="M 2533.5,624.5 C 2539.83,624.5 2546.17,624.5 2552.5,624.5C 2552.5,626.167 2552.5,627.833 2552.5,629.5C 2550.17,629.5 2547.83,629.5 2545.5,629.5C 2545.5,636.167 2545.5,642.833 2545.5,649.5C 2543.83,649.5 2542.17,649.5 2540.5,649.5C 2540.5,642.833 2540.5,636.167 2540.5,629.5C 2538.17,629.5 2535.83,629.5 2533.5,629.5C 2533.5,627.833 2533.5,626.167 2533.5,624.5 Z"/></g>
<g><path style="opacity:0.653" fill="#ec009b" d="M 2556.5,624.5 C 2558.29,624.215 2559.95,624.548 2561.5,625.5C 2563.76,630.459 2565.93,635.459 2568,640.5C 2570.59,635.651 2572.92,630.651 2575,625.5C 2576.39,624.446 2577.89,624.28 2579.5,625C 2581.06,633.095 2582.4,641.262 2583.5,649.5C 2581.83,649.5 2580.17,649.5 2578.5,649.5C 2578.21,644.088 2577.38,638.755 2576,633.5C 2573.76,638.985 2571.26,644.318 2568.5,649.5C 2565.4,644.412 2562.57,639.079 2560,633.5C 2559.49,638.897 2558.65,644.23 2557.5,649.5C 2555.71,649.785 2554.05,649.452 2552.5,648.5C 2554.22,640.57 2555.55,632.57 2556.5,624.5 Z"/></g>
<g><path style="opacity:0.752" fill="#fe5b5c" d="M 624.5,632.5 C 624.678,633.695 625.011,634.862 625.5,636C 622.61,637.892 622.944,638.725 626.5,638.5C 626.737,634.711 627.404,634.711 628.5,638.5C 615.821,649.154 601.821,657.82 586.5,664.5C 586.44,663.957 586.107,663.624 585.5,663.5C 581.931,665.453 578.264,667.119 574.5,668.5C 573.761,668.631 573.094,668.464 572.5,668C 575.567,665.812 578.567,663.645 581.5,661.5C 586.706,658.654 591.706,655.321 596.5,651.5C 597.167,651.5 597.5,651.167 597.5,650.5C 598.167,650.5 598.5,650.167 598.5,649.5C 607.37,644.813 616.037,639.146 624.5,632.5 Z"/></g>
<g><path style="opacity:1" fill="#f435b9" d="M 118.5,630.5 C 125.264,637.719 132.264,644.719 139.5,651.5C 134.821,647.501 129.821,643.834 124.5,640.5C 122.88,636.894 120.88,633.56 118.5,630.5 Z"/></g>
<g><path style="opacity:0.949" fill="#f4026c" d="M 587.5,637.5 C 589.093,640.208 590.759,642.375 592.5,644C 591.256,644.456 590.423,643.956 590,642.5C 589.432,645.221 589.099,647.888 589,650.5C 589.915,649.672 590.581,648.672 591,647.5C 591.5,648 592,648.5 592.5,649C 589.756,650.324 588.423,652.491 588.5,655.5C 587.167,655.5 585.833,655.5 584.5,655.5C 584.5,656.5 584.5,657.5 584.5,658.5C 582.94,658.519 581.44,658.852 580,659.5C 577.224,660.902 574.724,662.569 572.5,664.5C 570.618,667.218 568.285,667.885 565.5,666.5C 572.923,657.526 580.256,647.859 587.5,637.5 Z"/></g>
<g><path style="opacity:1" fill="#fe74a8" d="M 119.5,624.5 C 139.001,646.667 161.001,666 185.5,682.5C 186.598,683.397 186.598,684.23 185.5,685C 187.192,686.307 188.525,687.807 189.5,689.5C 187.5,688.833 185.5,688.167 183.5,687.5C 182.71,686.206 181.71,685.039 180.5,684C 166.439,675.096 153.439,664.929 141.5,653.5C 140.5,653.167 139.833,652.5 139.5,651.5C 132.264,644.719 125.264,637.719 118.5,630.5C 117.255,628.512 115.922,626.512 114.5,624.5C 114.351,623.448 114.517,622.448 115,621.5C 116.129,623.141 117.629,624.141 119.5,624.5 Z"/></g>
<g><path style="opacity:0.829" fill="#ee17b8" d="M 116.5,620.5 C 118.312,620.771 119.978,621.438 121.5,622.5C 122.809,625.251 124.476,627.751 126.5,630C 128.504,631.562 130.504,632.062 132.5,631.5C 133.583,631.539 134.583,631.873 135.5,632.5C 138.325,635.495 140.992,638.662 143.5,642C 145.167,643 146.833,644 148.5,645C 152.833,649.333 157.167,653.667 161.5,658C 176.008,667.754 190.341,677.754 204.5,688C 206.852,688.24 208.852,689.073 210.5,690.5C 209.866,691.947 208.699,692.613 207,692.5C 205.467,692.227 203.967,691.894 202.5,691.5C 198.931,689.917 195.265,688.417 191.5,687C 190.193,684.52 188.193,683.02 185.5,682.5C 161.001,666 139.001,646.667 119.5,624.5C 118.5,623.167 117.5,621.833 116.5,620.5 Z"/></g>
<g><path style="opacity:1" fill="#f9276b" d="M 586.5,664.5 C 585.567,667.37 583.9,669.704 581.5,671.5C 580.903,670.861 580.07,670.528 579,670.5C 572.312,671.626 566.478,674.459 561.5,679C 558.978,680.341 556.311,681.174 553.5,681.5C 553.649,682.552 553.483,683.552 553,684.5C 552.667,684.167 552.333,683.833 552,683.5C 549.993,684.669 547.827,685.335 545.5,685.5C 549.914,681.941 554.914,679.441 560.5,678C 564.747,674.056 569.414,670.889 574.5,668.5C 578.264,667.119 581.931,665.453 585.5,663.5C 586.107,663.624 586.44,663.957 586.5,664.5 Z"/></g>
<g><path style="opacity:0.956" fill="#f30374" d="M 581.5,671.5 C 575.602,677.716 569.769,684.049 564,690.5C 558.021,694.036 552.021,698.37 546,703.5C 541.994,705.92 537.827,707.92 533.5,709.5C 532.564,707.061 533.564,705.394 536.5,704.5C 535.313,703.481 534.313,702.314 533.5,701C 535.848,699.312 536.015,697.478 534,695.5C 533.667,696.5 533.333,697.5 533,698.5C 532.311,697.643 531.478,696.977 530.5,696.5C 528.929,697.309 527.262,697.643 525.5,697.5C 532.159,693.503 538.825,689.503 545.5,685.5C 547.827,685.335 549.993,684.669 552,683.5C 552.333,683.833 552.667,684.167 553,684.5C 553.483,683.552 553.649,682.552 553.5,681.5C 556.311,681.174 558.978,680.341 561.5,679C 566.478,674.459 572.312,671.626 579,670.5C 580.07,670.528 580.903,670.861 581.5,671.5 Z"/></g>
<g><path style="opacity:0.892" fill="#ee10b9" d="M 141.5,653.5 C 153.439,664.929 166.439,675.096 180.5,684C 181.71,685.039 182.71,686.206 183.5,687.5C 186.515,690.165 189.849,692.498 193.5,694.5C 194.452,696.045 194.785,697.712 194.5,699.5C 185.743,694.047 177.743,688.547 170.5,683C 165.952,679.612 161.286,676.445 156.5,673.5C 156.539,672.417 156.873,671.417 157.5,670.5C 155.367,668.909 153.701,666.909 152.5,664.5C 150.167,663.167 147.833,661.833 145.5,660.5C 144.425,657.899 143.091,655.566 141.5,653.5 Z"/></g>
<g><path style="opacity:0.96" fill="#f3097b" d="M 533.5,709.5 C 529.061,712.218 524.227,715.218 519,718.5C 518.667,718.167 518.333,717.833 518,717.5C 510.063,722.117 501.563,725.45 492.5,727.5C 491.503,727.53 490.836,727.03 490.5,726C 490.87,722.713 491.87,719.713 493.5,717C 491.613,716.837 490.113,717.671 489,719.5C 487.989,718.663 486.822,718.33 485.5,718.5C 485.649,719.552 485.483,720.552 485,721.5C 483.274,720.424 481.441,720.257 479.5,721C 470.823,723.5 462.156,726 453.5,728.5C 457.33,725.781 461.663,724.115 466.5,723.5C 472.524,722.053 478.524,720.387 484.5,718.5C 486.369,717.376 488.369,716.543 490.5,716C 492.063,715.241 493.063,714.074 493.5,712.5C 504.21,707.805 514.876,702.805 525.5,697.5C 527.262,697.643 528.929,697.309 530.5,696.5C 531.478,696.977 532.311,697.643 533,698.5C 533.333,697.5 533.667,696.5 534,695.5C 536.015,697.478 535.848,699.312 533.5,701C 534.313,702.314 535.313,703.481 536.5,704.5C 533.564,705.394 532.564,707.061 533.5,709.5 Z"/></g>
<g><path style="opacity:0.803" fill="#ef13b1" d="M 183.5,687.5 C 185.5,688.167 187.5,688.833 189.5,689.5C 195.952,694.286 202.618,698.786 209.5,703C 212.101,703.92 214.768,704.587 217.5,705C 223.648,709.069 229.981,712.569 236.5,715.5C 236.953,716.458 237.619,717.292 238.5,718C 241.932,719.185 245.265,720.352 248.5,721.5C 248.5,722.5 248.5,723.5 248.5,724.5C 251.453,723.145 254.119,723.478 256.5,725.5C 255.388,726.265 254.721,727.265 254.5,728.5C 245.389,724.411 236.556,720.411 228,716.5C 227.586,716.957 227.086,717.291 226.5,717.5C 221.352,715.005 216.519,712.005 212,708.5C 211.282,709.451 210.449,709.617 209.5,709C 206.667,706.833 203.833,704.667 201,702.5C 200.282,703.451 199.449,703.617 198.5,703C 196.907,702.051 195.574,700.885 194.5,699.5C 194.785,697.712 194.452,696.045 193.5,694.5C 189.849,692.498 186.515,690.165 183.5,687.5 Z"/></g>
<g><path style="opacity:0.958" fill="#fe606b" d="M 581.5,661.5 C 578.567,663.645 575.567,665.812 572.5,668C 573.094,668.464 573.761,668.631 574.5,668.5C 569.414,670.889 564.747,674.056 560.5,678C 554.914,679.441 549.914,681.941 545.5,685.5C 538.825,689.503 532.159,693.503 525.5,697.5C 514.876,702.805 504.21,707.805 493.5,712.5C 491.254,713.455 488.921,714.122 486.5,714.5C 487.234,713.292 487.567,711.959 487.5,710.5C 486.5,710.5 485.5,710.5 484.5,710.5C 497.524,704.316 510.358,697.65 523,690.5C 523.333,690.833 523.667,691.167 524,691.5C 526.046,690.089 527.879,688.423 529.5,686.5C 542.25,680.15 554.25,673.483 565.5,666.5C 568.285,667.885 570.618,667.218 572.5,664.5C 575.426,663.302 578.426,662.302 581.5,661.5 Z"/></g>
<g><path style="opacity:0.769" fill="#f013ac" d="M 210.5,690.5 C 219.65,696.238 228.983,701.071 238.5,705C 252.466,710.8 266.466,715.633 280.5,719.5C 279.207,720.158 277.707,720.492 276,720.5C 270.497,719.785 264.997,719.118 259.5,718.5C 259.167,718.5 258.833,718.5 258.5,718.5C 246.854,714.915 235.521,710.415 224.5,705C 216.968,700.738 209.635,696.238 202.5,691.5C 203.967,691.894 205.467,692.227 207,692.5C 208.699,692.613 209.866,691.947 210.5,690.5 Z"/></g>
<g><path style="opacity:0.856" fill="#fe6575" d="M 484.5,710.5 C 485.5,710.5 486.5,710.5 487.5,710.5C 487.567,711.959 487.234,713.292 486.5,714.5C 479.842,717.189 473.175,720.189 466.5,723.5C 461.663,724.115 457.33,725.781 453.5,728.5C 452.167,728.5 450.833,728.5 449.5,728.5C 444.579,728.865 444.245,727.865 448.5,725.5C 450.045,724.548 451.712,724.215 453.5,724.5C 453.5,723.5 453.5,722.5 453.5,721.5C 463.825,717.702 474.158,714.035 484.5,710.5 Z"/></g>
<g><path style="opacity:1" fill="#fd6c9e" d="M 185.5,682.5 C 188.193,683.02 190.193,684.52 191.5,687C 195.265,688.417 198.931,689.917 202.5,691.5C 209.635,696.238 216.968,700.738 224.5,705C 235.521,710.415 246.854,714.915 258.5,718.5C 255.792,717.551 253.126,717.551 250.5,718.5C 252.753,719.979 255.087,721.313 257.5,722.5C 250.601,719.978 243.601,717.645 236.5,715.5C 229.981,712.569 223.648,709.069 217.5,705C 214.768,704.587 212.101,703.92 209.5,703C 202.618,698.786 195.952,694.286 189.5,689.5C 188.525,687.807 187.192,686.307 185.5,685C 186.598,684.23 186.598,683.397 185.5,682.5 Z"/></g>
<g><path style="opacity:1" fill="#f93278" d="M 493.5,712.5 C 493.063,714.074 492.063,715.241 490.5,716C 488.369,716.543 486.369,717.376 484.5,718.5C 478.524,720.387 472.524,722.053 466.5,723.5C 473.175,720.189 479.842,717.189 486.5,714.5C 488.921,714.122 491.254,713.455 493.5,712.5 Z"/></g>
<g><path style="opacity:0.982" fill="#f30584" d="M 492.5,727.5 C 491.992,729.233 491.159,729.566 490,728.5C 488.581,729.46 487.081,730.293 485.5,731C 475.15,733.846 464.816,736.679 454.5,739.5C 454.217,738.711 453.717,738.044 453,737.5C 449.111,739.334 447.444,738.334 448,734.5C 446.984,735.634 446.317,735.301 446,733.5C 445.586,733.957 445.086,734.291 444.5,734.5C 442.477,732.827 440.144,732.16 437.5,732.5C 441.418,730.956 445.418,729.623 449.5,728.5C 450.833,728.5 452.167,728.5 453.5,728.5C 462.156,726 470.823,723.5 479.5,721C 481.441,720.257 483.274,720.424 485,721.5C 485.483,720.552 485.649,719.552 485.5,718.5C 486.822,718.33 487.989,718.663 489,719.5C 490.113,717.671 491.613,716.837 493.5,717C 491.87,719.713 490.87,722.713 490.5,726C 490.836,727.03 491.503,727.53 492.5,727.5 Z"/></g>
<g><path style="opacity:0.847" fill="#f114a3" d="M 259.5,718.5 C 264.997,719.118 270.497,719.785 276,720.5C 277.707,720.492 279.207,720.158 280.5,719.5C 282.65,718.924 284.65,719.591 286.5,721.5C 289.201,720.801 291.701,721.468 294,723.5C 294.414,723.043 294.914,722.709 295.5,722.5C 298.842,724.179 302.175,724.846 305.5,724.5C 311.46,726.971 317.126,728.304 322.5,728.5C 320.885,730.436 318.718,731.436 316,731.5C 308.568,730.051 301.068,729.051 293.5,728.5C 281.629,726.43 270.295,723.096 259.5,718.5 Z"/></g>
<g><path style="opacity:1" fill="#fb539b" d="M 259.5,723.5 C 266.313,724.445 272.647,726.445 278.5,729.5C 271.707,728.679 265.374,726.679 259.5,723.5 Z"/></g>
<g><path style="opacity:1" fill="#fe6a94" d="M 258.5,718.5 C 258.833,718.5 259.167,718.5 259.5,718.5C 270.295,723.096 281.629,726.43 293.5,728.5C 296.906,730.109 300.573,731.276 304.5,732C 312.731,732.583 320.731,733.75 328.5,735.5C 321.142,734.885 313.809,734.385 306.5,734C 308.315,734.757 309.981,735.59 311.5,736.5C 308.167,736.167 304.833,735.833 301.5,735.5C 293.436,734.236 285.77,732.236 278.5,729.5C 272.647,726.445 266.313,724.445 259.5,723.5C 258.508,723.672 257.842,723.338 257.5,722.5C 255.087,721.313 252.753,719.979 250.5,718.5C 253.126,717.551 255.792,717.551 258.5,718.5 Z"/></g>
<g><path style="opacity:0.768" fill="#f21298" d="M 408.5,730.5 C 408.389,731.117 408.056,731.617 407.5,732C 403.688,732.795 400.021,733.629 396.5,734.5C 373.925,736.805 351.258,737.138 328.5,735.5C 320.731,733.75 312.731,732.583 304.5,732C 300.573,731.276 296.906,730.109 293.5,728.5C 301.068,729.051 308.568,730.051 316,731.5C 318.718,731.436 320.885,730.436 322.5,728.5C 325.762,727.203 328.929,727.536 332,729.5C 335.966,730.768 339.966,730.768 344,729.5C 345.667,730.167 347.333,730.833 349,731.5C 365.856,731.018 382.856,731.018 400,731.5C 402.782,729.918 405.616,729.584 408.5,730.5 Z"/></g>
<g><path style="opacity:0.735" fill="#f82e87" d="M 435.5,725.5 C 436.857,727.499 436.19,728.665 433.5,729C 423.827,730.571 414.16,732.404 404.5,734.5C 401.833,734.5 399.167,734.5 396.5,734.5C 400.021,733.629 403.688,732.795 407.5,732C 408.056,731.617 408.389,731.117 408.5,730.5C 417.802,728.899 426.802,727.233 435.5,725.5 Z"/></g>
<g><path style="opacity:0.914" fill="#f20d8c" d="M 437.5,732.5 C 440.144,732.16 442.477,732.827 444.5,734.5C 445.086,734.291 445.586,733.957 446,733.5C 446.317,735.301 446.984,735.634 448,734.5C 447.444,738.334 449.111,739.334 453,737.5C 453.717,738.044 454.217,738.711 454.5,739.5C 441.862,741.94 429.195,743.94 416.5,745.5C 416.5,743.5 416.5,741.5 416.5,739.5C 405.862,740.546 395.195,741.212 384.5,741.5C 384.5,741.167 384.5,740.833 384.5,740.5C 392.854,739.931 401.187,739.098 409.5,738C 418.735,735.55 428.069,733.716 437.5,732.5 Z"/></g>
<g><path style="opacity:0.728" fill="#f00ba5" d="M 236.5,715.5 C 243.601,717.645 250.601,719.978 257.5,722.5C 257.842,723.338 258.508,723.672 259.5,723.5C 265.374,726.679 271.707,728.679 278.5,729.5C 285.77,732.236 293.436,734.236 301.5,735.5C 303.019,736.41 304.685,737.243 306.5,738C 318.437,740.048 330.437,741.548 342.5,742.5C 344.308,743.325 346.141,744.325 348,745.5C 350.558,743.853 351.392,744.187 350.5,746.5C 346.657,745.523 342.657,745.523 338.5,746.5C 321.716,744.537 305.382,741.537 289.5,737.5C 288.914,737.709 288.414,738.043 288,738.5C 284.667,737.167 281.333,735.833 278,734.5C 277.586,734.957 277.086,735.291 276.5,735.5C 271.331,733.579 266.164,731.579 261,729.5C 259.127,730.089 257.46,729.422 256,727.5C 255.617,728.056 255.117,728.389 254.5,728.5C 254.721,727.265 255.388,726.265 256.5,725.5C 254.119,723.478 251.453,723.145 248.5,724.5C 248.5,723.5 248.5,722.5 248.5,721.5C 245.265,720.352 241.932,719.185 238.5,718C 237.619,717.292 236.953,716.458 236.5,715.5 Z"/></g>
<g><path style="opacity:1" fill="#fd638b" d="M 328.5,735.5 C 351.258,737.138 373.925,736.805 396.5,734.5C 399.167,734.5 401.833,734.5 404.5,734.5C 404.082,735.222 403.416,735.722 402.5,736C 385.823,737.056 369.157,738.223 352.5,739.5C 363.146,740.499 373.813,740.832 384.5,740.5C 384.5,740.833 384.5,741.167 384.5,741.5C 359.911,742.772 335.578,741.106 311.5,736.5C 309.981,735.59 308.315,734.757 306.5,734C 313.809,734.385 321.142,734.885 328.5,735.5 Z"/></g>
<g><path style="opacity:1" fill="#fe6581" d="M 453.5,721.5 C 453.5,722.5 453.5,723.5 453.5,724.5C 451.712,724.215 450.045,724.548 448.5,725.5C 444.245,727.865 444.579,728.865 449.5,728.5C 445.418,729.623 441.418,730.956 437.5,732.5C 428.069,733.716 418.735,735.55 409.5,738C 401.187,739.098 392.854,739.931 384.5,740.5C 373.813,740.832 363.146,740.499 352.5,739.5C 369.157,738.223 385.823,737.056 402.5,736C 403.416,735.722 404.082,735.222 404.5,734.5C 414.16,732.404 423.827,730.571 433.5,729C 436.19,728.665 436.857,727.499 435.5,725.5C 441.575,724.481 447.575,723.148 453.5,721.5 Z"/></g>
<g><path style="opacity:1" fill="#f73296" d="M 301.5,735.5 C 304.833,735.833 308.167,736.167 311.5,736.5C 335.578,741.106 359.911,742.772 384.5,741.5C 370.677,742.496 356.677,742.829 342.5,742.5C 330.437,741.548 318.437,740.048 306.5,738C 304.685,737.243 303.019,736.41 301.5,735.5 Z"/></g>
<g><path style="opacity:0.935" fill="#f10494" d="M 416.5,745.5 C 413.104,746.198 409.771,746.198 406.5,745.5C 404.291,746.106 402.124,746.773 400,747.5C 392.864,747.182 385.531,746.849 378,746.5C 376.333,747.167 374.667,747.833 373,748.5C 365.248,746.952 357.748,746.285 350.5,746.5C 351.392,744.187 350.558,743.853 348,745.5C 346.141,744.325 344.308,743.325 342.5,742.5C 356.677,742.829 370.677,742.496 384.5,741.5C 395.195,741.212 405.862,740.546 416.5,739.5C 416.5,741.5 416.5,743.5 416.5,745.5 Z"/></g>
</svg>
