<svg width="611" height="193" viewBox="0 0 611 193" fill="none" xmlns="http://www.w3.org/2000/svg">
<g clip-path="url(#clip0_177_24463)">
<path opacity="0.94" fill-rule="evenodd" clip-rule="evenodd" d="M84.9276 -0.198547C86.5187 -0.198547 88.1099 -0.198547 89.701 -0.198547C116.657 17.4303 143.706 34.9697 170.849 52.4198C172.611 53.6477 173.738 55.3025 174.231 57.3838C175.066 61.9836 175 66.5505 174.032 71.0844C173.049 71.3647 172.12 71.2325 171.247 70.6873C143.422 52.5036 115.444 34.567 87.3143 16.8776C62.992 32.1296 38.8597 47.6833 14.9172 63.5391C38.3834 79.0919 61.9852 94.4473 85.7231 109.605C86.784 109.87 87.8445 109.87 88.9054 109.605C91.5575 108.149 94.2091 106.693 96.8612 105.237C98.9006 104.45 100.89 104.582 102.828 105.634C105.745 107.487 108.662 109.34 111.579 111.193C112.179 111.526 112.378 111.989 112.176 112.583C111.351 113.359 110.489 114.086 109.59 114.768C103.252 118.582 97.0199 122.553 90.8944 126.681C88.9659 127.789 86.977 127.921 84.9276 127.078C57.8132 109.506 30.631 92.0328 3.38135 74.6585C1.41012 73.1621 0.216763 71.2428 -0.19873 68.9002C-0.19873 65.9881 -0.19873 63.0757 -0.19873 60.1636C1.17892 55.9101 3.69823 52.4023 7.35921 49.6399C33.5114 33.4136 59.3674 16.8007 84.9276 -0.198547Z" fill="#093D62"/>
<path opacity="0.896" fill-rule="evenodd" clip-rule="evenodd" d="M375.709 27.2027C376.128 27.1433 376.526 27.2095 376.903 27.4012C377.204 28.0018 377.602 28.5312 378.096 28.9897C389.367 29.2545 400.639 29.2545 411.908 28.9897C412.517 28.7119 412.914 28.2486 413.101 27.5998C413.575 27.231 414.104 27.0986 414.692 27.2027C414.692 30.9091 414.692 34.6156 414.692 38.322C414.104 38.4261 413.575 38.2937 413.101 37.9249C412.914 37.2761 412.517 36.8128 411.908 36.535C407.799 36.3365 403.69 36.2703 399.577 36.3364C399.509 46.133 399.577 55.9287 399.775 65.7233C400.01 66.6617 400.607 67.0588 401.565 66.9146C401.565 67.5766 401.565 68.2382 401.565 68.9002C397.224 69.0273 392.914 68.8951 388.637 68.5031C388.372 68.106 388.372 67.7089 388.637 67.3117C389.239 67.0111 389.77 66.614 390.229 66.1204C390.427 56.1932 390.494 46.2652 390.427 36.3364C386.315 36.2703 382.204 36.3365 378.096 36.535C377.602 36.9935 377.204 37.5229 376.903 38.1235C376.388 38.3181 375.858 38.3843 375.312 38.322C375.19 34.5825 375.323 30.876 375.709 27.2027Z" fill="#093D62"/>
<path opacity="0.892" fill-rule="evenodd" clip-rule="evenodd" d="M237.677 28.394C244.103 28.4754 250.203 29.9315 255.976 32.7624C256.941 31.6543 257.737 31.7204 258.362 32.9609C256.956 36.234 255.298 39.3448 253.39 42.2932C250.492 38.7593 246.713 36.7075 242.053 36.1379C238.584 35.6277 235.269 36.091 232.108 37.5278C229.87 39.5322 230.003 41.3191 232.506 42.8889C238.08 43.6248 243.649 44.419 249.213 45.2716C256.867 47.6456 259.718 52.7418 257.766 60.5607C256.123 64.661 253.14 67.2422 248.815 68.3045C239.676 70.5197 230.991 69.3946 222.76 64.929C221.917 65.9536 221.055 65.9536 220.175 64.929C221.676 61.7985 223.069 58.6216 224.352 55.3982C224.575 55.1909 224.84 55.0586 225.147 55.001C226.944 58.3309 229.794 60.3828 233.7 61.1564C238.549 62.7766 243.19 62.3795 247.622 59.965C249.875 57.8611 249.742 56.0077 247.224 54.4054C241.663 53.5531 236.094 52.7589 230.517 52.0226C223.816 50.0911 220.965 45.6568 221.965 38.7191C222.821 34.6977 225.142 31.8517 228.926 30.1811C231.812 29.1533 234.729 28.5576 237.677 28.394Z" fill="#093D62"/>
<path opacity="0.903" fill-rule="evenodd" clip-rule="evenodd" d="M290.185 28.3941C299.328 27.7879 306.422 31.2297 311.467 38.7192C315.497 47.1532 314.701 55.0956 309.08 62.5463C306.21 65.6681 302.696 67.7196 298.539 68.7017C294.446 69.2993 290.336 69.4316 286.208 69.0988C274.911 67.0707 268.944 60.3197 268.307 48.8457C269.792 35.7797 277.084 28.9625 290.185 28.3941ZM288.594 35.9393C298.048 35.2823 303.352 39.5844 304.506 48.8457C302.874 59.7923 296.641 63.8961 285.81 61.1564C278.34 56.9231 276.153 50.7678 279.246 42.6904C281.429 39.1168 284.545 36.8665 288.594 35.9393Z" fill="#093D62"/>
<path opacity="0.898" fill-rule="evenodd" clip-rule="evenodd" d="M324.395 29.1883C328.638 29.1883 332.881 29.1883 337.124 29.1883C337.354 30.3994 336.889 31.1936 335.732 31.571C335.351 40.3279 335.484 49.0645 336.13 57.7809C337.013 59.3249 338.273 60.4499 339.909 61.1564C344.661 62.6547 349.302 62.3899 353.831 60.3622C355.171 59.423 356.033 58.1653 356.417 56.5895C357.045 48.528 357.178 40.4534 356.814 32.3652C356.549 31.571 356.019 31.0415 355.223 30.7768C355.028 30.2632 354.962 29.7337 355.024 29.1883C359.135 29.1883 363.245 29.1883 367.356 29.1883C367.46 29.7752 367.328 30.3047 366.958 30.7768C366.435 31.0995 365.971 31.4967 365.566 31.9681C365.433 40.7048 365.3 49.4414 365.168 58.178C364.508 62.9415 361.922 66.1843 357.411 67.9074C353.652 69.0392 349.807 69.5023 345.875 69.2973C340.327 69.7656 335.155 68.6405 330.362 65.9218C327.674 63.5713 326.282 60.5929 326.185 56.9866C326.052 48.5149 325.92 40.0428 325.787 31.571C324.63 31.1936 324.165 30.3994 324.395 29.1883Z" fill="#093D62"/>
<path opacity="0.903" fill-rule="evenodd" clip-rule="evenodd" d="M423.842 29.1883C428.086 29.1883 432.326 29.1883 436.571 29.1883C436.801 30.3994 436.336 31.1936 435.178 31.571C435.047 31.9681 434.912 32.3652 434.781 32.7624C434.582 36.7313 434.514 40.7024 434.582 44.6759C441.873 44.6759 449.169 44.6759 456.46 44.6759C456.528 40.4379 456.46 36.202 456.261 31.9681C455.855 31.4967 455.39 31.0995 454.869 30.7768C454.499 30.3047 454.368 29.7752 454.471 29.1883C458.847 29.1883 463.222 29.1883 467.598 29.1883C467.701 29.7752 467.57 30.3047 467.2 30.7768C466.679 31.0995 466.214 31.4967 465.808 31.9681C465.542 43.3523 465.542 54.7362 465.808 66.1204C466.265 66.614 466.799 67.0111 467.399 67.3118C467.666 67.7089 467.666 68.106 467.399 68.5031C463.254 68.9606 459.077 69.0269 454.869 68.7017C454.519 68.1632 454.388 67.5675 454.471 66.9146C455.223 66.9952 455.82 66.7308 456.261 66.1204C456.46 61.3569 456.528 56.5915 456.46 51.8241C449.169 51.8241 441.873 51.8241 434.582 51.8241C434.514 56.3266 434.582 60.8276 434.781 65.3262C434.824 66.4965 435.421 67.0258 436.571 66.9146C436.571 67.5766 436.571 68.2382 436.571 68.9002C432.326 68.9002 428.086 68.9002 423.842 68.9002C423.71 67.6664 424.176 66.7399 425.234 66.1204C425.5 54.6039 425.5 43.0875 425.234 31.571C424.076 31.1936 423.611 30.3994 423.842 29.1883Z" fill="#093D62"/>
<path opacity="0.936" fill-rule="evenodd" clip-rule="evenodd" d="M85.325 31.9681C87.4918 31.7003 89.4807 32.1636 91.2918 33.358C117.811 50.5664 144.33 67.7752 170.849 84.9835C172.437 86.1705 173.564 87.6927 174.23 89.5504C175.06 94.7253 174.994 99.8878 174.031 105.038C145.588 86.8032 117.213 68.4697 88.9051 50.037C87.9771 49.7722 87.0486 49.7722 86.1206 50.037C74.7173 57.4501 63.3143 64.8627 51.911 72.2757C50.8501 72.5406 49.7896 72.5406 48.7287 72.2757C44.7313 69.8859 40.8863 67.3046 37.1929 64.5319C37.9153 63.6118 38.7108 62.7512 39.5796 61.9506C54.8538 51.9472 70.1025 41.9529 85.325 31.9681Z" fill="#009BA7"/>
<path opacity="0.936" fill-rule="evenodd" clip-rule="evenodd" d="M89.3028 192.801C87.8441 192.801 86.3858 192.801 84.9272 192.801C57.7711 175.139 30.5889 157.467 3.38095 139.786C1.81847 138.321 0.824008 136.534 0.397549 134.425C0.198716 130.059 0.132419 125.69 0.198656 121.32C1.64131 121.63 2.96727 122.225 4.17652 123.107C30.6956 140.315 57.2146 157.524 83.7338 174.732C85.7836 176.355 87.905 176.487 90.0984 175.13C110.318 161.926 130.605 148.821 150.96 135.815C154.165 133.82 157.215 131.636 160.109 129.262C136.589 113.747 112.987 98.3259 89.3028 82.9979C88.2964 82.4332 87.2355 82.301 86.1205 82.6008C83.8973 83.6329 81.7755 84.8243 79.7559 86.1749C76.366 88.1049 73.0513 87.9722 69.8113 85.7778C67.4246 84.1893 65.0378 82.6008 62.6511 81.0123C62.1209 80.6152 62.1209 80.2181 62.6511 79.821C69.6526 75.6095 76.5474 71.2412 83.336 66.716C85.1992 65.3555 87.1882 65.0906 89.3028 65.9218C116.682 83.7588 144.13 101.497 171.645 119.136C172.507 119.731 173.236 120.459 173.832 121.32C174.098 126.615 174.098 131.91 173.832 137.205C173.52 137.914 173.056 138.51 172.44 138.992C144.689 156.943 116.976 174.879 89.3028 192.801Z" fill="#093D62"/>
<path opacity="0.886" fill-rule="evenodd" clip-rule="evenodd" d="M240.064 87.1677C248.038 86.5343 255.33 88.4536 261.942 92.9259C262.749 93.1237 263.544 93.0574 264.329 92.7274C264.926 92.7087 265.324 92.9732 265.523 93.5216C263.865 96.0365 262.208 98.5519 260.55 101.067C259.995 101.872 259.332 102.004 258.561 101.464C258.582 100.228 258.118 99.2349 257.169 98.4856C250.074 93.9664 242.781 93.5692 235.291 97.2942C229.402 102.738 228.54 108.894 232.705 115.76C236.72 119.7 241.56 121.354 247.224 120.724C251.453 120.29 255.099 118.636 258.163 115.76C258.185 114.67 258.649 113.876 259.556 113.378C261.543 115.96 263.465 118.608 265.324 121.32C265.089 123.021 264.294 123.286 262.937 122.114C260.256 123.552 257.538 124.942 254.782 126.284C249.619 127.99 244.315 128.52 238.871 127.872C225.914 125.496 219.881 117.752 220.772 104.641C222.186 96.7454 226.629 91.3843 234.097 88.5576C236.125 88.0175 238.113 87.5545 240.064 87.1677Z" fill="#093D62"/>
<path opacity="0.901" fill-rule="evenodd" clip-rule="evenodd" d="M399.179 87.1677C407.83 86.128 415.19 88.6434 421.256 94.7129C427.744 104.508 427.147 113.84 419.466 122.71C413.109 127.503 405.949 129.223 397.985 127.872C384.399 124.888 378.631 116.482 380.682 102.655C383.514 93.5406 389.68 88.3781 399.179 87.1677ZM399.576 94.7129C409.402 93.8111 414.971 98.1794 416.283 107.818C415.138 116.971 409.967 121.273 400.77 120.724C392.451 118.742 388.805 113.513 389.831 105.038C391.12 99.7147 394.369 96.2728 399.576 94.7129Z" fill="#093D62"/>
<path opacity="0.896" fill-rule="evenodd" clip-rule="evenodd" d="M288.594 87.9619C293.5 87.9619 298.406 87.9619 303.312 87.9619C303.363 89.052 302.898 89.8462 301.92 90.3446C301.654 91.0066 301.654 91.6682 301.92 92.3302C307.224 102.788 312.395 113.246 317.433 123.703C318.066 124.934 319.061 125.596 320.417 125.688C320.417 126.218 320.417 126.747 320.417 127.277C315.378 127.277 310.34 127.277 305.301 127.277C305.301 126.747 305.301 126.218 305.301 125.688C306.26 125.79 306.924 125.393 307.29 124.497C306.388 122.234 305.328 120.05 304.108 117.944C298.406 117.68 292.704 117.68 287.003 117.944C285.783 120.05 284.722 122.234 283.82 124.497C284.193 125.082 284.723 125.479 285.412 125.688C285.781 126.16 285.914 126.69 285.809 127.277C281.301 127.277 276.793 127.277 272.285 127.277C272.285 126.747 272.285 126.218 272.285 125.688C273.241 125.731 273.97 125.334 274.472 124.497C279.752 113.823 284.924 103.101 289.986 92.3302C290.466 91.0011 290.068 90.0746 288.793 89.5504C288.598 89.0369 288.531 88.5072 288.594 87.9619ZM295.356 99.0813C297.411 102.921 299.267 106.892 300.925 110.995C297.345 111.524 293.765 111.524 290.185 110.995C292.07 107.061 293.794 103.09 295.356 99.0813Z" fill="#093D62"/>
<path opacity="0.912" fill-rule="evenodd" clip-rule="evenodd" d="M328.771 87.9619C338.716 87.8956 348.661 87.9619 358.605 88.1605C367.56 89.4182 371.206 94.5144 369.544 103.45C368.901 105.546 367.774 107.333 366.163 108.811C364.118 109.965 361.997 110.892 359.798 111.591C362.928 115.655 365.911 119.825 368.748 124.1C369.6 125.22 370.727 125.749 372.129 125.688C372.129 126.218 372.129 126.747 372.129 127.277C367.222 127.343 362.316 127.277 357.411 127.078C357.279 126.946 357.146 126.813 357.014 126.681C357.481 126.016 358.012 125.421 358.605 124.894C355.638 120.626 352.721 116.324 349.853 111.988C346.541 111.789 343.226 111.723 339.909 111.789C339.842 116.159 339.909 120.528 340.108 124.894C341.086 125.392 341.55 126.187 341.5 127.277C337.257 127.277 333.014 127.277 328.771 127.277C328.667 126.69 328.799 126.16 329.169 125.688C329.937 125.432 330.401 124.902 330.561 124.1C330.826 113.113 330.826 102.126 330.561 91.1389C330.295 90.3447 329.765 89.8153 328.97 89.5504C328.775 89.037 328.708 88.5072 328.771 87.9619ZM339.909 95.1101C345.479 95.0438 351.048 95.1101 356.616 95.3087C360.229 96.369 361.356 98.6854 359.997 102.258C358.934 103.585 357.542 104.313 355.82 104.442C350.518 104.641 345.214 104.707 339.909 104.641C339.909 101.464 339.909 98.2871 339.909 95.1101Z" fill="#093D62"/>
<path opacity="0.917" fill-rule="evenodd" clip-rule="evenodd" d="M436.969 87.9619C441.213 87.9619 445.453 87.9619 449.698 87.9619C449.801 88.5489 449.67 89.0782 449.3 89.5504C448.779 89.8732 448.313 90.2704 447.908 90.7417C447.709 100.669 447.641 110.597 447.709 120.526C455.533 120.592 463.358 120.526 471.178 120.327C472.196 120.237 472.861 119.708 473.167 118.739C473.68 118.544 474.213 118.478 474.758 118.54C474.758 122.114 474.758 125.688 474.758 129.262C473.545 129.491 472.749 129.028 472.371 127.872C471.974 127.74 471.576 127.608 471.178 127.475C459.778 127.277 448.373 127.21 436.969 127.277C436.917 126.187 437.382 125.392 438.361 124.894C438.627 113.378 438.627 101.861 438.361 90.3446C437.203 89.9674 436.738 89.1731 436.969 87.9619Z" fill="#093D62"/>
<path opacity="0.914" fill-rule="evenodd" clip-rule="evenodd" d="M483.907 87.9619C488.152 87.9619 492.392 87.9619 496.636 87.9619C496.867 89.1731 496.402 89.9674 495.244 90.3446C494.914 101.996 494.978 113.644 495.443 125.291C496.346 125.639 496.744 126.301 496.636 127.277C492.392 127.277 488.152 127.277 483.907 127.277C483.804 126.69 483.935 126.16 484.305 125.688C485.073 125.432 485.538 124.902 485.697 124.1C485.964 113.113 485.964 102.126 485.697 91.1389C485.431 90.3446 484.902 89.8153 484.106 89.5504C483.911 89.0369 483.844 88.5072 483.907 87.9619Z" fill="#093D62"/>
<path opacity="0.908" fill-rule="evenodd" clip-rule="evenodd" d="M508.968 87.9619C513.61 87.9619 518.248 87.9619 522.89 87.9619C522.528 89.0627 522.198 90.1218 521.896 91.1389C528.932 98.43 535.961 105.71 542.978 112.98C543.245 105.567 543.245 98.1548 542.978 90.7417C542.573 90.2704 542.107 89.8732 541.586 89.5504C541.216 89.0782 541.085 88.5489 541.188 87.9619C545.297 87.9619 549.41 87.9619 553.52 87.9619C553.623 88.5489 553.492 89.0782 553.122 89.5504C552.601 89.8732 552.135 90.2704 551.73 90.7417C551.463 101.993 551.463 113.245 551.73 124.497C551.964 125.435 552.561 125.832 553.52 125.688C553.52 126.218 553.52 126.747 553.52 127.277C549.144 127.277 544.768 127.277 540.393 127.277C540.544 126.201 540.874 125.274 541.387 124.497C534.116 116.973 526.824 109.427 519.509 101.861C519.179 109.674 519.242 117.485 519.708 125.291C520.611 125.639 521.009 126.301 520.901 127.277C516.923 127.277 512.945 127.277 508.968 127.277C508.86 126.301 509.258 125.639 510.161 125.291C510.626 113.644 510.69 101.996 510.36 90.3446C509.202 89.9674 508.737 89.1731 508.968 87.9619Z" fill="#093D62"/>
<path opacity="0.897" fill-rule="evenodd" clip-rule="evenodd" d="M610.801 125.688C610.801 126.218 610.801 126.747 610.801 127.277C605.896 127.277 600.988 127.277 596.083 127.277C596.242 126.077 596.775 125.084 597.674 124.298C596.91 122.181 595.984 120.129 594.89 118.143C589.054 117.614 583.223 117.614 577.387 118.143C576.496 120.225 575.565 122.277 574.603 124.298C574.929 125.154 575.525 125.749 576.393 126.085C576.584 126.462 576.651 126.859 576.591 127.277C571.949 127.277 567.311 127.277 562.669 127.277C562.669 126.747 562.669 126.218 562.669 125.688C563.389 125.692 564.053 125.493 564.658 125.093C570.35 113.926 575.784 102.608 580.967 91.1389C579.889 90.3351 579.36 89.2764 579.376 87.9619C584.149 87.9619 588.923 87.9619 593.696 87.9619C593.76 88.5072 593.692 89.0369 593.497 89.5504C591.942 90.245 591.676 91.3037 592.702 92.7273C598.072 103.646 603.573 114.434 609.21 125.093C609.703 125.407 610.236 125.605 610.801 125.688ZM586.138 99.4784C588.084 103.232 589.941 107.071 591.707 110.995C588 111.457 584.289 111.524 580.569 111.193C582.483 107.308 584.34 103.403 586.138 99.4784Z" fill="#093D62"/>
<path opacity="0.933" fill-rule="evenodd" clip-rule="evenodd" d="M0.198653 89.1533C2.2491 89.7776 4.23802 90.6378 6.16545 91.7346C32.5624 109.014 59.0814 126.09 85.7227 142.963C87.4261 143.346 89.0172 143.081 90.4962 142.169C101.046 134.852 111.786 127.836 122.717 121.121C124.213 120.828 125.672 120.961 127.093 121.519C130.478 123.804 133.792 126.187 137.037 128.667C121.592 139.09 106.078 149.415 90.4962 159.642C89.131 160.465 87.6727 160.729 86.1205 160.436C58.4187 142.901 30.8388 125.163 3.38095 107.222C1.81847 105.758 0.824006 103.971 0.397547 101.861C0.198718 97.6275 0.13242 93.3914 0.198653 89.1533Z" fill="#009BA7"/>
<path opacity="0.821" fill-rule="evenodd" clip-rule="evenodd" d="M328.373 141.176C332.435 140.649 336.148 141.51 339.511 143.757C340.54 144.363 340.871 145.223 340.505 146.338C339.563 147.15 338.635 147.944 337.721 148.721C334.929 146.028 331.68 145.3 327.975 146.537C323.034 150.192 322.768 154.163 327.18 158.451C330.531 160.539 333.581 160.208 336.329 157.458C334.491 157.063 332.635 156.931 330.76 157.061C330.76 155.472 330.76 153.884 330.76 152.295C334.605 152.295 338.45 152.295 342.295 152.295C341.943 161.844 337.037 165.749 327.577 164.01C321.037 161.571 318.319 156.872 319.423 149.913C320.813 145.281 323.796 142.368 328.373 141.176Z" fill="#009BA7"/>
<path opacity="0.823" fill-rule="evenodd" clip-rule="evenodd" d="M402.361 141.176C405.87 140.8 409.183 141.396 412.306 142.963C413.141 143.766 413.937 144.56 414.692 145.346C413.845 146.656 412.783 147.782 411.51 148.721C407.166 144.904 402.99 145.037 398.98 149.118C397.264 153.057 398.125 156.3 401.566 158.848C404.895 160.456 407.811 159.927 410.317 157.259C408.467 157.061 406.609 156.995 404.748 157.061C404.748 155.472 404.748 153.884 404.748 152.295C408.594 152.295 412.437 152.295 416.284 152.295C416.475 159.916 412.759 164.02 405.146 164.606C396.32 163.676 392.408 158.778 393.411 149.913C394.79 145.292 397.774 142.379 402.361 141.176Z" fill="#009BA7"/>
<path opacity="0.812" fill-rule="evenodd" clip-rule="evenodd" d="M488.283 141.176C493.339 140.362 497.452 141.884 500.614 145.743C499.866 147.084 498.808 148.077 497.432 148.721C495.904 147.761 494.313 146.9 492.658 146.14C485.793 145.875 483.076 149.118 484.504 155.869C486.628 159.262 489.611 160.387 493.454 159.245C494.826 158.534 496.087 157.673 497.233 156.664C498.768 157.53 499.83 158.721 500.415 160.238C495.857 164.626 490.618 165.619 484.703 163.216C479.042 159.105 477.519 153.744 480.128 147.133C482.022 143.98 484.738 141.994 488.283 141.176Z" fill="#009BA7"/>
<path opacity="0.853" fill-rule="evenodd" clip-rule="evenodd" d="M220.573 141.573C224.683 141.573 228.794 141.573 232.904 141.573C232.904 143.162 232.904 144.75 232.904 146.338C230.385 146.338 227.865 146.338 225.346 146.338C225.346 147.398 225.346 148.456 225.346 149.515C227.865 149.515 230.385 149.515 232.904 149.515C232.904 151.104 232.904 152.692 232.904 154.281C230.385 154.281 227.865 154.281 225.346 154.281C225.346 155.869 225.346 157.458 225.346 159.046C227.865 159.046 230.385 159.046 232.904 159.046C232.904 160.635 232.904 162.223 232.904 163.812C228.794 163.812 224.683 163.812 220.573 163.812C220.573 156.399 220.573 148.986 220.573 141.573Z" fill="#009BA7"/>
<path opacity="0.837" fill-rule="evenodd" clip-rule="evenodd" d="M244.042 141.573C245.739 141.455 247.397 141.587 249.014 141.97C250.422 146.387 251.948 150.755 253.589 155.075C255.23 150.755 256.755 146.387 258.163 141.97C259.781 141.587 261.438 141.455 263.136 141.573C264.226 149.002 265.42 156.415 266.716 163.812C265.103 163.94 263.512 163.808 261.942 163.415C261.158 159.592 260.429 155.753 259.755 151.898C258.369 155.847 257.11 159.818 255.976 163.812C254.384 163.812 252.793 163.812 251.202 163.812C250.144 159.914 248.884 156.075 247.423 152.295C246.602 156.117 245.872 159.956 245.235 163.812C243.644 163.812 242.053 163.812 240.462 163.812C241.656 156.397 242.849 148.985 244.042 141.573Z" fill="#009BA7"/>
<path opacity="0.829" fill-rule="evenodd" clip-rule="evenodd" d="M275.069 141.573C279.313 141.573 283.555 141.573 287.799 141.573C287.799 143.162 287.799 144.75 287.799 146.338C285.146 146.338 282.495 146.338 279.843 146.338C279.843 147.398 279.843 148.456 279.843 149.515C282.495 149.515 285.146 149.515 287.799 149.515C287.799 151.104 287.799 152.692 287.799 154.281C285.146 154.281 282.495 154.281 279.843 154.281C279.843 155.869 279.843 157.458 279.843 159.046C282.495 159.046 285.146 159.046 287.799 159.046C287.799 160.635 287.799 162.223 287.799 163.812C283.555 163.812 279.313 163.812 275.069 163.812C275.069 156.399 275.069 148.986 275.069 141.573Z" fill="#009BA7"/>
<path opacity="0.828" fill-rule="evenodd" clip-rule="evenodd" d="M296.948 141.573C300.29 141.426 303.605 141.625 306.892 142.169C310.307 144.026 311.434 146.872 310.274 150.707C309.566 152.34 308.439 153.597 306.892 154.479C308.433 157.489 310.024 160.468 311.666 163.415C309.809 163.944 307.953 163.944 306.097 163.415C304.938 160.969 303.679 158.586 302.318 156.266C302.119 158.778 302.053 161.293 302.119 163.812C300.395 163.812 298.671 163.812 296.948 163.812C296.948 156.399 296.948 148.986 296.948 141.573ZM302.119 146.338C303.241 146.238 304.301 146.437 305.301 146.934C305.921 147.983 305.789 148.91 304.903 149.714C303.985 149.911 303.057 149.977 302.119 149.913C302.119 148.721 302.119 147.53 302.119 146.338Z" fill="#009BA7"/>
<path opacity="0.773" fill-rule="evenodd" clip-rule="evenodd" d="M351.046 141.573C352.77 141.573 354.494 141.573 356.218 141.573C356.218 148.986 356.218 156.399 356.218 163.812C354.494 163.812 352.77 163.812 351.046 163.812C351.046 156.399 351.046 148.986 351.046 141.573Z" fill="#009BA7"/>
<path opacity="0.836" fill-rule="evenodd" clip-rule="evenodd" d="M365.765 141.573C367.361 141.507 368.953 141.573 370.538 141.772C373.405 145.84 376.123 150.009 378.693 154.281C378.892 150.047 378.958 145.811 378.892 141.573C380.483 141.573 382.074 141.573 383.665 141.573C383.665 148.986 383.665 156.399 383.665 163.812C382.052 163.94 380.461 163.808 378.892 163.415C376.384 159.39 373.799 155.419 371.135 151.501C370.936 155.602 370.87 159.706 370.936 163.812C369.212 163.812 367.488 163.812 365.765 163.812C365.765 156.399 365.765 148.986 365.765 141.573Z" fill="#009BA7"/>
<path opacity="0.816" fill-rule="evenodd" clip-rule="evenodd" d="M437.764 141.573C441.873 141.573 445.986 141.573 450.095 141.573C450.095 143.162 450.095 144.75 450.095 146.338C448.902 146.338 447.709 146.338 446.515 146.338C446.515 152.163 446.515 157.987 446.515 163.812C444.793 163.812 443.066 163.812 441.344 163.812C441.344 157.987 441.344 152.163 441.344 146.338C440.019 146.338 438.691 146.338 437.366 146.338C437.263 144.71 437.394 143.122 437.764 141.573Z" fill="#009BA7"/>
<path opacity="0.85" fill-rule="evenodd" clip-rule="evenodd" d="M458.449 141.573C462.558 141.573 466.671 141.573 470.78 141.573C470.78 143.162 470.78 144.75 470.78 146.338C468.262 146.338 465.74 146.338 463.222 146.338C463.222 147.398 463.222 148.456 463.222 149.515C465.74 149.515 468.262 149.515 470.78 149.515C470.78 151.104 470.78 152.692 470.78 154.281C468.262 154.281 465.74 154.281 463.222 154.281C463.222 155.869 463.222 157.458 463.222 159.046C465.74 159.046 468.262 159.046 470.78 159.046C470.78 160.635 470.78 162.223 470.78 163.812C466.671 163.812 462.558 163.812 458.449 163.812C458.449 156.399 458.449 148.986 458.449 141.573Z" fill="#009BA7"/>
<path opacity="0.861" fill-rule="evenodd" clip-rule="evenodd" d="M509.366 141.573C510.957 141.573 512.548 141.573 514.139 141.573C514.139 144.221 514.139 146.868 514.139 149.515C516.395 149.515 518.646 149.515 520.902 149.515C520.902 146.868 520.902 144.221 520.902 141.573C522.493 141.573 524.084 141.573 525.675 141.573C525.675 148.986 525.675 156.399 525.675 163.812C524.084 163.812 522.493 163.812 520.902 163.812C520.902 160.635 520.902 157.458 520.902 154.281C518.646 154.281 516.395 154.281 514.139 154.281C514.139 157.458 514.139 160.635 514.139 163.812C512.548 163.812 510.957 163.812 509.366 163.812C509.366 156.399 509.366 148.986 509.366 141.573Z" fill="#009BA7"/>
</g>
<defs>
<clipPath id="clip0_177_24463">
<rect width="611" height="193" fill="white"/>
</clipPath>
</defs>
</svg>
