<?xml version="1.0" encoding="utf-8"?>
<!-- Generator: Adobe Illustrator 24.1.2, SVG Export Plug-In . SVG Version: 6.00 Build 0)  -->
<svg version="1.1" id="Layer_1" xmlns="http://www.w3.org/2000/svg" xmlns:xlink="http://www.w3.org/1999/xlink" x="0px" y="0px"
	 viewBox="0 0 3000 3500" style="enable-background:new 0 0 3000 3500;" xml:space="preserve">
<style type="text/css">
	.st0{fill:url(#SVGID_1_);}
	.st1{fill:url(#SVGID_2_);}
	.st2{fill:url(#SVGID_3_);}
	.st3{fill:url(#SVGID_4_);}
	.st4{fill:url(#SVGID_5_);}
	.st5{fill:url(#SVGID_6_);}
	.st6{fill:url(#SVGID_7_);}
	.st7{fill:url(#SVGID_8_);}
	.st8{fill:url(#SVGID_9_);}
	.st9{fill:url(#SVGID_10_);}
	.st10{fill:url(#SVGID_11_);}
	.st11{fill:url(#SVGID_12_);}
	.st12{fill:url(#SVGID_13_);}
	.st13{fill:url(#SVGID_14_);}
	.st14{fill:url(#SVGID_15_);}
	.st15{fill:url(#SVGID_16_);}
</style>
<g>
	<linearGradient id="SVGID_1_" gradientUnits="userSpaceOnUse" x1="861.417" y1="2499.458" x2="2771.6865" y2="1588.0222">
		<stop  offset="0" style="stop-color:#51CCE2"/>
		<stop  offset="1" style="stop-color:#005EFF"/>
	</linearGradient>
	<path class="st0" d="M1111.54,2527.53l133.86-133.86c5.06-5.06,5.06-13.28,0-18.34l-133.86-133.86c-5.06-5.06-13.28-5.06-18.34,0
		l-133.86,133.86c-5.06,5.06-5.06,13.28,0,18.34l133.86,133.86C1098.26,2532.59,1106.47,2532.59,1111.54,2527.53z"/>
	<linearGradient id="SVGID_2_" gradientUnits="userSpaceOnUse" x1="1003.0712" y1="2796.3496" x2="2913.3406" y2="1884.9139">
		<stop  offset="0" style="stop-color:#51CCE2"/>
		<stop  offset="1" style="stop-color:#005EFF"/>
	</linearGradient>
	<path class="st1" d="M1321.4,2541.21c-5.93-5.93-15.54-5.93-21.46,0l-97.65,97.65c-5.93,5.93-5.93,15.54,0,21.46l97.65,97.65
		c5.93,5.93,15.54,5.93,21.46,0l97.65-97.65c5.93-5.93,5.93-15.54,0-21.46L1321.4,2541.21z"/>
	<linearGradient id="SVGID_3_" gradientUnits="userSpaceOnUse" x1="925.3187" y1="2633.3889" x2="2835.5881" y2="1721.9531">
		<stop  offset="0" style="stop-color:#51CCE2"/>
		<stop  offset="1" style="stop-color:#005EFF"/>
	</linearGradient>
	<path class="st2" d="M902.1,2541.21c-5.93-5.93-15.54-5.93-21.46,0l-97.65,97.65c-5.93,5.93-5.93,15.54,0,21.46l97.65,97.65
		c5.93,5.93,15.54,5.93,21.46,0l97.65-97.65c5.93-5.93,5.93-15.54,0-21.46L902.1,2541.21z"/>
	<linearGradient id="SVGID_4_" gradientUnits="userSpaceOnUse" x1="1135.8712" y1="3074.6841" x2="3046.1406" y2="2163.2483">
		<stop  offset="0" style="stop-color:#51CCE2"/>
		<stop  offset="1" style="stop-color:#005EFF"/>
	</linearGradient>
	<path class="st3" d="M1532.43,2800.44c-5.32-5.32-13.94-5.32-19.26,0l-80,80c-5.32,5.32-5.32,13.94,0,19.26l80,80
		c5.32,5.32,13.94,5.32,19.26,0l80-80c5.32-5.32,5.32-13.94,0-19.26L1532.43,2800.44z"/>
	<linearGradient id="SVGID_5_" gradientUnits="userSpaceOnUse" x1="1065.4567" y1="2927.1025" x2="2975.7261" y2="2015.6669">
		<stop  offset="0" style="stop-color:#51CCE2"/>
		<stop  offset="1" style="stop-color:#005EFF"/>
	</linearGradient>
	<path class="st4" d="M1112.43,2820.57c-5.66-5.66-14.84-5.66-20.5,0l-78.76,78.76c-5.66,5.66-5.66,14.84,0,20.5l78.76,78.76
		c5.66,5.66,14.84,5.66,20.5,0l78.76-78.76c5.66-5.66,5.66-14.84,0-20.5L1112.43,2820.57z"/>
	<linearGradient id="SVGID_6_" gradientUnits="userSpaceOnUse" x1="1208.1975" y1="3226.2717" x2="3118.4668" y2="2314.8359">
		<stop  offset="0" style="stop-color:#51CCE2"/>
		<stop  offset="1" style="stop-color:#005EFF"/>
	</linearGradient>
	<path class="st5" d="M1950.96,2788.67c-6-6-15.74-6-21.74,0l-77.52,77.52c-6,6-6,15.74,0,21.74l77.52,77.52c6,6,15.74,6,21.74,0
		l77.52-77.52c6-6,6-15.74,0-21.74L1950.96,2788.67z"/>
	<linearGradient id="SVGID_7_" gradientUnits="userSpaceOnUse" x1="1325.4536" y1="3472.0278" x2="3235.7229" y2="2560.592">
		<stop  offset="0" style="stop-color:#51CCE2"/>
		<stop  offset="1" style="stop-color:#005EFF"/>
	</linearGradient>
	<path class="st6" d="M1533.29,3313.63c-4.7-4.7-12.31-4.7-17.01,0l-54.78,54.78c-4.7,4.7-4.7,12.31,0,17.01l54.78,54.78
		c4.7,4.7,12.31,4.7,17.01,0l54.78-54.78c4.7-4.7,4.7-12.31,0-17.01L1533.29,3313.63z"/>
	<linearGradient id="SVGID_8_" gradientUnits="userSpaceOnUse" x1="1192.2494" y1="3192.8464" x2="3102.5188" y2="2281.4106">
		<stop  offset="0" style="stop-color:#51CCE2"/>
		<stop  offset="1" style="stop-color:#005EFF"/>
	</linearGradient>
	<path class="st7" d="M1321.56,3057.56c-5.48-5.48-14.37-5.48-19.85,0l-68.4,68.4c-5.48,5.48-5.48,14.37,0,19.85l68.4,68.4
		c5.48,5.48,14.37,5.48,19.85,0l68.4-68.4c5.48-5.48,5.48-14.37,0-19.85L1321.56,3057.56z"/>
	<linearGradient id="SVGID_9_" gradientUnits="userSpaceOnUse" x1="1267.8834" y1="3351.3669" x2="3178.1528" y2="2439.9314">
		<stop  offset="0" style="stop-color:#51CCE2"/>
		<stop  offset="1" style="stop-color:#005EFF"/>
	</linearGradient>
	<path class="st8" d="M1746.99,3048.27c-5.14-5.14-13.47-5.14-18.61,0l-69.64,69.64c-5.14,5.14-5.14,13.47,0,18.61l69.64,69.64
		c5.14,5.14,13.47,5.14,18.61,0l69.64-69.64c5.14-5.14,5.14-13.47,0-18.61L1746.99,3048.27z"/>
	<linearGradient id="SVGID_10_" gradientUnits="userSpaceOnUse" x1="1081.7279" y1="2961.2056" x2="2991.9973" y2="2049.7698">
		<stop  offset="0" style="stop-color:#51CCE2"/>
		<stop  offset="1" style="stop-color:#005EFF"/>
	</linearGradient>
	<path class="st9" d="M1844.07,2639.71l-99.35-99.35c-5.46-5.46-14.31-5.46-19.77,0l-99.35,99.35c-5.46,5.46-5.46,14.31,0,19.77
		l99.35,99.35c5.46,5.46,14.31,5.46,19.77,0l99.35-99.35C1849.53,2654.01,1849.53,2645.16,1844.07,2639.71z"/>
	<linearGradient id="SVGID_11_" gradientUnits="userSpaceOnUse" x1="1156.5094" y1="3117.9392" x2="3066.7788" y2="2206.5034">
		<stop  offset="0" style="stop-color:#51CCE2"/>
		<stop  offset="1" style="stop-color:#005EFF"/>
	</linearGradient>
	<path class="st10" d="M2148,2540.36c-5.46-5.46-14.31-5.46-19.77,0l-99.35,99.35c-5.46,5.46-5.46,14.31,0,19.77l99.35,99.35
		c5.46,5.46,14.31,5.46,19.77,0l99.35-99.35c5.46-5.46,5.46-14.31,0-19.77L2148,2540.36z"/>
	<linearGradient id="SVGID_12_" gradientUnits="userSpaceOnUse" x1="940.3345" y1="2664.8604" x2="2850.604" y2="1753.4247">
		<stop  offset="0" style="stop-color:#51CCE2"/>
		<stop  offset="1" style="stop-color:#005EFF"/>
	</linearGradient>
	<path class="st11" d="M1538.36,2526.29l131.39-131.39c5.75-5.75,5.75-15.07,0-20.82l-131.39-131.39c-5.75-5.75-15.07-5.75-20.82,0
		l-131.39,131.39c-5.75,5.75-5.75,15.07,0,20.82l131.39,131.39C1523.29,2532.04,1532.61,2532.04,1538.36,2526.29z"/>
	<linearGradient id="SVGID_13_" gradientUnits="userSpaceOnUse" x1="1012.9891" y1="2817.1365" x2="2923.2585" y2="1905.7007">
		<stop  offset="0" style="stop-color:#51CCE2"/>
		<stop  offset="1" style="stop-color:#005EFF"/>
	</linearGradient>
	<path class="st12" d="M1948.34,2517.62l131.39-131.39c5.75-5.75,5.75-15.07,0-20.82l-131.39-131.39c-5.75-5.75-15.07-5.75-20.82,0
		l-131.39,131.39c-5.75,5.75-5.75,15.07,0,20.82l131.39,131.39C1933.27,2523.37,1942.59,2523.37,1948.34,2517.62z"/>
	<linearGradient id="SVGID_14_" gradientUnits="userSpaceOnUse" x1="1093.4984" y1="2985.875" x2="3003.7678" y2="2074.4392">
		<stop  offset="0" style="stop-color:#51CCE2"/>
		<stop  offset="1" style="stop-color:#005EFF"/>
	</linearGradient>
	<path class="st13" d="M2363.71,2242.08c-5.41-5.41-14.17-5.41-19.58,0l-132.62,132.62c-5.41,5.41-5.41,14.17,0,19.58l132.62,132.62
		c5.41,5.41,14.17,5.41,19.58,0l132.62-132.62c5.41-5.41,5.41-14.17,0-19.58L2363.71,2242.08z"/>
	<linearGradient id="SVGID_15_" gradientUnits="userSpaceOnUse" x1="775.1636" y1="2318.6804" x2="2685.4331" y2="1407.2446">
		<stop  offset="0" style="stop-color:#51CCE2"/>
		<stop  offset="1" style="stop-color:#005EFF"/>
	</linearGradient>
	<path class="st14" d="M811.44,2359.53l-132.62-132.62c-5.41-5.41-14.17-5.41-19.58,0l-132.62,132.62c-5.41,5.41-5.41,14.17,0,19.58
		l132.62,132.62c5.41,5.41,14.17,5.41,19.58,0l132.62-132.62C816.85,2373.7,816.85,2364.94,811.44,2359.53z"/>
	<linearGradient id="SVGID_16_" gradientUnits="userSpaceOnUse" x1="548.2836" y1="1843.1644" x2="2458.553" y2="931.7287">
		<stop  offset="0" style="stop-color:#51CCE2"/>
		<stop  offset="1" style="stop-color:#005EFF"/>
	</linearGradient>
	<path class="st15" d="M1499.07,61.57L120.06,1452.18l362.47,5.33l11.95,778.89h7.63l149.34-149.34c6.35-6.35,16.66-6.35,23.01,0
		l149.34,149.34h127.41l141.96-141.96c5.43-5.43,14.25-5.43,19.68,0l141.96,141.96h122.51l140.63-140.63
		c6.17-6.17,16.17-6.17,22.34,0l140.63,140.63h106.8L1924,2095.78c6.17-6.17,16.17-6.17,22.34,0l151.47,140.63h103.89l141.29-141.29
		c5.8-5.8,15.21-5.8,21.01,0l141.29,141.29h2.05l10.62-784.22H2903L1499.07,61.57z M1511.53,787.63l181.49,181.49l-181.49,181.49
		l-181.49-181.49L1511.53,787.63z M1076.67,1222.49l181.49-181.49l181.49,181.49l-181.49,181.49L1076.67,1222.49z M1511.53,1657.35
		l-181.49-181.49l181.49-181.49l181.49,181.49L1511.53,1657.35z M1764.9,1403.98l-181.49-181.49l181.49-181.49l181.49,181.49
		L1764.9,1403.98z"/>
</g>
</svg>
